<svg xmlns="http://www.w3.org/2000/svg" xmlns:xlink="http://www.w3.org/1999/xlink" width="2380" zoomAndPan="magnify" viewBox="0 0 1784.88 1784.99993" height="2380" preserveAspectRatio="xMidYMid meet" version="1.2"><defs><clipPath id="3d47228fe9"><path d="M 55 50 L 1477 50 L 1477 808 L 55 808 Z M 55 50 "/></clipPath><clipPath id="224040aeaa"><path d="M -375.179688 704.300781 L 1247.617188 -338.570312 L 2159.925781 1081.058594 L 537.132812 2123.929688 Z M -375.179688 704.300781 "/></clipPath><clipPath id="7269026f93"><path d="M -375.179688 704.300781 L 1247.617188 -338.570312 L 2159.925781 1081.058594 L 537.132812 2123.929688 Z M -375.179688 704.300781 "/></clipPath><clipPath id="0874c49a46"><path d="M 309 977 L 1731 977 L 1731 1735 L 309 1735 Z M 309 977 "/></clipPath><clipPath id="68a764852a"><path d="M -375.179688 704.300781 L 1247.617188 -338.570312 L 2159.925781 1081.058594 L 537.132812 2123.929688 Z M -375.179688 704.300781 "/></clipPath><clipPath id="7017d56ec8"><path d="M -375.179688 704.300781 L 1247.617188 -338.570312 L 2159.925781 1081.058594 L 537.132812 2123.929688 Z M -375.179688 704.300781 "/></clipPath><clipPath id="8c34a09ae3"><path d="M 1513 350 L 1707 350 L 1707 853 L 1513 853 Z M 1513 350 "/></clipPath><clipPath id="082d22c44c"><path d="M -375.179688 704.300781 L 1247.617188 -338.570312 L 2159.925781 1081.058594 L 537.132812 2123.929688 Z M -375.179688 704.300781 "/></clipPath><clipPath id="47eaafab7c"><path d="M -375.179688 704.300781 L 1247.617188 -338.570312 L 2159.925781 1081.058594 L 537.132812 2123.929688 Z M -375.179688 704.300781 "/></clipPath><clipPath id="2552984df2"><path d="M 78 932 L 273 932 L 273 1435 L 78 1435 Z M 78 932 "/></clipPath><clipPath id="b465e050e8"><path d="M -375.179688 704.300781 L 1247.617188 -338.570312 L 2159.925781 1081.058594 L 537.132812 2123.929688 Z M -375.179688 704.300781 "/></clipPath><clipPath id="9160f34e2c"><path d="M -375.179688 704.300781 L 1247.617188 -338.570312 L 2159.925781 1081.058594 L 537.132812 2123.929688 Z M -375.179688 704.300781 "/></clipPath><clipPath id="e407b64203"><path d="M 1593 470 L 1724 470 L 1724 552 L 1593 552 Z M 1593 470 "/></clipPath><clipPath id="b26db188d3"><path d="M -375.179688 704.300781 L 1247.617188 -338.570312 L 2159.925781 1081.058594 L 537.132812 2123.929688 Z M -375.179688 704.300781 "/></clipPath><clipPath id="6bed3fec75"><path d="M -375.179688 704.300781 L 1247.617188 -338.570312 L 2159.925781 1081.058594 L 537.132812 2123.929688 Z M -375.179688 704.300781 "/></clipPath><clipPath id="198df76cdb"><path d="M 62 1233 L 193 1233 L 193 1314 L 62 1314 Z M 62 1233 "/></clipPath><clipPath id="7bda5837cb"><path d="M -375.179688 704.300781 L 1247.617188 -338.570312 L 2159.925781 1081.058594 L 537.132812 2123.929688 Z M -375.179688 704.300781 "/></clipPath><clipPath id="8e95a684d4"><path d="M -375.179688 704.300781 L 1247.617188 -338.570312 L 2159.925781 1081.058594 L 537.132812 2123.929688 Z M -375.179688 704.300781 "/></clipPath><clipPath id="1067241951"><path d="M 1599 479 L 1672 479 L 1672 519 L 1599 519 Z M 1599 479 "/></clipPath><clipPath id="c12e0be37b"><path d="M -375.179688 704.300781 L 1247.617188 -338.570312 L 2159.925781 1081.058594 L 537.132812 2123.929688 Z M -375.179688 704.300781 "/></clipPath><clipPath id="5e05f933db"><path d="M -375.179688 704.300781 L 1247.617188 -338.570312 L 2159.925781 1081.058594 L 537.132812 2123.929688 Z M -375.179688 704.300781 "/></clipPath><clipPath id="8bcabcf74a"><path d="M 113 1266 L 187 1266 L 187 1306 L 113 1306 Z M 113 1266 "/></clipPath><clipPath id="4937287d64"><path d="M -375.179688 704.300781 L 1247.617188 -338.570312 L 2159.925781 1081.058594 L 537.132812 2123.929688 Z M -375.179688 704.300781 "/></clipPath><clipPath id="410cc5f254"><path d="M -375.179688 704.300781 L 1247.617188 -338.570312 L 2159.925781 1081.058594 L 537.132812 2123.929688 Z M -375.179688 704.300781 "/></clipPath><clipPath id="c189febec9"><path d="M 1544 469 L 1613 469 L 1613 620 L 1544 620 Z M 1544 469 "/></clipPath><clipPath id="4bee6db77d"><path d="M -375.179688 704.300781 L 1247.617188 -338.570312 L 2159.925781 1081.058594 L 537.132812 2123.929688 Z M -375.179688 704.300781 "/></clipPath><clipPath id="78a7d9623f"><path d="M -375.179688 704.300781 L 1247.617188 -338.570312 L 2159.925781 1081.058594 L 537.132812 2123.929688 Z M -375.179688 704.300781 "/></clipPath><clipPath id="9d240e938c"><path d="M 172 1165 L 242 1165 L 242 1316 L 172 1316 Z M 172 1165 "/></clipPath><clipPath id="53df751be7"><path d="M -375.179688 704.300781 L 1247.617188 -338.570312 L 2159.925781 1081.058594 L 537.132812 2123.929688 Z M -375.179688 704.300781 "/></clipPath><clipPath id="1d4137f5b3"><path d="M -375.179688 704.300781 L 1247.617188 -338.570312 L 2159.925781 1081.058594 L 537.132812 2123.929688 Z M -375.179688 704.300781 "/></clipPath><clipPath id="7cb2a1c12d"><path d="M 1570 475 L 1604 475 L 1604 556 L 1570 556 Z M 1570 475 "/></clipPath><clipPath id="a08d9c2078"><path d="M -375.179688 704.300781 L 1247.617188 -338.570312 L 2159.925781 1081.058594 L 537.132812 2123.929688 Z M -375.179688 704.300781 "/></clipPath><clipPath id="32e5b43137"><path d="M -375.179688 704.300781 L 1247.617188 -338.570312 L 2159.925781 1081.058594 L 537.132812 2123.929688 Z M -375.179688 704.300781 "/></clipPath><clipPath id="77faae8fa9"><path d="M 182 1229 L 216 1229 L 216 1310 L 182 1310 Z M 182 1229 "/></clipPath><clipPath id="34660d3702"><path d="M -375.179688 704.300781 L 1247.617188 -338.570312 L 2159.925781 1081.058594 L 537.132812 2123.929688 Z M -375.179688 704.300781 "/></clipPath><clipPath id="d6543350e6"><path d="M -375.179688 704.300781 L 1247.617188 -338.570312 L 2159.925781 1081.058594 L 537.132812 2123.929688 Z M -375.179688 704.300781 "/></clipPath><clipPath id="25941d42ee"><path d="M 1579 494 L 1633 494 L 1633 679 L 1579 679 Z M 1579 494 "/></clipPath><clipPath id="ed7236d300"><path d="M -375.179688 704.300781 L 1247.617188 -338.570312 L 2159.925781 1081.058594 L 537.132812 2123.929688 Z M -375.179688 704.300781 "/></clipPath><clipPath id="5e1ab84c6d"><path d="M -375.179688 704.300781 L 1247.617188 -338.570312 L 2159.925781 1081.058594 L 537.132812 2123.929688 Z M -375.179688 704.300781 "/></clipPath><clipPath id="66399a7b08"><path d="M 153 1106 L 206 1106 L 206 1291 L 153 1291 Z M 153 1106 "/></clipPath><clipPath id="075edac2ba"><path d="M -375.179688 704.300781 L 1247.617188 -338.570312 L 2159.925781 1081.058594 L 537.132812 2123.929688 Z M -375.179688 704.300781 "/></clipPath><clipPath id="64ed200f24"><path d="M -375.179688 704.300781 L 1247.617188 -338.570312 L 2159.925781 1081.058594 L 537.132812 2123.929688 Z M -375.179688 704.300781 "/></clipPath><clipPath id="3a2edf9351"><path d="M 1665 682 L 1782 682 L 1782 799 L 1665 799 Z M 1665 682 "/></clipPath><clipPath id="f678bfe8c3"><path d="M -375.179688 704.300781 L 1247.617188 -338.570312 L 2159.925781 1081.058594 L 537.132812 2123.929688 Z M -375.179688 704.300781 "/></clipPath><clipPath id="8f0cdcd132"><path d="M -375.179688 704.300781 L 1247.617188 -338.570312 L 2159.925781 1081.058594 L 537.132812 2123.929688 Z M -375.179688 704.300781 "/></clipPath><clipPath id="b9df87edaf"><path d="M 3 986 L 121 986 L 121 1103 L 3 1103 Z M 3 986 "/></clipPath><clipPath id="20ac0626ed"><path d="M -375.179688 704.300781 L 1247.617188 -338.570312 L 2159.925781 1081.058594 L 537.132812 2123.929688 Z M -375.179688 704.300781 "/></clipPath><clipPath id="58e2cd05f1"><path d="M -375.179688 704.300781 L 1247.617188 -338.570312 L 2159.925781 1081.058594 L 537.132812 2123.929688 Z M -375.179688 704.300781 "/></clipPath><clipPath id="9a5d381077"><path d="M 1671 691 L 1741 691 L 1741 746 L 1671 746 Z M 1671 691 "/></clipPath><clipPath id="954d1d9bc8"><path d="M -375.179688 704.300781 L 1247.617188 -338.570312 L 2159.925781 1081.058594 L 537.132812 2123.929688 Z M -375.179688 704.300781 "/></clipPath><clipPath id="53e63d9a1d"><path d="M -375.179688 704.300781 L 1247.617188 -338.570312 L 2159.925781 1081.058594 L 537.132812 2123.929688 Z M -375.179688 704.300781 "/></clipPath><clipPath id="6ce16d966c"><path d="M 45 1039 L 115 1039 L 115 1094 L 45 1094 Z M 45 1039 "/></clipPath><clipPath id="4b198d32d2"><path d="M -375.179688 704.300781 L 1247.617188 -338.570312 L 2159.925781 1081.058594 L 537.132812 2123.929688 Z M -375.179688 704.300781 "/></clipPath><clipPath id="7387d92436"><path d="M -375.179688 704.300781 L 1247.617188 -338.570312 L 2159.925781 1081.058594 L 537.132812 2123.929688 Z M -375.179688 704.300781 "/></clipPath><clipPath id="084db269e3"><path d="M 1672 712 L 1778 712 L 1778 848 L 1672 848 Z M 1672 712 "/></clipPath><clipPath id="4aa1f3022d"><path d="M -375.179688 704.300781 L 1247.617188 -338.570312 L 2159.925781 1081.058594 L 537.132812 2123.929688 Z M -375.179688 704.300781 "/></clipPath><clipPath id="a7228935ad"><path d="M -375.179688 704.300781 L 1247.617188 -338.570312 L 2159.925781 1081.058594 L 537.132812 2123.929688 Z M -375.179688 704.300781 "/></clipPath><clipPath id="ed3583e2d7"><path d="M 8 937 L 113 937 L 113 1073 L 8 1073 Z M 8 937 "/></clipPath><clipPath id="b4e6195a61"><path d="M -375.179688 704.300781 L 1247.617188 -338.570312 L 2159.925781 1081.058594 L 537.132812 2123.929688 Z M -375.179688 704.300781 "/></clipPath><clipPath id="08ce363492"><path d="M -375.179688 704.300781 L 1247.617188 -338.570312 L 2159.925781 1081.058594 L 537.132812 2123.929688 Z M -375.179688 704.300781 "/></clipPath><clipPath id="c0110379f6"><path d="M 1606 500 L 1772 500 L 1772 629 L 1606 629 Z M 1606 500 "/></clipPath><clipPath id="14ab0b1bbc"><path d="M -375.179688 704.300781 L 1247.617188 -338.570312 L 2159.925781 1081.058594 L 537.132812 2123.929688 Z M -375.179688 704.300781 "/></clipPath><clipPath id="14a78b72c5"><path d="M -375.179688 704.300781 L 1247.617188 -338.570312 L 2159.925781 1081.058594 L 537.132812 2123.929688 Z M -375.179688 704.300781 "/></clipPath><clipPath id="03c947b528"><path d="M 14 1156 L 179 1156 L 179 1285 L 14 1285 Z M 14 1156 "/></clipPath><clipPath id="9f3f90391e"><path d="M -375.179688 704.300781 L 1247.617188 -338.570312 L 2159.925781 1081.058594 L 537.132812 2123.929688 Z M -375.179688 704.300781 "/></clipPath><clipPath id="2baca7a65f"><path d="M -375.179688 704.300781 L 1247.617188 -338.570312 L 2159.925781 1081.058594 L 537.132812 2123.929688 Z M -375.179688 704.300781 "/></clipPath><clipPath id="1e349b2019"><path d="M 1534 339 L 1725 339 L 1725 426 L 1534 426 Z M 1534 339 "/></clipPath><clipPath id="75703fd8c6"><path d="M -375.179688 704.300781 L 1247.617188 -338.570312 L 2159.925781 1081.058594 L 537.132812 2123.929688 Z M -375.179688 704.300781 "/></clipPath><clipPath id="101a3b5795"><path d="M -375.179688 704.300781 L 1247.617188 -338.570312 L 2159.925781 1081.058594 L 537.132812 2123.929688 Z M -375.179688 704.300781 "/></clipPath><clipPath id="b5a40646af"><path d="M 60 1358 L 252 1358 L 252 1445 L 60 1445 Z M 60 1358 "/></clipPath><clipPath id="44a46a19dc"><path d="M -375.179688 704.300781 L 1247.617188 -338.570312 L 2159.925781 1081.058594 L 537.132812 2123.929688 Z M -375.179688 704.300781 "/></clipPath><clipPath id="88ea6e661b"><path d="M -375.179688 704.300781 L 1247.617188 -338.570312 L 2159.925781 1081.058594 L 537.132812 2123.929688 Z M -375.179688 704.300781 "/></clipPath><clipPath id="4bc6371000"><path d="M 1541 368 L 1642 368 L 1642 386 L 1541 386 Z M 1541 368 "/></clipPath><clipPath id="7df0a3d6dc"><path d="M -375.179688 704.300781 L 1247.617188 -338.570312 L 2159.925781 1081.058594 L 537.132812 2123.929688 Z M -375.179688 704.300781 "/></clipPath><clipPath id="129d541a59"><path d="M -375.179688 704.300781 L 1247.617188 -338.570312 L 2159.925781 1081.058594 L 537.132812 2123.929688 Z M -375.179688 704.300781 "/></clipPath><clipPath id="49b233a372"><path d="M 144 1399 L 245 1399 L 245 1417 L 144 1417 Z M 144 1399 "/></clipPath><clipPath id="6f9e10cb5b"><path d="M -375.179688 704.300781 L 1247.617188 -338.570312 L 2159.925781 1081.058594 L 537.132812 2123.929688 Z M -375.179688 704.300781 "/></clipPath><clipPath id="5119291087"><path d="M -375.179688 704.300781 L 1247.617188 -338.570312 L 2159.925781 1081.058594 L 537.132812 2123.929688 Z M -375.179688 704.300781 "/></clipPath><clipPath id="6818a5af16"><path d="M 1434 375 L 1552 375 L 1552 558 L 1434 558 Z M 1434 375 "/></clipPath><clipPath id="c8e34666b7"><path d="M -375.179688 704.300781 L 1247.617188 -338.570312 L 2159.925781 1081.058594 L 537.132812 2123.929688 Z M -375.179688 704.300781 "/></clipPath><clipPath id="8a1ac628a7"><path d="M -375.179688 704.300781 L 1247.617188 -338.570312 L 2159.925781 1081.058594 L 537.132812 2123.929688 Z M -375.179688 704.300781 "/></clipPath><clipPath id="cca3ffd2c7"><path d="M 234 1227 L 352 1227 L 352 1410 L 234 1410 Z M 234 1227 "/></clipPath><clipPath id="becfea6db8"><path d="M -375.179688 704.300781 L 1247.617188 -338.570312 L 2159.925781 1081.058594 L 537.132812 2123.929688 Z M -375.179688 704.300781 "/></clipPath><clipPath id="33cc3d15d7"><path d="M -375.179688 704.300781 L 1247.617188 -338.570312 L 2159.925781 1081.058594 L 537.132812 2123.929688 Z M -375.179688 704.300781 "/></clipPath><clipPath id="a3539fec14"><path d="M 1484 382 L 1552 382 L 1552 485 L 1484 485 Z M 1484 382 "/></clipPath><clipPath id="898de1f94b"><path d="M -375.179688 704.300781 L 1247.617188 -338.570312 L 2159.925781 1081.058594 L 537.132812 2123.929688 Z M -375.179688 704.300781 "/></clipPath><clipPath id="53c5d4c4b4"><path d="M -375.179688 704.300781 L 1247.617188 -338.570312 L 2159.925781 1081.058594 L 537.132812 2123.929688 Z M -375.179688 704.300781 "/></clipPath><clipPath id="039b847094"><path d="M 234 1300 L 301 1300 L 301 1403 L 234 1403 Z M 234 1300 "/></clipPath><clipPath id="9741b6187b"><path d="M -375.179688 704.300781 L 1247.617188 -338.570312 L 2159.925781 1081.058594 L 537.132812 2123.929688 Z M -375.179688 704.300781 "/></clipPath><clipPath id="d5be4beebd"><path d="M -375.179688 704.300781 L 1247.617188 -338.570312 L 2159.925781 1081.058594 L 537.132812 2123.929688 Z M -375.179688 704.300781 "/></clipPath></defs><g id="f97f4f6074"><g clip-rule="nonzero" clip-path="url(#3d47228fe9)"><g clip-rule="nonzero" clip-path="url(#224040aeaa)"><g clip-rule="nonzero" clip-path="url(#7269026f93)"><path style=" stroke:none;fill-rule:nonzero;fill:#1e40af;fill-opacity:1;" d="M 432.21875 187.46875 C 240.371094 316.832031 119.320312 491.695312 69.105469 712.054688 C 62.8125 743.277344 58.136719 774.210938 55.0625 804.859375 L 55.078125 804.847656 C 63.476562 804.011719 72.28125 805.03125 81.503906 807.917969 C 84.292969 780.859375 88.320312 753.53125 93.578125 725.9375 C 142.859375 506.75 260.941406 333.667969 447.808594 206.714844 C 498.914062 174.09375 551.269531 147.414062 604.867188 126.683594 L 604.835938 126.707031 C 747.167969 73.867188 898.621094 62.734375 1059.21875 93.3125 C 1214.839844 128.304688 1347.21875 197.976562 1456.34375 302.328125 C 1458.050781 300.394531 1460.203125 298.222656 1462.8125 295.789062 C 1466.378906 292.546875 1469.65625 289.910156 1472.636719 287.894531 C 1473.160156 287.5 1473.808594 287.0625 1474.5625 286.574219 C 1475.089844 286.238281 1475.667969 285.875 1476.304688 285.488281 C 1365.207031 177 1230.8125 104.78125 1073.101562 68.839844 C 903.179688 34.628906 741.855469 47.945312 589.121094 108.796875 L 589.089844 108.820312 C 535.773438 129.273438 483.488281 155.496094 432.222656 187.46875 Z M 432.21875 187.46875 "/></g></g></g><g clip-rule="nonzero" clip-path="url(#0874c49a46)"><g clip-rule="nonzero" clip-path="url(#68a764852a)"><g clip-rule="nonzero" clip-path="url(#7017d56ec8)"><path style=" stroke:none;fill-rule:nonzero;fill:#1e40af;fill-opacity:1;" d="M 329.050781 1482.59375 C 327.347656 1484.511719 325.203125 1486.683594 322.609375 1489.105469 C 319.035156 1492.351562 315.765625 1494.984375 312.777344 1497.003906 C 312.253906 1497.398438 311.613281 1497.832031 310.851562 1498.324219 L 309.125 1499.433594 C 420.222656 1607.921875 554.625 1680.136719 712.335938 1716.078125 C 882.644531 1750.375 1044.320312 1736.910156 1197.367188 1675.707031 L 1197.34375 1675.722656 C 1250.308594 1655.324219 1302.261719 1629.234375 1353.207031 1597.457031 C 1545.074219 1468.09375 1666.109375 1293.230469 1716.332031 1072.863281 C 1722.621094 1041.652344 1727.304688 1010.726562 1730.375 980.09375 L 1730.410156 980.074219 C 1722.003906 980.925781 1713.1875 979.898438 1703.964844 977.011719 L 1703.933594 977.035156 C 1701.132812 1004.078125 1697.113281 1031.402344 1691.867188 1058.988281 C 1642.570312 1278.171875 1524.496094 1451.25 1337.632812 1578.210938 C 1286.875 1610.601562 1234.882812 1637.136719 1181.671875 1657.808594 L 1181.648438 1657.824219 C 1039.015625 1710.996094 887.199219 1722.257812 726.21875 1691.605469 C 570.597656 1656.613281 438.222656 1586.949219 329.089844 1482.605469 Z M 329.050781 1482.59375 "/></g></g></g><g clip-rule="nonzero" clip-path="url(#8c34a09ae3)"><g clip-rule="nonzero" clip-path="url(#082d22c44c)"><g clip-rule="nonzero" clip-path="url(#47eaafab7c)"><path style=" stroke:none;fill-rule:nonzero;fill:#1e40af;fill-opacity:1;" d="M 1704.28125 851.296875 C 1706.609375 849.621094 1707.402344 847.378906 1706.691406 844.578125 C 1697.03125 828.921875 1691.402344 815.6875 1689.816406 804.855469 L 1683.523438 765.585938 C 1680.890625 733.871094 1678.265625 709.476562 1675.640625 692.394531 C 1674.457031 683.0625 1672.996094 675.0625 1671.242188 668.394531 C 1655.65625 610.082031 1642.558594 566.449219 1631.9375 537.511719 C 1616.769531 498.785156 1593.972656 454.363281 1563.542969 404.25 C 1537.710938 364.675781 1521.777344 347.070312 1515.753906 351.421875 C 1513.179688 353.28125 1512.53125 355.84375 1513.832031 359.097656 C 1521.242188 365.578125 1531.09375 377.613281 1543.394531 395.183594 L 1554.46875 411.84375 L 1581.234375 458.21875 C 1595.839844 484.585938 1609.109375 512.453125 1621.042969 541.796875 C 1632.972656 574.660156 1646.496094 620.367188 1661.625 678.929688 C 1662.503906 682.183594 1664.496094 696.429688 1667.589844 721.679688 C 1669.703125 746.863281 1671.21875 762.617188 1672.152344 768.9375 L 1678.148438 806.097656 C 1678.722656 809.382812 1679.371094 812.40625 1680.113281 815.183594 C 1681.65625 820.722656 1684.164062 827.246094 1687.640625 834.765625 L 1696.386719 849.816406 C 1698.789062 852.410156 1701.398438 852.921875 1704.203125 851.347656 "/></g></g></g><g clip-rule="nonzero" clip-path="url(#2552984df2)"><g clip-rule="nonzero" clip-path="url(#b465e050e8)"><g clip-rule="nonzero" clip-path="url(#9160f34e2c)"><path style=" stroke:none;fill-rule:nonzero;fill:#1e40af;fill-opacity:1;" d="M 81.132812 933.589844 C 78.8125 935.273438 78.007812 937.511719 78.730469 940.3125 C 88.382812 955.960938 94.007812 969.203125 95.601562 980.03125 L 101.898438 1019.308594 C 104.523438 1051.011719 107.15625 1075.414062 109.78125 1092.5 C 110.964844 1101.832031 112.425781 1109.832031 114.179688 1116.5 C 129.757812 1174.816406 142.863281 1218.445312 153.484375 1247.382812 C 168.648438 1286.097656 191.441406 1330.519531 221.871094 1380.652344 C 247.710938 1420.21875 263.644531 1437.824219 269.65625 1433.46875 C 272.242188 1431.609375 272.886719 1429.042969 271.589844 1425.796875 C 264.175781 1419.308594 254.320312 1407.285156 242.015625 1389.707031 L 230.945312 1373.054688 L 204.175781 1326.671875 C 189.578125 1300.300781 176.304688 1272.445312 164.375 1243.089844 C 152.449219 1210.230469 138.917969 1164.519531 123.796875 1105.964844 C 122.910156 1102.714844 120.925781 1088.464844 117.820312 1063.210938 C 115.71875 1038.03125 114.203125 1022.277344 113.261719 1015.949219 L 107.261719 978.792969 C 106.699219 975.511719 106.046875 972.480469 105.296875 969.707031 C 103.765625 964.171875 101.253906 957.636719 97.773438 950.121094 L 89.035156 935.078125 C 86.621094 932.480469 84.023438 931.972656 81.214844 933.535156 "/></g></g></g><g clip-rule="nonzero" clip-path="url(#e407b64203)"><g clip-rule="nonzero" clip-path="url(#b26db188d3)"><g clip-rule="nonzero" clip-path="url(#6bed3fec75)"><path style=" stroke:none;fill-rule:nonzero;fill:#1e40af;fill-opacity:1;" d="M 1707.453125 535.550781 L 1695.203125 532.964844 L 1672.179688 529.320312 L 1665.382812 527.855469 C 1659.105469 526.378906 1653.066406 524.171875 1647.261719 521.234375 C 1641.671875 518.457031 1635.15625 513.511719 1627.722656 506.417969 C 1617.484375 496.300781 1611.214844 489.214844 1608.910156 485.167969 C 1626.078125 480.304688 1645.082031 482.839844 1665.929688 492.78125 C 1686.625 503.890625 1700.445312 518.101562 1707.390625 535.398438 M 1722.21875 548.71875 C 1723.089844 546.933594 1723.308594 545.1875 1722.859375 543.492188 C 1721.304688 538.648438 1719.746094 534.460938 1718.203125 530.933594 C 1716.363281 525.519531 1712.378906 518.75 1706.261719 510.640625 C 1696.773438 498.871094 1685.550781 489.683594 1672.601562 483.0625 C 1656.582031 475.289062 1642.011719 471.253906 1628.902344 470.984375 C 1625.199219 470.839844 1620.769531 471.042969 1615.613281 471.582031 C 1615.054688 471.527344 1611.929688 472.25 1606.257812 473.765625 C 1600.136719 474.960938 1596.015625 477.011719 1593.867188 479.929688 C 1592.980469 482.023438 1593.074219 483.933594 1594.160156 485.644531 C 1594.804688 486.628906 1595.667969 487.402344 1596.726562 487.945312 C 1600.714844 494.207031 1604.476562 499.183594 1608.007812 502.882812 C 1620.855469 516.808594 1631.261719 525.9375 1639.25 530.257812 C 1645.324219 533.664062 1652.320312 536.457031 1660.230469 538.617188 L 1668.976562 540.636719 C 1684.289062 542.761719 1696.640625 544.953125 1706.035156 547.214844 C 1707.394531 547.460938 1709.03125 547.921875 1710.945312 548.597656 C 1713.582031 550.382812 1715.234375 551.257812 1715.882812 551.234375 C 1719.03125 551.855469 1721.144531 551.023438 1722.222656 548.726562 "/></g></g></g><g clip-rule="nonzero" clip-path="url(#198df76cdb)"><g clip-rule="nonzero" clip-path="url(#7bda5837cb)"><g clip-rule="nonzero" clip-path="url(#8e95a684d4)"><path style=" stroke:none;fill-rule:nonzero;fill:#1e40af;fill-opacity:1;" d="M 77.96875 1249.34375 L 90.214844 1251.921875 L 113.242188 1255.570312 L 120.035156 1257.027344 C 126.304688 1258.511719 132.355469 1260.71875 138.160156 1263.65625 C 143.75 1266.4375 150.257812 1271.375 157.691406 1278.484375 C 167.9375 1288.59375 174.207031 1295.679688 176.511719 1299.722656 C 159.34375 1304.589844 140.335938 1302.046875 119.492188 1292.113281 C 98.796875 1281.003906 84.96875 1266.796875 78.03125 1249.496094 M 63.191406 1236.171875 C 62.324219 1237.964844 62.113281 1239.707031 62.546875 1241.398438 C 64.117188 1246.246094 65.667969 1250.441406 67.210938 1253.964844 C 69.058594 1259.375 73.042969 1266.144531 79.152344 1274.261719 C 88.644531 1286.015625 99.871094 1295.210938 112.820312 1301.828125 C 128.832031 1309.609375 143.402344 1313.632812 156.519531 1313.910156 C 160.222656 1314.054688 164.644531 1313.855469 169.808594 1313.3125 C 170.367188 1313.367188 173.484375 1312.632812 179.164062 1311.128906 C 185.269531 1309.929688 189.40625 1307.878906 191.554688 1304.964844 C 192.441406 1302.871094 192.339844 1300.964844 191.261719 1299.25 C 190.605469 1298.261719 189.753906 1297.492188 188.695312 1296.945312 C 184.707031 1290.6875 180.9375 1285.714844 177.402344 1282.019531 C 164.566406 1268.082031 154.148438 1258.953125 146.167969 1254.628906 C 140.089844 1251.234375 133.09375 1248.441406 125.191406 1246.277344 L 116.445312 1244.253906 C 101.125 1242.136719 88.773438 1239.945312 79.386719 1237.679688 C 78.019531 1237.425781 76.382812 1236.964844 74.46875 1236.304688 C 71.832031 1234.515625 70.1875 1233.632812 69.539062 1233.660156 C 66.390625 1233.039062 64.277344 1233.871094 63.199219 1236.167969 "/></g></g></g><g clip-rule="nonzero" clip-path="url(#1067241951)"><g clip-rule="nonzero" clip-path="url(#c12e0be37b)"><g clip-rule="nonzero" clip-path="url(#5e05f933db)"><path style=" stroke:none;fill-rule:nonzero;fill:#1e40af;fill-opacity:1;" d="M 1671.199219 515.636719 C 1672.335938 512.949219 1671.875 510.609375 1669.820312 508.605469 C 1664.574219 504.632812 1658.09375 500.878906 1650.386719 497.351562 L 1625.71875 486.355469 C 1619.023438 483.679688 1613.785156 481.820312 1610 480.78125 C 1609.042969 480.488281 1607.71875 480.160156 1606.035156 479.800781 C 1605.316406 479.699219 1604.628906 479.71875 1603.972656 479.851562 C 1602.152344 480.289062 1600.816406 481.296875 1599.960938 482.886719 C 1598.609375 486.382812 1599.515625 489.042969 1602.6875 490.890625 C 1607.828125 492.167969 1613.726562 494.140625 1620.371094 496.816406 C 1635.488281 503.625 1643.691406 507.28125 1644.992188 507.753906 C 1646.523438 508.40625 1649.757812 510.039062 1654.691406 512.667969 C 1657.324219 514.160156 1660.042969 515.929688 1662.851562 517.964844 C 1663.214844 518.191406 1663.574219 518.375 1663.929688 518.5 C 1667.097656 519.382812 1669.515625 518.4375 1671.175781 515.6875 "/></g></g></g><g clip-rule="nonzero" clip-path="url(#8bcabcf74a)"><g clip-rule="nonzero" clip-path="url(#4937287d64)"><g clip-rule="nonzero" clip-path="url(#410cc5f254)"><path style=" stroke:none;fill-rule:nonzero;fill:#1e40af;fill-opacity:1;" d="M 114.214844 1269.261719 C 113.082031 1271.9375 113.546875 1274.285156 115.597656 1276.28125 C 120.839844 1280.265625 127.320312 1284.019531 135.035156 1287.542969 L 159.695312 1298.542969 C 166.394531 1301.207031 171.632812 1303.066406 175.414062 1304.117188 C 176.371094 1304.410156 177.695312 1304.726562 179.386719 1305.09375 C 180.105469 1305.195312 180.792969 1305.175781 181.445312 1305.03125 C 183.269531 1304.605469 184.597656 1303.589844 185.445312 1302.003906 C 186.804688 1298.515625 185.898438 1295.84375 182.722656 1294 C 177.59375 1292.726562 171.695312 1290.75 165.035156 1288.074219 C 149.929688 1281.257812 141.730469 1277.613281 140.429688 1277.140625 C 138.890625 1276.492188 135.65625 1274.847656 130.730469 1272.226562 C 128.097656 1270.734375 125.378906 1268.960938 122.5625 1266.921875 C 122.207031 1266.703125 121.847656 1266.519531 121.488281 1266.386719 C 118.316406 1265.515625 115.898438 1266.445312 114.242188 1269.199219 "/></g></g></g><g clip-rule="nonzero" clip-path="url(#c189febec9)"><g clip-rule="nonzero" clip-path="url(#4bee6db77d)"><g clip-rule="nonzero" clip-path="url(#78a7d9623f)"><path style=" stroke:none;fill-rule:nonzero;fill:#1e40af;fill-opacity:1;" d="M 1559.957031 599.789062 C 1560.113281 599.355469 1560.453125 593.535156 1560.996094 582.324219 L 1560.941406 560.769531 L 1561.722656 548.027344 C 1562.691406 535.980469 1564.179688 526.097656 1566.1875 518.402344 C 1569.011719 505.769531 1575.960938 494.738281 1587.03125 485.285156 C 1587.800781 484.664062 1589.386719 483.691406 1591.777344 482.347656 C 1591.453125 483.519531 1591.464844 484.644531 1591.800781 485.738281 C 1595.050781 491.773438 1597.496094 498.292969 1599.140625 505.289062 C 1601.679688 519.472656 1601.355469 532.5625 1598.171875 544.566406 C 1592.089844 566.695312 1579.402344 585.058594 1560.121094 599.671875 M 1549.765625 619.113281 C 1550.71875 619.167969 1551.902344 618.796875 1553.308594 618.007812 C 1557.578125 615.699219 1562.605469 612.398438 1568.394531 608.105469 C 1575.183594 602.78125 1581.105469 597.269531 1586.152344 591.550781 C 1597.8125 577.351562 1605.355469 563.566406 1608.789062 550.1875 C 1613.125 534.613281 1613.714844 518.765625 1610.550781 502.644531 C 1608.949219 495.800781 1606.617188 489.246094 1603.558594 482.972656 C 1602.421875 480.207031 1600.621094 478.601562 1598.152344 478.160156 C 1599.039062 475.90625 1598.796875 473.886719 1597.433594 472.105469 C 1596.355469 470.734375 1594.867188 469.984375 1592.972656 469.871094 C 1590.386719 469.769531 1586.683594 471.355469 1581.859375 474.640625 C 1578.496094 476.699219 1575.175781 479.75 1571.894531 483.773438 C 1564.125 491.9375 1558.679688 501.636719 1555.554688 512.859375 C 1552.957031 522.207031 1551.152344 533.289062 1550.136719 546.101562 L 1549.28125 559.035156 C 1549.671875 574.621094 1549.351562 587.800781 1548.320312 598.535156 C 1547.949219 601.339844 1547.542969 603.421875 1547.121094 604.796875 C 1546.882812 605.921875 1546.050781 607.878906 1544.632812 610.644531 C 1544.375 611.417969 1544.25 612.0625 1544.242188 612.570312 C 1544.613281 616.285156 1546.414062 618.460938 1549.636719 619.105469 "/></g></g></g><g clip-rule="nonzero" clip-path="url(#9d240e938c)"><g clip-rule="nonzero" clip-path="url(#53df751be7)"><g clip-rule="nonzero" clip-path="url(#1d4137f5b3)"><path style=" stroke:none;fill-rule:nonzero;fill:#1e40af;fill-opacity:1;" d="M 225.464844 1185.105469 C 225.308594 1185.539062 224.960938 1191.363281 224.421875 1202.5625 L 224.480469 1224.125 L 223.691406 1236.859375 C 222.722656 1248.917969 221.230469 1258.792969 219.234375 1266.492188 C 216.402344 1279.117188 209.460938 1290.15625 198.390625 1299.609375 C 197.617188 1300.21875 196.027344 1301.207031 193.636719 1302.550781 C 193.960938 1301.378906 193.953125 1300.246094 193.613281 1299.160156 C 190.363281 1293.125 187.917969 1286.59375 186.28125 1279.601562 C 183.742188 1265.417969 184.066406 1252.332031 187.242188 1240.320312 C 193.332031 1218.199219 206.019531 1199.835938 225.300781 1185.222656 M 235.644531 1165.785156 C 234.691406 1165.722656 233.515625 1166.089844 232.113281 1166.886719 C 227.839844 1169.183594 222.816406 1172.496094 217.019531 1176.792969 C 210.238281 1182.113281 204.316406 1187.625 199.261719 1193.347656 C 187.605469 1207.542969 180.066406 1221.324219 176.632812 1234.707031 C 172.289062 1250.273438 171.703125 1266.121094 174.871094 1282.246094 C 176.472656 1289.089844 178.796875 1295.652344 181.855469 1301.925781 C 182.992188 1304.691406 184.796875 1306.292969 187.261719 1306.738281 C 186.382812 1308.988281 186.625 1311.007812 187.980469 1312.796875 C 189.066406 1314.160156 190.554688 1314.910156 192.449219 1315.023438 C 195.035156 1315.125 198.738281 1313.539062 203.550781 1310.261719 C 206.917969 1308.1875 210.246094 1305.144531 213.523438 1301.113281 C 221.296875 1292.953125 226.742188 1283.257812 229.867188 1272.035156 C 232.457031 1262.691406 234.261719 1251.609375 235.277344 1238.800781 L 236.128906 1225.863281 C 235.742188 1210.265625 236.0625 1197.097656 237.089844 1186.363281 C 237.464844 1183.558594 237.878906 1181.46875 238.300781 1180.097656 C 238.539062 1178.972656 239.359375 1177.023438 240.78125 1174.253906 C 241.039062 1173.480469 241.171875 1172.832031 241.179688 1172.324219 C 240.800781 1168.613281 239.007812 1166.433594 235.785156 1165.785156 "/></g></g></g><g clip-rule="nonzero" clip-path="url(#7cb2a1c12d)"><g clip-rule="nonzero" clip-path="url(#a08d9c2078)"><g clip-rule="nonzero" clip-path="url(#32e5b43137)"><path style=" stroke:none;fill-rule:nonzero;fill:#1e40af;fill-opacity:1;" d="M 1576.019531 555.273438 C 1578.710938 555.167969 1580.582031 553.886719 1581.597656 551.421875 C 1582.246094 548.828125 1582.816406 546.058594 1583.300781 543.085938 L 1585.871094 523.351562 C 1586.492188 519.46875 1587.417969 515.507812 1588.660156 511.464844 C 1590.113281 506.359375 1592.089844 501.34375 1594.5625 496.398438 C 1594.800781 495.648438 1596.644531 492.59375 1600.09375 487.226562 L 1602.171875 484.4375 C 1602.425781 484.03125 1602.640625 483.539062 1602.8125 482.9375 C 1603.265625 481.144531 1602.949219 479.476562 1601.882812 477.941406 C 1600.722656 476.441406 1599.207031 475.648438 1597.316406 475.558594 C 1595.605469 475.535156 1594.132812 476.148438 1592.894531 477.414062 C 1592.152344 477.832031 1589.730469 481.464844 1585.625 488.308594 C 1581.679688 495.484375 1578.632812 503.207031 1576.480469 511.453125 C 1575.777344 513.820312 1574.996094 517.507812 1574.140625 522.503906 L 1571.792969 540.925781 L 1570.246094 549.378906 C 1570.582031 552.96875 1572.5 554.933594 1576 555.285156 "/></g></g></g><g clip-rule="nonzero" clip-path="url(#77faae8fa9)"><g clip-rule="nonzero" clip-path="url(#34660d3702)"><g clip-rule="nonzero" clip-path="url(#d6543350e6)"><path style=" stroke:none;fill-rule:nonzero;fill:#1e40af;fill-opacity:1;" d="M 209.398438 1229.613281 C 206.703125 1229.714844 204.839844 1231.003906 203.8125 1233.476562 C 203.175781 1236.0625 202.605469 1238.835938 202.121094 1241.804688 L 199.542969 1261.546875 C 198.929688 1265.421875 198 1269.378906 196.761719 1273.429688 C 195.296875 1278.53125 193.332031 1283.550781 190.859375 1288.496094 C 190.621094 1289.246094 188.769531 1292.304688 185.320312 1297.671875 L 183.242188 1300.464844 C 182.996094 1300.863281 182.773438 1301.359375 182.605469 1301.949219 C 182.15625 1303.75 182.464844 1305.421875 183.539062 1306.953125 C 184.683594 1308.449219 186.214844 1309.242188 188.105469 1309.335938 C 189.808594 1309.363281 191.289062 1308.742188 192.527344 1307.476562 C 193.261719 1307.066406 195.683594 1303.433594 199.796875 1296.585938 C 203.742188 1289.40625 206.789062 1281.6875 208.929688 1273.445312 C 209.632812 1271.078125 210.414062 1267.390625 211.28125 1262.390625 L 213.628906 1243.96875 L 215.175781 1235.515625 C 214.832031 1231.929688 212.914062 1229.964844 209.410156 1229.613281 "/></g></g></g><g clip-rule="nonzero" clip-path="url(#25941d42ee)"><g clip-rule="nonzero" clip-path="url(#ed7236d300)"><g clip-rule="nonzero" clip-path="url(#5e1ab84c6d)"><path style=" stroke:none;fill-rule:nonzero;fill:#1e40af;fill-opacity:1;" d="M 1604.027344 674.394531 C 1621.925781 662.160156 1631.292969 641.105469 1632.132812 611.230469 C 1632.585938 600.429688 1631.621094 585.914062 1629.265625 567.660156 C 1628.835938 564.300781 1628.175781 560.0625 1627.277344 554.957031 L 1617.957031 503.261719 C 1617.054688 498.5 1616.011719 495.882812 1614.828125 495.394531 C 1612.804688 493.761719 1610.527344 493.585938 1608.007812 494.871094 C 1606.035156 496.082031 1605.113281 497.980469 1605.242188 500.570312 C 1606.074219 503.632812 1606.59375 505.832031 1606.796875 507.167969 L 1616.425781 560.910156 C 1617.617188 568.0625 1618.703125 576.957031 1619.660156 587.59375 C 1620.898438 603.910156 1620.722656 617.0625 1619.128906 627.046875 C 1615.972656 642.804688 1610.308594 654.175781 1602.132812 661.171875 C 1600.085938 663.269531 1597.269531 665.035156 1593.652344 666.484375 C 1591.839844 667 1591.058594 666.605469 1591.320312 665.28125 C 1591.382812 660.277344 1592.886719 655.703125 1595.832031 651.527344 C 1596.675781 650.117188 1597.679688 648.933594 1598.828125 648.011719 C 1600.597656 648.214844 1602.15625 647.785156 1603.496094 646.730469 C 1604.550781 645.890625 1605.230469 644.757812 1605.546875 643.324219 C 1605.863281 638.46875 1603.207031 636.097656 1597.574219 636.210938 C 1593.917969 636.371094 1590.128906 639.265625 1586.203125 644.871094 C 1582.242188 650.625 1580.007812 656.917969 1579.5 663.757812 C 1579.527344 670.488281 1582.117188 675.070312 1587.277344 677.503906 C 1593.003906 679.210938 1598.570312 678.1875 1603.964844 674.4375 "/></g></g></g><g clip-rule="nonzero" clip-path="url(#66399a7b08)"><g clip-rule="nonzero" clip-path="url(#075edac2ba)"><g clip-rule="nonzero" clip-path="url(#64ed200f24)"><path style=" stroke:none;fill-rule:nonzero;fill:#1e40af;fill-opacity:1;" d="M 181.394531 1110.5 C 163.492188 1122.726562 154.117188 1143.785156 153.28125 1173.667969 C 152.835938 1184.464844 153.792969 1198.984375 156.15625 1217.234375 C 156.585938 1220.589844 157.242188 1224.820312 158.140625 1229.929688 L 167.453125 1281.640625 C 168.359375 1286.398438 169.402344 1289.015625 170.578125 1289.496094 C 172.617188 1291.132812 174.894531 1291.308594 177.414062 1290.019531 C 179.382812 1288.804688 180.304688 1286.902344 180.167969 1284.320312 C 179.347656 1281.261719 178.828125 1279.0625 178.625 1277.726562 L 168.996094 1223.980469 C 167.796875 1216.835938 166.71875 1207.9375 165.753906 1197.304688 C 164.515625 1180.992188 164.691406 1167.835938 166.292969 1157.847656 C 169.441406 1142.097656 175.113281 1130.71875 183.289062 1123.71875 C 185.328125 1121.632812 188.152344 1119.859375 191.769531 1118.40625 C 193.582031 1117.894531 194.355469 1118.292969 194.097656 1119.605469 C 194.039062 1124.613281 192.535156 1129.191406 189.585938 1133.355469 C 188.738281 1134.785156 187.742188 1135.960938 186.585938 1136.890625 C 184.816406 1136.683594 183.265625 1137.109375 181.925781 1138.164062 C 180.871094 1139 180.191406 1140.136719 179.875 1141.566406 C 179.546875 1146.429688 182.203125 1148.792969 187.835938 1148.679688 C 191.5 1148.511719 195.292969 1145.628906 199.21875 1140.023438 C 203.167969 1134.273438 205.402344 1127.980469 205.921875 1121.136719 C 205.894531 1114.40625 203.296875 1109.832031 198.136719 1107.382812 C 192.417969 1105.683594 186.851562 1106.707031 181.457031 1110.457031 "/></g></g></g><g clip-rule="nonzero" clip-path="url(#3a2edf9351)"><g clip-rule="nonzero" clip-path="url(#f678bfe8c3)"><g clip-rule="nonzero" clip-path="url(#8f0cdcd132)"><path style=" stroke:none;fill-rule:nonzero;fill:#1e40af;fill-opacity:1;" d="M 1769.914062 781.480469 L 1739.121094 765.960938 C 1734.34375 763.464844 1731.078125 761.632812 1729.320312 760.480469 C 1721.8125 755.839844 1714.019531 749.652344 1705.929688 741.914062 C 1699.492188 735.519531 1693.632812 727.734375 1688.367188 718.5625 C 1685.871094 713.804688 1684.046875 709.488281 1682.90625 705.605469 C 1682.488281 704.207031 1682.253906 703.144531 1682.175781 702.417969 C 1682.882812 699.96875 1683.109375 698.433594 1682.871094 697.796875 C 1682.660156 696.539062 1682.148438 695.476562 1681.320312 694.613281 C 1686.589844 692.898438 1696.671875 695.105469 1711.570312 701.207031 C 1723.40625 706.894531 1732.6875 713.292969 1739.40625 720.414062 C 1747.507812 727.925781 1755.132812 738.484375 1762.261719 752.078125 C 1767.027344 762.238281 1769.570312 772.007812 1769.902344 781.386719 M 1779.910156 796.566406 C 1781.960938 795.945312 1782.429688 789.628906 1781.3125 777.605469 C 1780.792969 769.835938 1778.855469 761.707031 1775.5 753.207031 C 1768.234375 736.585938 1758.722656 722.65625 1746.945312 711.429688 C 1734.53125 699.261719 1719.324219 690.472656 1701.335938 685.070312 C 1694.617188 682.976562 1688.335938 682.175781 1682.507812 682.664062 C 1675.972656 682.886719 1670.878906 684.570312 1667.199219 687.726562 C 1665.402344 689.671875 1664.816406 691.753906 1665.449219 693.972656 C 1666.277344 696.488281 1668.140625 697.914062 1671.054688 698.242188 C 1669.316406 702.132812 1671.15625 709.773438 1676.570312 721.15625 C 1683.160156 733.390625 1690.367188 743.253906 1698.207031 750.726562 C 1708.207031 760.21875 1717.800781 767.554688 1726.996094 772.714844 L 1735.117188 777.0625 L 1762.242188 790.617188 L 1767.210938 793.460938 C 1770.859375 796.25 1772.742188 797.574219 1772.878906 797.429688 C 1776.007812 798.535156 1778.332031 798.265625 1779.84375 796.640625 "/></g></g></g><g clip-rule="nonzero" clip-path="url(#b9df87edaf)"><g clip-rule="nonzero" clip-path="url(#20ac0626ed)"><g clip-rule="nonzero" clip-path="url(#58e2cd05f1)"><path style=" stroke:none;fill-rule:nonzero;fill:#1e40af;fill-opacity:1;" d="M 15.5 1003.40625 L 46.285156 1018.929688 C 51.070312 1021.433594 54.34375 1023.261719 56.09375 1024.417969 C 63.601562 1029.058594 71.402344 1035.242188 79.476562 1042.976562 C 85.921875 1049.367188 91.777344 1057.15625 97.054688 1066.332031 C 99.550781 1071.089844 101.367188 1075.410156 102.503906 1079.285156 C 102.917969 1080.683594 103.167969 1081.746094 103.238281 1082.480469 C 102.535156 1084.917969 102.304688 1086.464844 102.550781 1087.097656 C 102.75 1088.355469 103.273438 1089.414062 104.09375 1090.285156 C 98.828125 1091.984375 88.742188 1089.792969 73.847656 1083.675781 C 62.003906 1077.996094 52.730469 1071.589844 46.015625 1064.480469 C 37.90625 1056.960938 30.289062 1046.410156 23.152344 1032.820312 C 18.394531 1022.65625 15.839844 1012.882812 15.507812 1003.503906 M 5.5 988.324219 C 3.445312 988.945312 2.984375 995.269531 4.101562 1007.28125 C 4.617188 1015.054688 6.558594 1023.191406 9.910156 1031.691406 C 17.179688 1048.3125 26.699219 1062.238281 38.464844 1073.46875 C 50.890625 1085.628906 66.089844 1094.414062 84.074219 1099.828125 C 90.796875 1101.925781 97.078125 1102.726562 102.902344 1102.234375 C 109.441406 1102.011719 114.542969 1100.324219 118.210938 1097.164062 C 120.015625 1095.214844 120.59375 1093.136719 119.96875 1090.914062 C 119.132812 1088.402344 117.265625 1086.976562 114.359375 1086.644531 C 116.097656 1082.753906 114.265625 1075.121094 108.851562 1063.738281 C 102.257812 1051.496094 95.046875 1041.648438 87.207031 1034.160156 C 77.210938 1024.664062 67.621094 1017.339844 58.425781 1012.179688 L 50.304688 1007.832031 L 23.175781 994.269531 L 18.203125 991.4375 C 14.5625 988.644531 12.667969 987.316406 12.53125 987.460938 C 9.40625 986.363281 7.085938 986.617188 5.578125 988.25 "/></g></g></g><g clip-rule="nonzero" clip-path="url(#9a5d381077)"><g clip-rule="nonzero" clip-path="url(#954d1d9bc8)"><g clip-rule="nonzero" clip-path="url(#53e63d9a1d)"><path style=" stroke:none;fill-rule:nonzero;fill:#1e40af;fill-opacity:1;" d="M 1738.664062 743.832031 C 1740.332031 741.863281 1740.621094 739.640625 1739.519531 737.175781 C 1739.160156 736.511719 1738.730469 735.964844 1738.21875 735.523438 C 1734.144531 732.125 1731.933594 730.328125 1731.613281 730.132812 C 1729.238281 728.34375 1726.960938 726.691406 1724.785156 725.179688 L 1711.980469 716.859375 L 1707.324219 713.539062 C 1704.484375 711.398438 1701.636719 709.148438 1698.792969 706.773438 L 1687.550781 696.890625 C 1685.625 695.269531 1683.960938 694.039062 1682.542969 693.199219 C 1678.484375 690.542969 1675.179688 690.515625 1672.617188 693.109375 C 1670.59375 695.789062 1670.605469 698.429688 1672.683594 701.023438 C 1672.992188 701.363281 1673.375 701.6875 1673.839844 701.984375 C 1674.015625 702.148438 1674.785156 702.492188 1676.152344 703.011719 C 1677.199219 703.644531 1678.050781 704.242188 1678.734375 704.800781 C 1680.335938 706.097656 1681.488281 707.054688 1682.195312 707.675781 L 1691.027344 715.53125 C 1693.625 717.703125 1696.019531 719.625 1698.210938 721.308594 C 1700.796875 723.300781 1702.945312 724.878906 1704.667969 726.042969 L 1719.195312 735.542969 C 1722.679688 738.058594 1724.503906 739.398438 1724.652344 739.542969 L 1730.636719 744.429688 C 1730.902344 744.648438 1731.175781 744.839844 1731.460938 745 C 1734.148438 746.273438 1736.539062 745.894531 1738.636719 743.859375 "/></g></g></g><g clip-rule="nonzero" clip-path="url(#6ce16d966c)"><g clip-rule="nonzero" clip-path="url(#4b198d32d2)"><g clip-rule="nonzero" clip-path="url(#7387d92436)"><path style=" stroke:none;fill-rule:nonzero;fill:#1e40af;fill-opacity:1;" d="M 46.75 1041.066406 C 45.082031 1043.035156 44.792969 1045.246094 45.902344 1047.71875 C 46.253906 1048.375 46.691406 1048.929688 47.195312 1049.375 C 51.277344 1052.769531 53.480469 1054.570312 53.800781 1054.765625 C 56.183594 1056.546875 58.457031 1058.195312 60.628906 1059.71875 L 73.429688 1068.03125 L 78.082031 1071.351562 C 80.933594 1073.484375 83.785156 1075.746094 86.628906 1078.121094 L 97.863281 1088.007812 C 99.785156 1089.628906 101.453125 1090.847656 102.871094 1091.699219 C 106.925781 1094.355469 110.234375 1094.382812 112.789062 1091.78125 C 114.828125 1089.105469 114.808594 1086.472656 112.738281 1083.871094 C 112.421875 1083.523438 112.039062 1083.210938 111.582031 1082.90625 C 111.402344 1082.738281 110.632812 1082.394531 109.261719 1081.886719 C 108.222656 1081.25 107.355469 1080.648438 106.683594 1080.085938 C 105.078125 1078.800781 103.925781 1077.84375 103.21875 1077.222656 L 94.394531 1069.359375 C 91.796875 1067.191406 89.398438 1065.261719 87.210938 1063.585938 C 84.621094 1061.589844 82.476562 1060.015625 80.75 1058.84375 L 66.226562 1049.351562 C 62.734375 1046.839844 60.910156 1045.5 60.753906 1045.347656 L 54.785156 1040.464844 C 54.519531 1040.246094 54.238281 1040.058594 53.949219 1039.890625 C 51.261719 1038.617188 48.867188 1038.996094 46.785156 1041.03125 "/></g></g></g><g clip-rule="nonzero" clip-path="url(#084db269e3)"><g clip-rule="nonzero" clip-path="url(#4aa1f3022d)"><g clip-rule="nonzero" clip-path="url(#a7228935ad)"><path style=" stroke:none;fill-rule:nonzero;fill:#1e40af;fill-opacity:1;" d="M 1774.523438 840.914062 C 1777.445312 837.753906 1778.117188 833.757812 1776.546875 828.941406 C 1774.871094 824.796875 1771.523438 821.300781 1766.503906 818.449219 C 1758.371094 814.816406 1751.898438 815.460938 1747.09375 820.359375 C 1745.582031 823.53125 1746.171875 826.164062 1748.863281 828.261719 C 1749.921875 828.933594 1751.015625 829.261719 1752.152344 829.242188 C 1753.078125 829.3125 1754.476562 828.871094 1756.351562 827.898438 C 1756.757812 827.726562 1757.65625 827.824219 1759.050781 828.179688 C 1761.335938 828.578125 1763.441406 830.03125 1765.378906 832.570312 C 1765.628906 832.992188 1765.664062 833.28125 1765.484375 833.429688 C 1764.75 833.980469 1763.851562 834.46875 1762.785156 834.878906 C 1760.335938 835.832031 1757.953125 836.277344 1755.648438 836.222656 C 1745.371094 835.5625 1735.3125 828.984375 1725.484375 816.472656 C 1718.699219 808.113281 1711.574219 794.828125 1704.136719 776.621094 C 1701.722656 770.585938 1699.3125 764.019531 1696.914062 756.898438 C 1694.46875 749.257812 1692.074219 740.953125 1689.734375 731.992188 C 1688.058594 727.054688 1686.824219 723.171875 1686.03125 720.347656 L 1684.101562 715.789062 C 1683.269531 714.054688 1681.800781 712.980469 1679.703125 712.554688 C 1677.742188 712.28125 1676.023438 712.890625 1674.539062 714.371094 C 1673.15625 715.984375 1672.691406 717.792969 1673.164062 719.78125 C 1673.421875 720.679688 1674.015625 722.101562 1674.9375 724.050781 C 1675.609375 726.507812 1676.832031 730.371094 1678.601562 735.640625 C 1680.761719 743.925781 1683.078125 751.984375 1685.558594 759.820312 C 1687.277344 765.027344 1689.277344 770.617188 1691.546875 776.597656 C 1700.058594 798.21875 1708.308594 813.929688 1716.296875 823.71875 C 1725.375 835.472656 1735.3125 842.984375 1746.121094 846.25 C 1756.933594 849.59375 1766.394531 847.824219 1774.488281 840.945312 "/></g></g></g><g clip-rule="nonzero" clip-path="url(#ed3583e2d7)"><g clip-rule="nonzero" clip-path="url(#b4e6195a61)"><g clip-rule="nonzero" clip-path="url(#08ce363492)"><path style=" stroke:none;fill-rule:nonzero;fill:#1e40af;fill-opacity:1;" d="M 10.886719 943.976562 C 7.96875 947.144531 7.300781 951.128906 8.871094 955.949219 C 10.542969 960.101562 13.890625 963.601562 18.910156 966.449219 C 27.042969 970.066406 33.511719 969.429688 38.324219 964.527344 C 39.832031 961.367188 39.25 958.730469 36.554688 956.621094 C 35.492188 955.953125 34.390625 955.628906 33.257812 955.648438 C 32.339844 955.574219 30.945312 956.023438 29.066406 956.988281 C 28.660156 957.15625 27.761719 957.058594 26.363281 956.707031 C 24.078125 956.320312 21.96875 954.859375 20.027344 952.320312 C 19.785156 951.90625 19.757812 951.613281 19.9375 951.464844 C 20.671875 950.914062 21.5625 950.429688 22.625 950.011719 C 25.085938 949.0625 27.457031 948.613281 29.765625 948.679688 C 40.046875 949.324219 50.097656 955.90625 59.929688 968.425781 C 66.722656 976.78125 73.835938 990.0625 81.277344 1008.277344 C 83.695312 1014.300781 86.097656 1020.878906 88.492188 1027.992188 C 90.941406 1035.632812 93.339844 1043.933594 95.6875 1052.898438 C 97.355469 1057.832031 98.589844 1061.714844 99.378906 1064.542969 L 101.3125 1069.109375 C 102.144531 1070.832031 103.613281 1071.917969 105.71875 1072.339844 C 107.667969 1072.609375 109.398438 1072.003906 110.875 1070.527344 C 112.261719 1068.902344 112.71875 1067.097656 112.257812 1065.113281 C 111.992188 1064.21875 111.394531 1062.789062 110.472656 1060.839844 C 109.808594 1058.378906 108.582031 1054.527344 106.804688 1049.25 C 104.660156 1040.96875 102.34375 1032.910156 99.855469 1025.078125 C 98.136719 1019.871094 96.144531 1014.273438 93.867188 1008.300781 C 85.359375 986.667969 77.113281 970.964844 69.125 961.175781 C 60.042969 949.410156 50.09375 941.90625 39.300781 938.640625 C 28.480469 935.304688 19.027344 937.070312 10.929688 943.9375 "/></g></g></g><g clip-rule="nonzero" clip-path="url(#c0110379f6)"><g clip-rule="nonzero" clip-path="url(#14ab0b1bbc)"><g clip-rule="nonzero" clip-path="url(#14a78b72c5)"><path style=" stroke:none;fill-rule:nonzero;fill:#1e40af;fill-opacity:1;" d="M 1770.90625 600.875 C 1772.289062 592.734375 1770.808594 586.363281 1766.449219 581.773438 C 1761.773438 576.515625 1755.421875 574.441406 1747.398438 575.542969 C 1736.609375 577.675781 1731.0625 583.863281 1730.75 594.125 C 1731.777344 602.519531 1734.707031 606.34375 1739.542969 605.617188 C 1741.875 605.070312 1743.390625 603.683594 1744.09375 601.445312 C 1744.359375 600.449219 1744.386719 599.492188 1744.179688 598.605469 C 1742.992188 595.507812 1742.398438 593.652344 1742.410156 593.027344 C 1742.464844 592.027344 1743 590.828125 1744.019531 589.4375 C 1748.394531 586.363281 1752.710938 586.179688 1756.96875 588.863281 C 1759.332031 590.347656 1760.15625 593.539062 1759.449219 598.429688 C 1757.476562 604.027344 1754.566406 608.007812 1750.730469 610.382812 C 1736.878906 618.996094 1719.84375 618.988281 1699.636719 610.351562 C 1691.355469 605.679688 1681.21875 595.636719 1669.207031 580.207031 C 1664.140625 573.550781 1658.851562 566.109375 1653.355469 557.894531 C 1650.878906 554.183594 1648.46875 550.414062 1646.136719 546.605469 L 1629.722656 519.339844 C 1627.203125 515.238281 1624.046875 510.933594 1620.234375 506.390625 C 1617.15625 502.492188 1614.757812 500.628906 1613.058594 500.804688 C 1609.925781 500.675781 1607.84375 502.140625 1606.78125 505.195312 C 1606.417969 506.824219 1606.640625 508.308594 1607.449219 509.660156 C 1610.9375 513.269531 1614.332031 517.460938 1617.644531 522.242188 L 1623.414062 531.277344 C 1630.394531 543.292969 1636.136719 552.816406 1640.640625 559.84375 C 1645.269531 567.101562 1651.230469 575.648438 1658.519531 585.492188 C 1671.863281 602.988281 1683.535156 614.613281 1693.546875 620.347656 C 1701.09375 624.335938 1709.597656 626.832031 1719.078125 627.871094 C 1726.003906 629.054688 1733.886719 628.675781 1742.730469 626.730469 C 1758.464844 621.808594 1767.855469 613.207031 1770.898438 600.929688 "/></g></g></g><g clip-rule="nonzero" clip-path="url(#03c947b528)"><g clip-rule="nonzero" clip-path="url(#9f3f90391e)"><g clip-rule="nonzero" clip-path="url(#2baca7a65f)"><path style=" stroke:none;fill-rule:nonzero;fill:#1e40af;fill-opacity:1;" d="M 14.511719 1184.019531 C 13.128906 1192.152344 14.609375 1198.523438 18.964844 1203.125 C 23.640625 1208.371094 30 1210.449219 38.015625 1209.355469 C 48.804688 1207.222656 54.359375 1201.03125 54.671875 1190.765625 C 53.644531 1182.375 50.710938 1178.542969 45.878906 1179.277344 C 43.542969 1179.8125 42.027344 1181.199219 41.324219 1183.441406 C 41.054688 1184.449219 41.03125 1185.394531 41.242188 1186.289062 C 42.429688 1189.386719 43.015625 1191.246094 43.011719 1191.867188 C 42.957031 1192.863281 42.417969 1194.058594 41.402344 1195.457031 C 37.023438 1198.523438 32.710938 1198.714844 28.449219 1196.023438 C 26.085938 1194.539062 25.257812 1191.359375 25.972656 1186.464844 C 27.945312 1180.863281 30.847656 1176.878906 34.691406 1174.511719 C 48.542969 1165.898438 65.578125 1165.90625 85.785156 1174.542969 C 94.058594 1179.21875 104.203125 1189.257812 116.210938 1204.679688 C 121.273438 1211.347656 126.554688 1218.78125 132.066406 1226.996094 C 134.542969 1230.710938 136.949219 1234.472656 139.285156 1238.285156 L 155.6875 1265.558594 C 158.203125 1269.652344 161.375 1273.960938 165.179688 1278.492188 C 168.265625 1282.402344 170.65625 1284.269531 172.363281 1284.089844 C 175.488281 1284.222656 177.578125 1282.753906 178.636719 1279.691406 C 178.996094 1278.074219 178.773438 1276.589844 177.972656 1275.234375 C 174.484375 1271.621094 171.089844 1267.429688 167.777344 1262.652344 L 162.007812 1253.617188 C 155.027344 1241.601562 149.285156 1232.078125 144.777344 1225.039062 C 140.152344 1217.789062 134.191406 1209.246094 126.902344 1199.398438 C 113.558594 1181.902344 101.886719 1170.28125 91.867188 1164.539062 C 84.328125 1160.558594 75.816406 1158.050781 66.34375 1157.023438 C 59.417969 1155.839844 51.527344 1156.222656 42.683594 1158.167969 C 26.957031 1163.085938 17.566406 1171.6875 14.523438 1183.964844 "/></g></g></g><g clip-rule="nonzero" clip-path="url(#1e349b2019)"><g clip-rule="nonzero" clip-path="url(#75703fd8c6)"><g clip-rule="nonzero" clip-path="url(#101a3b5795)"><path style=" stroke:none;fill-rule:nonzero;fill:#1e40af;fill-opacity:1;" d="M 1708.761719 400.800781 C 1690.453125 406.871094 1675.769531 410.910156 1664.691406 412.929688 C 1655.996094 414.769531 1646.417969 414.714844 1635.949219 412.765625 C 1622.902344 410.242188 1608.027344 405.121094 1591.324219 397.40625 C 1570.476562 387.289062 1557.867188 379.386719 1553.488281 373.675781 C 1578.378906 355.078125 1607.027344 348.34375 1639.457031 353.457031 C 1655.058594 356.550781 1668.410156 362.207031 1679.496094 370.402344 C 1691.738281 378.929688 1701.460938 389.011719 1708.664062 400.667969 M 1724.554688 406.601562 C 1724.34375 403.046875 1719.640625 395.207031 1710.4375 383.097656 C 1705.242188 376.707031 1699.265625 370.792969 1692.492188 365.371094 C 1677.109375 352.957031 1659.542969 345.054688 1639.792969 341.65625 C 1620.421875 338.460938 1601.152344 339.878906 1581.984375 345.90625 C 1571.390625 349.425781 1561.886719 353.917969 1553.480469 359.378906 C 1546.257812 364.136719 1540.429688 368.566406 1536 372.675781 C 1534.707031 373.871094 1534.097656 375.457031 1534.171875 377.460938 C 1534.480469 379.585938 1535.460938 381.109375 1537.105469 382.027344 C 1539.679688 383.339844 1542.082031 382.976562 1544.320312 380.953125 C 1550.058594 388.378906 1564.382812 397.542969 1587.304688 408.449219 C 1606.792969 417.234375 1623.101562 422.640625 1636.214844 424.664062 C 1646.304688 426.683594 1657.773438 426.378906 1670.632812 423.742188 C 1682.867188 421.097656 1696.191406 417.3125 1710.609375 412.378906 C 1711.429688 412.171875 1712.308594 412.0625 1713.261719 412.046875 C 1715.414062 412.042969 1717.082031 412.195312 1718.277344 412.523438 L 1720.226562 412.273438 C 1723.292969 411.320312 1724.746094 409.503906 1724.578125 406.816406 "/></g></g></g><g clip-rule="nonzero" clip-path="url(#b5a40646af)"><g clip-rule="nonzero" clip-path="url(#44a46a19dc)"><g clip-rule="nonzero" clip-path="url(#88ea6e661b)"><path style=" stroke:none;fill-rule:nonzero;fill:#1e40af;fill-opacity:1;" d="M 76.65625 1384.085938 C 94.953125 1378.019531 109.652344 1373.984375 120.722656 1371.96875 C 129.417969 1370.128906 138.996094 1370.183594 149.464844 1372.132812 C 162.511719 1374.65625 177.386719 1379.777344 194.097656 1387.484375 C 214.945312 1397.601562 227.554688 1405.507812 231.925781 1411.222656 C 207.042969 1429.816406 178.386719 1436.554688 145.960938 1431.425781 C 130.351562 1428.339844 117.003906 1422.695312 105.917969 1414.484375 C 93.675781 1405.96875 83.953125 1395.886719 76.75 1384.230469 M 60.859375 1378.285156 C 61.078125 1381.847656 65.78125 1389.6875 74.976562 1401.800781 C 80.167969 1408.183594 86.152344 1414.089844 92.929688 1419.519531 C 108.3125 1431.9375 125.871094 1439.84375 145.628906 1443.234375 C 165 1446.429688 184.269531 1445.015625 203.433594 1438.976562 C 214.03125 1435.464844 223.535156 1430.976562 231.933594 1425.519531 C 239.164062 1420.757812 244.992188 1416.328125 249.410156 1412.214844 C 250.707031 1411.027344 251.320312 1409.429688 251.242188 1407.4375 C 250.941406 1405.308594 249.960938 1403.785156 248.3125 1402.859375 C 245.742188 1401.554688 243.339844 1401.917969 241.09375 1403.945312 C 235.363281 1396.511719 221.027344 1387.347656 198.117188 1376.445312 C 178.628906 1367.65625 162.320312 1362.253906 149.207031 1360.230469 C 139.113281 1358.203125 127.640625 1358.519531 114.773438 1361.148438 C 102.554688 1363.796875 89.230469 1367.582031 74.8125 1372.515625 C 73.992188 1372.722656 73.113281 1372.828125 72.160156 1372.84375 C 70 1372.859375 68.335938 1372.691406 67.136719 1372.359375 L 65.1875 1372.625 C 62.128906 1373.574219 60.675781 1375.390625 60.835938 1378.070312 "/></g></g></g><g clip-rule="nonzero" clip-path="url(#4bc6371000)"><g clip-rule="nonzero" clip-path="url(#7df0a3d6dc)"><g clip-rule="nonzero" clip-path="url(#129d541a59)"><path style=" stroke:none;fill-rule:nonzero;fill:#1e40af;fill-opacity:1;" d="M 1641.082031 379.078125 C 1640.855469 377.207031 1639.964844 375.753906 1638.402344 374.714844 C 1637.828125 374.25 1635.148438 373.394531 1630.339844 372.152344 C 1621.304688 369.96875 1610.847656 368.785156 1598.949219 368.582031 L 1561.378906 368.441406 C 1557.457031 368.53125 1553.351562 368.789062 1549.042969 369.21875 C 1543.722656 370.070312 1541.148438 372.46875 1541.324219 376.414062 C 1541.761719 379.433594 1543.53125 381.207031 1546.65625 381.730469 C 1547.71875 381.871094 1549.070312 381.566406 1550.734375 380.804688 C 1554 380.496094 1557.359375 380.273438 1560.816406 380.160156 C 1587.390625 380.054688 1601.878906 380.148438 1604.296875 380.464844 C 1615.949219 381 1626.242188 382.679688 1635.164062 385.507812 C 1638.9375 385.210938 1640.917969 383.105469 1641.089844 379.179688 "/></g></g></g><g clip-rule="nonzero" clip-path="url(#49b233a372)"><g clip-rule="nonzero" clip-path="url(#6f9e10cb5b)"><g clip-rule="nonzero" clip-path="url(#5119291087)"><path style=" stroke:none;fill-rule:nonzero;fill:#1e40af;fill-opacity:1;" d="M 144.335938 1405.804688 C 144.5625 1407.675781 145.457031 1409.140625 147.019531 1410.179688 C 147.585938 1410.648438 150.273438 1411.5 155.074219 1412.746094 C 164.101562 1414.921875 174.574219 1416.109375 186.464844 1416.316406 L 224.042969 1416.449219 C 227.960938 1416.359375 232.070312 1416.105469 236.371094 1415.679688 C 241.699219 1414.820312 244.273438 1412.421875 244.09375 1408.472656 C 243.660156 1405.460938 241.878906 1403.691406 238.765625 1403.160156 C 237.703125 1403.019531 236.34375 1403.332031 234.6875 1404.085938 C 231.414062 1404.402344 228.054688 1404.613281 224.605469 1404.734375 C 198.023438 1404.84375 183.527344 1404.742188 181.125 1404.425781 C 169.464844 1403.898438 159.179688 1402.214844 150.25 1399.390625 C 146.476562 1399.6875 144.503906 1401.789062 144.324219 1405.71875 "/></g></g></g><g clip-rule="nonzero" clip-path="url(#6818a5af16)"><g clip-rule="nonzero" clip-path="url(#c8e34666b7)"><g clip-rule="nonzero" clip-path="url(#8a1ac628a7)"><path style=" stroke:none;fill-rule:nonzero;fill:#1e40af;fill-opacity:1;" d="M 1449.644531 544.25 C 1450.734375 541.328125 1451.449219 538.644531 1451.804688 536.183594 C 1456.828125 497.867188 1460.15625 476.796875 1461.78125 472.964844 C 1463.582031 463.675781 1467.984375 451.964844 1475.007812 437.824219 C 1481.367188 426.300781 1489.3125 416.875 1498.847656 409.566406 C 1508.265625 402.324219 1520.78125 395.875 1536.398438 390.203125 C 1539.582031 406.835938 1540.015625 425.199219 1537.714844 445.3125 C 1535.035156 463.363281 1530.285156 477.886719 1523.488281 488.867188 C 1516.441406 501.117188 1506.769531 512.136719 1494.460938 521.925781 C 1481.589844 531.996094 1466.660156 539.433594 1449.679688 544.25 M 1442.792969 557.398438 C 1460.789062 554.886719 1479.28125 546.964844 1498.269531 533.628906 C 1514.253906 521.84375 1526.597656 507.847656 1535.316406 491.636719 C 1544.34375 475.636719 1549.503906 454.9375 1550.8125 429.550781 C 1551.5625 416.828125 1550.347656 400.832031 1547.15625 381.546875 C 1546.058594 377.164062 1543.734375 375.0625 1540.1875 375.230469 C 1538.183594 375.488281 1536.640625 376.457031 1535.566406 378.121094 C 1532.675781 378.808594 1524.179688 382.367188 1510.089844 388.808594 C 1503.398438 392.328125 1497.492188 395.988281 1492.351562 399.796875 C 1480.753906 408.625 1471.347656 419.789062 1464.140625 433.304688 C 1457.148438 447.765625 1452.804688 459.117188 1451.105469 467.371094 C 1449.710938 472.667969 1448.242188 479.710938 1446.710938 488.496094 L 1439.9375 535.957031 L 1438.09375 541.683594 L 1434.734375 548.390625 L 1434.183594 550.257812 C 1433.507812 555.183594 1436.277344 557.5625 1442.496094 557.414062 "/></g></g></g><g clip-rule="nonzero" clip-path="url(#cca3ffd2c7)"><g clip-rule="nonzero" clip-path="url(#becfea6db8)"><g clip-rule="nonzero" clip-path="url(#33cc3d15d7)"><path style=" stroke:none;fill-rule:nonzero;fill:#1e40af;fill-opacity:1;" d="M 335.773438 1240.632812 C 334.683594 1243.558594 333.964844 1246.253906 333.613281 1248.703125 C 328.589844 1287.019531 325.265625 1308.097656 323.625 1311.925781 C 321.839844 1321.21875 317.429688 1332.933594 310.40625 1347.074219 C 304.046875 1358.597656 296.105469 1368.011719 286.574219 1375.328125 C 277.152344 1382.5625 264.640625 1389.019531 249.023438 1394.691406 C 245.839844 1378.058594 245.398438 1359.6875 247.699219 1339.585938 C 250.386719 1321.53125 255.125 1307.003906 261.929688 1296.019531 C 268.972656 1283.78125 278.652344 1272.757812 290.960938 1262.96875 C 303.832031 1252.898438 318.761719 1245.457031 335.742188 1240.640625 M 342.628906 1227.496094 C 324.628906 1230 306.140625 1237.925781 287.152344 1251.265625 C 271.160156 1263.042969 258.808594 1277.042969 250.101562 1293.25 C 241.078125 1309.257812 235.914062 1329.949219 234.605469 1355.335938 C 233.855469 1368.054688 235.066406 1384.066406 238.257812 1403.351562 C 239.355469 1407.734375 241.679688 1409.835938 245.234375 1409.660156 C 247.230469 1409.398438 248.773438 1408.441406 249.847656 1406.765625 C 252.746094 1406.085938 261.230469 1402.523438 275.332031 1396.082031 C 282.011719 1392.570312 287.929688 1388.902344 293.070312 1385.097656 C 304.667969 1376.269531 314.070312 1365.101562 321.273438 1351.59375 C 328.261719 1337.132812 332.605469 1325.773438 334.300781 1317.519531 C 335.710938 1312.222656 337.175781 1305.175781 338.695312 1296.394531 L 345.480469 1248.925781 L 347.316406 1243.207031 L 350.679688 1236.496094 L 351.238281 1234.636719 C 351.914062 1229.710938 349.140625 1227.324219 342.925781 1227.476562 "/></g></g></g><g clip-rule="nonzero" clip-path="url(#a3539fec14)"><g clip-rule="nonzero" clip-path="url(#898de1f94b)"><g clip-rule="nonzero" clip-path="url(#53c5d4c4b4)"><path style=" stroke:none;fill-rule:nonzero;fill:#1e40af;fill-opacity:1;" d="M 1490.753906 484.167969 C 1493.238281 484.199219 1495.503906 482.089844 1497.539062 477.855469 L 1507.855469 457.925781 L 1519.761719 431.890625 C 1522.1875 427.179688 1524.382812 423.304688 1526.347656 420.246094 C 1528.113281 417.324219 1531.144531 413.195312 1535.441406 407.878906 L 1539.191406 403.636719 C 1542.855469 399.964844 1545.832031 396.871094 1548.109375 394.355469 C 1548.792969 393.652344 1549.390625 392.820312 1549.898438 391.863281 C 1551.253906 389.476562 1551.414062 387.28125 1550.367188 385.261719 C 1549.207031 383.1875 1547.371094 382.152344 1544.855469 382.15625 C 1543.234375 382.3125 1541.949219 382.898438 1541.003906 383.921875 C 1540.429688 384.472656 1539.929688 385.296875 1539.511719 386.414062 C 1537.640625 388.511719 1534.617188 391.65625 1530.445312 395.863281 L 1525.8125 401.152344 C 1520.179688 407.878906 1515.082031 415.589844 1510.539062 424.261719 C 1509.621094 425.976562 1508.71875 427.78125 1507.84375 429.683594 C 1503.007812 440.628906 1499.289062 448.785156 1496.671875 454.144531 L 1487.964844 470.980469 L 1484.785156 476.429688 C 1484.164062 478.339844 1484.460938 480.152344 1485.671875 481.875 C 1486.953125 483.480469 1488.640625 484.25 1490.730469 484.167969 "/></g></g></g><g clip-rule="nonzero" clip-path="url(#039b847094)"><g clip-rule="nonzero" clip-path="url(#9741b6187b)"><g clip-rule="nonzero" clip-path="url(#d5be4beebd)"><path style=" stroke:none;fill-rule:nonzero;fill:#1e40af;fill-opacity:1;" d="M 294.667969 1300.726562 C 292.175781 1300.703125 289.914062 1302.796875 287.878906 1307.027344 L 277.566406 1326.96875 L 265.65625 1352.992188 C 263.230469 1357.703125 261.03125 1361.59375 259.070312 1364.640625 C 257.292969 1367.570312 254.269531 1371.6875 249.980469 1377.011719 L 246.226562 1381.246094 C 242.558594 1384.921875 239.582031 1388.027344 237.304688 1390.542969 C 236.628906 1391.242188 236.03125 1392.074219 235.515625 1393.023438 C 234.160156 1395.40625 234 1397.617188 235.042969 1399.628906 C 236.207031 1401.710938 238.046875 1402.742188 240.558594 1402.742188 C 242.179688 1402.570312 243.464844 1401.988281 244.417969 1400.972656 C 244.992188 1400.421875 245.488281 1399.585938 245.910156 1398.480469 C 247.78125 1396.382812 250.804688 1393.238281 254.96875 1389.035156 L 259.601562 1383.746094 C 265.238281 1377.003906 270.339844 1369.304688 274.882812 1360.628906 C 275.800781 1358.917969 276.703125 1357.113281 277.578125 1355.210938 C 282.414062 1344.265625 286.132812 1336.109375 288.742188 1330.753906 L 297.457031 1313.910156 L 300.632812 1308.457031 C 301.257812 1306.554688 300.960938 1304.738281 299.75 1303.019531 C 298.460938 1301.40625 296.78125 1300.640625 294.691406 1300.726562 "/></g></g></g><g style="fill:#1e40af;fill-opacity:1;"><g transform="translate(250.853703, 608.664226)"><path style="stroke:none" d="M 150 -14.40625 C 125.195312 5.59375 97.726562 15.59375 67.59375 15.59375 C 33.195312 15.59375 12 5.992188 4 -13.203125 C 2.132812 -17.734375 1.203125 -23 1.203125 -29 C 1.203125 -35 4.269531 -41.46875 10.40625 -48.40625 C 20 -59.332031 33.332031 -64.796875 50.40625 -64.796875 C 61.863281 -64.796875 73.394531 -62.726562 85 -58.59375 C 96.601562 -54.46875 117.203125 -44.535156 146.796875 -28.796875 C 160.128906 -41.597656 173.460938 -58.664062 186.796875 -80 C 200.128906 -101.332031 211.660156 -121.929688 221.390625 -141.796875 C 231.128906 -161.660156 243 -183.328125 257 -206.796875 C 271 -230.265625 284.929688 -249.734375 298.796875 -265.203125 C 268.929688 -283.066406 237.195312 -292 203.59375 -292 C 189.726562 -292 175.597656 -290.53125 161.203125 -287.59375 C 119.867188 -278.800781 88.398438 -260.800781 66.796875 -233.59375 C 53.460938 -217.0625 46.796875 -201.332031 46.796875 -186.40625 C 46.796875 -166.132812 56.53125 -152.929688 76 -146.796875 C 82.9375 -144.929688 88.9375 -144 94 -144 C 99.0625 -144 104.726562 -144.796875 111 -146.390625 C 117.269531 -147.992188 123.46875 -151.726562 129.59375 -157.59375 C 141.332031 -169.332031 147.601562 -180.269531 148.40625 -190.40625 C 148.664062 -192.800781 150.195312 -193.664062 153 -193 C 155.800781 -192.332031 156.9375 -190.265625 156.40625 -186.796875 C 153.738281 -167.328125 143.46875 -152.53125 125.59375 -142.40625 C 114.664062 -136.53125 103.734375 -133.59375 92.796875 -133.59375 L 72 -137.203125 C 51.726562 -144.128906 38.394531 -157.0625 32 -176 C 29.332031 -183.195312 28 -190.394531 28 -197.59375 C 28 -212.257812 33.46875 -226.796875 44.40625 -241.203125 C 67.863281 -272.671875 109.460938 -292.800781 169.203125 -301.59375 C 180.929688 -303.195312 192.53125 -304 204 -304 C 241.0625 -304 276.394531 -295.195312 310 -277.59375 C 320.394531 -289.59375 329.992188 -298.726562 338.796875 -305 C 347.597656 -311.269531 354.664062 -314.40625 360 -314.40625 C 362.9375 -314.40625 364.671875 -313.800781 365.203125 -312.59375 C 365.734375 -311.394531 365.664062 -310.460938 365 -309.796875 C 364.332031 -309.128906 363.46875 -308.796875 362.40625 -308.796875 C 357.863281 -308.796875 351.992188 -303.992188 344.796875 -294.390625 C 337.597656 -284.796875 331.734375 -275.863281 327.203125 -267.59375 C 355.734375 -248.664062 377.46875 -224.398438 392.40625 -194.796875 C 404.40625 -171.066406 410.40625 -145.203125 410.40625 -117.203125 C 410.40625 -82.535156 402.132812 -54.9375 385.59375 -34.40625 C 372 -17.601562 355.46875 -5.734375 336 1.203125 C 312.800781 9.460938 289.867188 13.59375 267.203125 13.59375 C 221.335938 13.59375 182.269531 4.257812 150 -14.40625 Z M 159.59375 -21.59375 C 186.53125 -5.59375 218.132812 2.40625 254.40625 2.40625 C 296.53125 2.40625 330.128906 -9.59375 355.203125 -33.59375 C 375.203125 -53.0625 385.203125 -80 385.203125 -114.40625 C 385.203125 -138.9375 380.398438 -162 370.796875 -183.59375 C 358.796875 -211.0625 341.0625 -234 317.59375 -252.40625 C 309.863281 -240.40625 295 -216.203125 273 -179.796875 C 251 -143.398438 232.398438 -113.867188 217.203125 -91.203125 C 202.003906 -68.535156 190.003906 -52.46875 181.203125 -43 C 172.398438 -33.53125 165.195312 -26.394531 159.59375 -21.59375 Z M 136.40625 -20.796875 C 105.195312 -35.734375 85.457031 -44.664062 77.1875 -47.59375 C 68.925781 -50.53125 60.863281 -52 53 -52 C 45.132812 -52 38.867188 -49.066406 34.203125 -43.203125 C 29.535156 -37.335938 27.203125 -32.070312 27.203125 -27.40625 C 27.203125 -22.738281 28.269531 -18.269531 30.40625 -14 C 36 -2.53125 47.460938 3.203125 64.796875 3.203125 C 90.398438 3.203125 114.269531 -4.796875 136.40625 -20.796875 Z M 136.40625 -20.796875 "/></g></g><g style="fill:#1e40af;fill-opacity:1;"><g transform="translate(656.450463, 608.664226)"><path style="stroke:none" d="M 144.40625 -108.40625 C 139.601562 -103.601562 132.800781 -92.734375 124 -75.796875 C 115.195312 -58.867188 109.925781 -46.203125 108.1875 -37.796875 C 106.457031 -29.398438 105.59375 -22.597656 105.59375 -17.390625 C 105.59375 -12.191406 107.59375 -9.59375 111.59375 -9.59375 C 116.664062 -9.59375 122.9375 -14.257812 130.40625 -23.59375 C 141.332031 -37.195312 152.128906 -54.929688 162.796875 -76.796875 C 163.867188 -79.203125 165.070312 -80.535156 166.40625 -80.796875 C 168.53125 -81.597656 169.59375 -80.800781 169.59375 -78.40625 C 169.59375 -77.070312 169.195312 -75.46875 168.40625 -73.59375 C 143.863281 -24 123.195312 0.796875 106.40625 0.796875 C 98.664062 0.796875 92.394531 -2.9375 87.59375 -10.40625 C 85.195312 -14.40625 84 -19.738281 84 -26.40625 C 84 -33.070312 85.332031 -41.203125 88 -50.796875 C 66.664062 -16.398438 48.265625 0.796875 32.796875 0.796875 C 28.535156 0.796875 24.671875 -0.535156 21.203125 -3.203125 C 13.203125 -8.796875 9.203125 -18.394531 9.203125 -32 C 9.203125 -58.132812 20.535156 -84.664062 43.203125 -111.59375 C 56.003906 -126.53125 71.738281 -136.265625 90.40625 -140.796875 C 95.46875 -142.128906 100.265625 -142.796875 104.796875 -142.796875 C 117.066406 -142.796875 127.46875 -138.53125 136 -130 C 138.664062 -127.0625 139.460938 -124.257812 138.390625 -121.59375 C 137.328125 -118.925781 135.0625 -117.863281 131.59375 -118.40625 C 128.664062 -128 122.269531 -132.796875 112.40625 -132.796875 C 100.9375 -132.796875 86.800781 -123.726562 70 -105.59375 C 60.394531 -94.925781 51.460938 -82.394531 43.203125 -68 C 32.796875 -50.664062 27.59375 -36.796875 27.59375 -26.390625 C 27.59375 -15.992188 30.925781 -10.796875 37.59375 -10.796875 C 53.59375 -10.796875 74.53125 -35.332031 100.40625 -84.40625 C 105.46875 -94.269531 109.734375 -101 113.203125 -104.59375 C 116.671875 -108.195312 121.070312 -110 126.40625 -110 C 127.46875 -110 130.195312 -109.597656 134.59375 -108.796875 C 139 -107.992188 142.269531 -107.863281 144.40625 -108.40625 Z M 144.40625 -108.40625 "/></g></g><g style="fill:#1e40af;fill-opacity:1;"><g transform="translate(796.449368, 608.664226)"><path style="stroke:none" d="M 143.59375 -131.203125 C 110.800781 -73.597656 94.40625 -36 94.40625 -18.40625 C 94.40625 -11.46875 96.9375 -8 102 -8 C 115.601562 -8 133.867188 -31.066406 156.796875 -77.203125 C 158.398438 -80.929688 160 -82.394531 161.59375 -81.59375 C 163.195312 -80.800781 164 -79.738281 164 -78.40625 C 164 -77.070312 163.46875 -75.46875 162.40625 -73.59375 C 148.269531 -45.0625 136.332031 -25.394531 126.59375 -14.59375 C 116.863281 -3.800781 107.128906 1.59375 97.390625 1.59375 C 87.660156 1.59375 80.265625 -2.132812 75.203125 -9.59375 C 72.535156 -13.0625 71.203125 -17.796875 71.203125 -23.796875 C 71.203125 -29.796875 72.535156 -37.0625 75.203125 -45.59375 C 77.867188 -54.132812 85.203125 -68.003906 97.203125 -87.203125 C 100.128906 -92.003906 101.59375 -95.800781 101.59375 -98.59375 C 101.59375 -101.394531 99.328125 -102.796875 94.796875 -102.796875 C 90.265625 -102.796875 81.597656 -96.796875 68.796875 -84.796875 C 49.597656 -67.203125 31.066406 -40.800781 13.203125 -5.59375 C 11.597656 -2.925781 9.796875 -1.257812 7.796875 -0.59375 C 5.796875 0.0703125 1.863281 0.535156 -4 0.796875 C -9.863281 1.066406 -13.726562 1.734375 -15.59375 2.796875 C -11.332031 -5.734375 -2.9375 -23.195312 9.59375 -49.59375 C 32 -96.257812 46.664062 -122.925781 53.59375 -129.59375 C 56.800781 -132.800781 61.203125 -134.40625 66.796875 -134.40625 C 67.867188 -134.40625 70.601562 -134.003906 75 -133.203125 C 79.394531 -132.398438 82.660156 -132.265625 84.796875 -132.796875 C 74.929688 -127.460938 58.800781 -102.394531 36.40625 -57.59375 C 48.9375 -73.0625 60.332031 -85.394531 70.59375 -94.59375 C 80.863281 -103.800781 93.195312 -112.335938 107.59375 -120.203125 C 122 -128.066406 132.535156 -132 139.203125 -132 C 140.796875 -132 142.257812 -131.734375 143.59375 -131.203125 Z M 143.59375 -131.203125 "/></g></g><g style="fill:#1e40af;fill-opacity:1;"><g transform="translate(930.448228, 608.664226)"><path style="stroke:none" d="M 77.59375 -155.59375 C 73.863281 -152.394531 69.734375 -150.796875 65.203125 -150.796875 C 60.671875 -150.796875 57.070312 -152.394531 54.40625 -155.59375 C 51.738281 -158.800781 50.671875 -162.671875 51.203125 -167.203125 C 52.003906 -171.734375 54.269531 -175.597656 58 -178.796875 C 61.726562 -181.992188 65.859375 -183.59375 70.390625 -183.59375 C 74.929688 -183.59375 78.597656 -181.992188 81.390625 -178.796875 C 84.191406 -175.597656 85.191406 -171.734375 84.390625 -167.203125 C 83.597656 -162.671875 81.332031 -158.800781 77.59375 -155.59375 Z M 38.40625 -8.796875 C 43.46875 -8.796875 48.800781 -11.332031 54.40625 -16.40625 C 64.269531 -26.269531 76.800781 -46.398438 92 -76.796875 C 93.863281 -80.796875 95.726562 -82 97.59375 -80.40625 C 98.132812 -79.863281 98.40625 -78.992188 98.40625 -77.796875 C 98.40625 -76.597656 97.335938 -73.664062 95.203125 -69 C 93.066406 -64.332031 91.128906 -60.128906 89.390625 -56.390625 C 87.660156 -52.660156 84.328125 -46.59375 79.390625 -38.1875 C 74.460938 -29.789062 70 -23.328125 66 -18.796875 C 55.0625 -6.265625 44.726562 0 35 0 C 25.269531 0 18.269531 -2.929688 14 -8.796875 C 9.726562 -14.660156 7.59375 -21.191406 7.59375 -28.390625 C 7.59375 -35.597656 9.328125 -43.46875 12.796875 -52 L 38.40625 -117.203125 C 38.9375 -118.796875 39.203125 -120.925781 39.203125 -123.59375 C 39.203125 -126.257812 37.601562 -129.726562 34.40625 -134 L 56.40625 -134.40625 C 62.53125 -134.40625 66.125 -133.269531 67.1875 -131 C 68.257812 -128.726562 67.460938 -125.195312 64.796875 -120.40625 L 32.796875 -45.59375 C 28.265625 -35.726562 26 -27.332031 26 -20.40625 C 26 -12.664062 30.132812 -8.796875 38.40625 -8.796875 Z M 38.40625 -8.796875 "/></g></g><g style="fill:#1e40af;fill-opacity:1;"><g transform="translate(1000.04771, 608.664226)"><path style="stroke:none" d="M 40.40625 -61.59375 C 36.664062 -52.53125 34.796875 -42.398438 34.796875 -31.203125 C 34.796875 -23.734375 36.460938 -17.796875 39.796875 -13.390625 C 43.128906 -8.992188 47.863281 -6.796875 54 -6.796875 C 78.269531 -6.796875 100.269531 -29.597656 120 -75.203125 C 121.863281 -79.460938 124.128906 -81.328125 126.796875 -80.796875 C 127.867188 -80.535156 128.40625 -79.867188 128.40625 -78.796875 C 128.40625 -77.734375 125.40625 -70.734375 119.40625 -57.796875 C 113.40625 -44.867188 107.335938 -34.40625 101.203125 -26.40625 C 87.597656 -7.738281 70.796875 1.59375 50.796875 1.59375 C 40.128906 1.59375 31.0625 -1.867188 23.59375 -8.796875 C 16.132812 -15.734375 12.40625 -25.203125 12.40625 -37.203125 C 12.40625 -49.203125 15.269531 -61.929688 21 -75.390625 C 26.726562 -88.859375 34.523438 -101.394531 44.390625 -113 C 54.265625 -124.601562 65.601562 -133.070312 78.40625 -138.40625 C 84.53125 -141.070312 90.394531 -142.40625 96 -142.40625 C 101.601562 -142.40625 106.800781 -140.800781 111.59375 -137.59375 C 116.132812 -133.863281 118.40625 -129.734375 118.40625 -125.203125 C 118.40625 -109.203125 108.800781 -93.867188 89.59375 -79.203125 C 83.726562 -74.671875 75.460938 -70.601562 64.796875 -67 C 54.128906 -63.394531 46 -61.59375 40.40625 -61.59375 Z M 107.59375 -125.59375 C 107.59375 -130.925781 105.460938 -133.59375 101.203125 -133.59375 C 93.734375 -133.59375 82.398438 -124.394531 67.203125 -106 C 58.128906 -94.800781 50.128906 -82.269531 43.203125 -68.40625 C 47.734375 -68.40625 54.332031 -70.003906 63 -73.203125 C 71.664062 -76.398438 79.195312 -80.664062 85.59375 -86 C 100.257812 -98.53125 107.59375 -111.726562 107.59375 -125.59375 Z M 107.59375 -125.59375 "/></g></g><g style="fill:#1e40af;fill-opacity:1;"><g transform="translate(1098.446934, 608.664226)"><path style="stroke:none" d="M 44.796875 -77.203125 C 44.535156 -76.128906 43.335938 -72.457031 41.203125 -66.1875 C 39.066406 -59.925781 37.265625 -53.925781 35.796875 -48.1875 C 34.328125 -42.457031 33.59375 -36.726562 33.59375 -31 C 33.59375 -25.269531 34.925781 -19.9375 37.59375 -15 C 40.257812 -10.0625 44.53125 -7.59375 50.40625 -7.59375 C 60 -7.59375 69.328125 -14.0625 78.390625 -27 C 87.460938 -39.9375 97.066406 -56.40625 107.203125 -76.40625 C 109.335938 -80.132812 111.335938 -81.597656 113.203125 -80.796875 C 114.535156 -79.734375 114.800781 -78.332031 114 -76.59375 C 113.195312 -74.863281 111.53125 -71.128906 109 -65.390625 C 106.46875 -59.660156 104.597656 -55.660156 103.390625 -53.390625 C 102.191406 -51.128906 100.0625 -47.128906 97 -41.390625 C 93.9375 -35.660156 91.269531 -31.394531 89 -28.59375 C 86.726562 -25.800781 83.660156 -22.203125 79.796875 -17.796875 C 75.929688 -13.398438 72.265625 -10.132812 68.796875 -8 C 59.460938 -2.132812 50.660156 0.796875 42.390625 0.796875 C 34.128906 0.796875 27.734375 -1 23.203125 -4.59375 C 18.671875 -8.195312 15.9375 -12.066406 15 -16.203125 C 14.0625 -20.335938 13.59375 -24.003906 13.59375 -27.203125 C 13.59375 -30.398438 13.726562 -34.53125 14 -39.59375 C 14.800781 -48.132812 16.46875 -56.40625 19 -64.40625 C 21.53125 -72.40625 22.929688 -76.9375 23.203125 -78 C 29.335938 -100.132812 38.070312 -124.265625 49.40625 -150.390625 C 60.738281 -176.523438 70.335938 -196.191406 78.203125 -209.390625 C 86.066406 -222.597656 92.265625 -231.601562 96.796875 -236.40625 C 105.867188 -246 114.800781 -250.796875 123.59375 -250.796875 C 129.726562 -250.796875 133.863281 -246.394531 136 -237.59375 C 136.269531 -236 136.40625 -234 136.40625 -231.59375 C 136.40625 -222.53125 133.203125 -211.066406 126.796875 -197.203125 C 103.867188 -146.265625 76.535156 -106.265625 44.796875 -77.203125 Z M 48 -90 C 61.601562 -103.863281 75.070312 -121.328125 88.40625 -142.390625 C 101.738281 -163.460938 111.535156 -181.398438 117.796875 -196.203125 C 124.066406 -211.003906 127.203125 -221.070312 127.203125 -226.40625 C 127.203125 -231.738281 126.269531 -234.40625 124.40625 -234.40625 C 121.738281 -234.40625 116.671875 -229.132812 109.203125 -218.59375 C 101.734375 -208.0625 91.664062 -189.128906 79 -161.796875 C 66.332031 -134.460938 56 -110.53125 48 -90 Z M 48 -90 "/></g></g><g style="fill:#1e40af;fill-opacity:1;"><g transform="translate(1183.246275, 608.664226)"><path style="stroke:none" d="M 144.40625 -108.40625 C 139.601562 -103.601562 132.800781 -92.734375 124 -75.796875 C 115.195312 -58.867188 109.925781 -46.203125 108.1875 -37.796875 C 106.457031 -29.398438 105.59375 -22.597656 105.59375 -17.390625 C 105.59375 -12.191406 107.59375 -9.59375 111.59375 -9.59375 C 116.664062 -9.59375 122.9375 -14.257812 130.40625 -23.59375 C 141.332031 -37.195312 152.128906 -54.929688 162.796875 -76.796875 C 163.867188 -79.203125 165.070312 -80.535156 166.40625 -80.796875 C 168.53125 -81.597656 169.59375 -80.800781 169.59375 -78.40625 C 169.59375 -77.070312 169.195312 -75.46875 168.40625 -73.59375 C 143.863281 -24 123.195312 0.796875 106.40625 0.796875 C 98.664062 0.796875 92.394531 -2.9375 87.59375 -10.40625 C 85.195312 -14.40625 84 -19.738281 84 -26.40625 C 84 -33.070312 85.332031 -41.203125 88 -50.796875 C 66.664062 -16.398438 48.265625 0.796875 32.796875 0.796875 C 28.535156 0.796875 24.671875 -0.535156 21.203125 -3.203125 C 13.203125 -8.796875 9.203125 -18.394531 9.203125 -32 C 9.203125 -58.132812 20.535156 -84.664062 43.203125 -111.59375 C 56.003906 -126.53125 71.738281 -136.265625 90.40625 -140.796875 C 95.46875 -142.128906 100.265625 -142.796875 104.796875 -142.796875 C 117.066406 -142.796875 127.46875 -138.53125 136 -130 C 138.664062 -127.0625 139.460938 -124.257812 138.390625 -121.59375 C 137.328125 -118.925781 135.0625 -117.863281 131.59375 -118.40625 C 128.664062 -128 122.269531 -132.796875 112.40625 -132.796875 C 100.9375 -132.796875 86.800781 -123.726562 70 -105.59375 C 60.394531 -94.925781 51.460938 -82.394531 43.203125 -68 C 32.796875 -50.664062 27.59375 -36.796875 27.59375 -26.390625 C 27.59375 -15.992188 30.925781 -10.796875 37.59375 -10.796875 C 53.59375 -10.796875 74.53125 -35.332031 100.40625 -84.40625 C 105.46875 -94.269531 109.734375 -101 113.203125 -104.59375 C 116.671875 -108.195312 121.070312 -110 126.40625 -110 C 127.46875 -110 130.195312 -109.597656 134.59375 -108.796875 C 139 -107.992188 142.269531 -107.863281 144.40625 -108.40625 Z M 144.40625 -108.40625 "/></g></g><g style="fill:#1e40af;fill-opacity:1;"><g transform="translate(801.527072, 959.249923)"><path style="stroke:none" d="M 100.5 -119.40625 L 120.59375 -120 C 129 -120 134.601562 -118.195312 137.40625 -114.59375 C 138.800781 -113 139.5 -111.398438 139.5 -109.796875 C 139.5 -108.203125 139 -106.800781 138 -105.59375 C 135.601562 -102.59375 131.101562 -101.09375 124.5 -101.09375 C 113.101562 -101.09375 103.003906 -105.492188 94.203125 -114.296875 C 71.796875 -110.898438 54.796875 -99 43.203125 -78.59375 C 35.796875 -65.394531 32.09375 -52.5 32.09375 -39.90625 C 32.09375 -32.90625 33.195312 -26.003906 35.40625 -19.203125 C 42 -0.00390625 56.296875 9.59375 78.296875 9.59375 C 97.898438 9.59375 114.898438 2.992188 129.296875 -10.203125 C 143.703125 -23.398438 150.90625 -36.5 150.90625 -49.5 C 150.90625 -55.695312 148.253906 -60.84375 142.953125 -64.9375 C 137.648438 -69.039062 132.046875 -71.441406 126.140625 -72.140625 C 120.242188 -72.847656 115.242188 -73.203125 111.140625 -73.203125 C 107.046875 -73.203125 101.75 -72.75 95.25 -71.84375 C 88.75 -70.945312 82.300781 -68.300781 75.90625 -63.90625 C 68.300781 -58.695312 64.5 -51.789062 64.5 -43.1875 C 64.5 -34.59375 71.195312 -26.796875 84.59375 -19.796875 C 86.59375 -18.597656 87.441406 -17.046875 87.140625 -15.140625 C 86.847656 -13.242188 86 -12.695312 84.59375 -13.5 C 72 -20.300781 63.101562 -28 57.90625 -36.59375 C 54.300781 -42.195312 52.5 -46.898438 52.5 -50.703125 C 52.5 -54.503906 53 -57.601562 54 -60 C 56.394531 -67 62.394531 -72.898438 72 -77.703125 C 81.601562 -82.503906 93.800781 -84.90625 108.59375 -84.90625 L 161.703125 -84.90625 C 172.097656 -84.90625 184.894531 -88.40625 200.09375 -95.40625 C 207.5 -98.800781 212.898438 -102.800781 216.296875 -107.40625 C 217.898438 -109.800781 218.703125 -112.347656 218.703125 -115.046875 C 218.703125 -117.742188 218.097656 -120.09375 216.890625 -122.09375 C 215.691406 -124.09375 215.191406 -125.492188 215.390625 -126.296875 C 215.597656 -127.097656 216.148438 -127.5 217.046875 -127.5 C 217.953125 -127.5 218.703125 -127 219.296875 -126 C 222.097656 -121.195312 223.5 -116.644531 223.5 -112.34375 C 223.5 -108.050781 222.195312 -104.101562 219.59375 -100.5 C 214.59375 -92.894531 206.09375 -86.789062 194.09375 -82.1875 C 182.09375 -77.59375 169.695312 -75.296875 156.90625 -75.296875 C 156.5 -75.296875 156 -75.296875 155.40625 -75.296875 C 163 -69.097656 166.796875 -61.195312 166.796875 -51.59375 C 166.796875 -38.195312 159 -24.398438 143.40625 -10.203125 C 136 -3.203125 126.492188 2.492188 114.890625 6.890625 C 103.296875 11.296875 91.097656 13.5 78.296875 13.5 C 47.296875 13.5 25.394531 4.5 12.59375 -13.5 C 6.195312 -22.5 3 -31.195312 3 -39.59375 C 3 -48 4.300781 -55.800781 6.90625 -63 C 13.90625 -82 28.003906 -96.695312 49.203125 -107.09375 C 61.398438 -113.09375 75.097656 -116.894531 90.296875 -118.5 C 84.703125 -126.300781 81.953125 -136.097656 82.046875 -147.890625 C 82.148438 -159.691406 87.300781 -170.789062 97.5 -181.1875 C 107.695312 -191.59375 119.445312 -199.144531 132.75 -203.84375 C 146.050781 -208.550781 159 -210.90625 171.59375 -210.90625 C 182 -210.90625 190.847656 -208.800781 198.140625 -204.59375 C 205.441406 -200.394531 209.09375 -193.695312 209.09375 -184.5 C 209.09375 -178.695312 207.289062 -173.546875 203.6875 -169.046875 C 200.09375 -164.546875 196.046875 -162.296875 191.546875 -162.296875 C 187.046875 -162.296875 183.445312 -163.644531 180.75 -166.34375 C 178.050781 -169.050781 176.703125 -172.40625 176.703125 -176.40625 C 176.703125 -180.40625 178.050781 -183.703125 180.75 -186.296875 C 183.445312 -188.898438 186.597656 -190.203125 190.203125 -190.203125 C 192.597656 -190.203125 194.894531 -189.648438 197.09375 -188.546875 C 199.300781 -187.453125 200.601562 -186.203125 201 -184.796875 C 201.195312 -185.992188 201.296875 -187.195312 201.296875 -188.40625 C 201.296875 -192.800781 199.5 -196.195312 195.90625 -198.59375 C 192.101562 -201.394531 186.398438 -202.796875 178.796875 -202.796875 C 171.203125 -202.796875 162.300781 -200.742188 152.09375 -196.640625 C 141.894531 -192.546875 132.296875 -186.597656 123.296875 -178.796875 C 114.296875 -170.992188 107.195312 -161.394531 102 -150 C 99.195312 -143.601562 97.796875 -137.90625 97.796875 -132.90625 C 97.796875 -127.90625 98.695312 -123.40625 100.5 -119.40625 Z M 134.40625 -110.09375 C 134.40625 -113.695312 127.003906 -115.5 112.203125 -115.5 C 109.203125 -115.5 106.101562 -115.398438 102.90625 -115.203125 C 107.695312 -109.203125 114.144531 -106.203125 122.25 -106.203125 C 130.351562 -106.203125 134.40625 -107.5 134.40625 -110.09375 Z M 134.40625 -110.09375 "/></g></g><g style="fill:#1e40af;fill-opacity:1;"><g transform="translate(658.276142, 1402.250003)"><path style="stroke:none" d="M 196.796875 -150 L 154 -150.40625 C 118.800781 -150.40625 91.332031 -141.867188 71.59375 -124.796875 C 48.394531 -105.066406 36.796875 -82.132812 36.796875 -56 C 36.796875 -43.726562 39.660156 -32.457031 45.390625 -22.1875 C 51.128906 -11.925781 61.398438 -3.460938 76.203125 3.203125 C 91.003906 9.867188 111.003906 13.203125 136.203125 13.203125 C 161.398438 13.203125 188 7.867188 216 -2.796875 C 244 -13.460938 267.597656 -26.265625 286.796875 -41.203125 C 308.660156 -58.265625 319.59375 -73.195312 319.59375 -86 C 319.59375 -92.132812 316.394531 -95.929688 310 -97.390625 C 303.601562 -98.859375 300.269531 -100.53125 300 -102.40625 C 299.46875 -104.800781 301.46875 -105.863281 306 -105.59375 C 310.53125 -105.332031 314.265625 -104.398438 317.203125 -102.796875 C 329.203125 -96.398438 335.203125 -88.132812 335.203125 -78 C 335.203125 -63.0625 324.867188 -47.457031 304.203125 -31.1875 C 283.535156 -14.925781 257.46875 -2 226 7.59375 C 194.53125 17.195312 165.0625 22 137.59375 22 C 110.132812 22 87.867188 19.332031 70.796875 14 C 40.660156 4.664062 21.0625 -12.53125 12 -37.59375 C 9.601562 -44 8.40625 -50.132812 8.40625 -56 C 8.40625 -61.863281 9.46875 -69.128906 11.59375 -77.796875 C 13.726562 -86.460938 18.53125 -96.394531 26 -107.59375 C 33.46875 -118.800781 44.265625 -129.203125 58.390625 -138.796875 C 72.523438 -148.398438 87.660156 -155.535156 103.796875 -160.203125 C 119.929688 -164.867188 134.398438 -167.46875 147.203125 -168 C 133.867188 -172.800781 122.535156 -179.46875 113.203125 -188 C 103.867188 -196.53125 99.203125 -205.726562 99.203125 -215.59375 C 99.203125 -216.394531 99.203125 -217.195312 99.203125 -218 C 101.066406 -239.601562 113.195312 -259.003906 135.59375 -276.203125 C 158 -293.398438 181.46875 -305.265625 206 -311.796875 C 230.53125 -318.328125 251.726562 -321.59375 269.59375 -321.59375 C 275.195312 -321.59375 280.664062 -321.328125 286 -320.796875 C 308.132812 -318.128906 324 -312.59375 333.59375 -304.1875 C 343.195312 -295.789062 348 -287.328125 348 -278.796875 C 348 -266.796875 341.128906 -255.257812 327.390625 -244.1875 C 313.660156 -233.125 297.0625 -225.460938 277.59375 -221.203125 C 272.800781 -220.128906 268.867188 -219.59375 265.796875 -219.59375 C 262.734375 -219.59375 261.332031 -220.394531 261.59375 -222 C 262.664062 -225.195312 267.203125 -227.257812 275.203125 -228.1875 C 283.203125 -229.125 290.9375 -232.257812 298.40625 -237.59375 C 313.332031 -248.53125 321.863281 -262.664062 324 -280 C 324 -280.800781 324 -281.601562 324 -282.40625 C 324 -289.070312 320.800781 -295.203125 314.40625 -300.796875 C 306.40625 -308.265625 292.9375 -312 274 -312 C 255.0625 -312 235.457031 -309 215.1875 -303 C 194.925781 -297 176.265625 -287.066406 159.203125 -273.203125 C 138.929688 -256.671875 128.796875 -238.671875 128.796875 -219.203125 C 128.796875 -211.460938 131.128906 -204.394531 135.796875 -198 C 140.460938 -191.601562 147.257812 -186.867188 156.1875 -183.796875 C 165.125 -180.734375 174.128906 -178.132812 183.203125 -176 C 203.734375 -171.726562 214 -166.128906 214 -159.203125 C 214 -153.066406 208.265625 -150 196.796875 -150 Z M 196.796875 -150 "/></g></g><g style="fill:#1e40af;fill-opacity:1;"><g transform="translate(984.273548, 1402.250003)"><path style="stroke:none" d="M 44.796875 -77.203125 C 44.535156 -76.128906 43.335938 -72.457031 41.203125 -66.1875 C 39.066406 -59.925781 37.265625 -53.925781 35.796875 -48.1875 C 34.328125 -42.457031 33.59375 -36.726562 33.59375 -31 C 33.59375 -25.269531 34.925781 -19.9375 37.59375 -15 C 40.257812 -10.0625 44.53125 -7.59375 50.40625 -7.59375 C 60 -7.59375 69.328125 -14.0625 78.390625 -27 C 87.460938 -39.9375 97.066406 -56.40625 107.203125 -76.40625 C 109.335938 -80.132812 111.335938 -81.597656 113.203125 -80.796875 C 114.535156 -79.734375 114.800781 -78.332031 114 -76.59375 C 113.195312 -74.863281 111.53125 -71.128906 109 -65.390625 C 106.46875 -59.660156 104.597656 -55.660156 103.390625 -53.390625 C 102.191406 -51.128906 100.0625 -47.128906 97 -41.390625 C 93.9375 -35.660156 91.269531 -31.394531 89 -28.59375 C 86.726562 -25.800781 83.660156 -22.203125 79.796875 -17.796875 C 75.929688 -13.398438 72.265625 -10.132812 68.796875 -8 C 59.460938 -2.132812 50.660156 0.796875 42.390625 0.796875 C 34.128906 0.796875 27.734375 -1 23.203125 -4.59375 C 18.671875 -8.195312 15.9375 -12.066406 15 -16.203125 C 14.0625 -20.335938 13.59375 -24.003906 13.59375 -27.203125 C 13.59375 -30.398438 13.726562 -34.53125 14 -39.59375 C 14.800781 -48.132812 16.46875 -56.40625 19 -64.40625 C 21.53125 -72.40625 22.929688 -76.9375 23.203125 -78 C 29.335938 -100.132812 38.070312 -124.265625 49.40625 -150.390625 C 60.738281 -176.523438 70.335938 -196.191406 78.203125 -209.390625 C 86.066406 -222.597656 92.265625 -231.601562 96.796875 -236.40625 C 105.867188 -246 114.800781 -250.796875 123.59375 -250.796875 C 129.726562 -250.796875 133.863281 -246.394531 136 -237.59375 C 136.269531 -236 136.40625 -234 136.40625 -231.59375 C 136.40625 -222.53125 133.203125 -211.066406 126.796875 -197.203125 C 103.867188 -146.265625 76.535156 -106.265625 44.796875 -77.203125 Z M 48 -90 C 61.601562 -103.863281 75.070312 -121.328125 88.40625 -142.390625 C 101.738281 -163.460938 111.535156 -181.398438 117.796875 -196.203125 C 124.066406 -211.003906 127.203125 -221.070312 127.203125 -226.40625 C 127.203125 -231.738281 126.269531 -234.40625 124.40625 -234.40625 C 121.738281 -234.40625 116.671875 -229.132812 109.203125 -218.59375 C 101.734375 -208.0625 91.664062 -189.128906 79 -161.796875 C 66.332031 -134.460938 56 -110.53125 48 -90 Z M 48 -90 "/></g></g><g style="fill:#1e40af;fill-opacity:1;"><g transform="translate(1069.072865, 1402.250003)"><path style="stroke:none" d="M 212 -131.203125 C 179.46875 -73.335938 163.203125 -36.003906 163.203125 -19.203125 C 163.203125 -11.734375 165.734375 -8 170.796875 -8 C 177.203125 -8 184.535156 -12.800781 192.796875 -22.40625 C 205.328125 -37.601562 216.257812 -55.867188 225.59375 -77.203125 C 227.195312 -80.929688 228.796875 -82.394531 230.390625 -81.59375 C 231.992188 -80.800781 232.796875 -79.738281 232.796875 -78.40625 C 232.796875 -77.070312 231.460938 -73.738281 228.796875 -68.40625 C 226.128906 -63.070312 223.992188 -58.800781 222.390625 -55.59375 C 220.796875 -52.394531 217.265625 -46.257812 211.796875 -37.1875 C 206.328125 -28.125 201.660156 -21.457031 197.796875 -17.1875 C 193.929688 -12.925781 189 -8.726562 183 -4.59375 C 177 -0.46875 170.195312 1.59375 162.59375 1.59375 C 155 1.59375 148.535156 -2.132812 143.203125 -9.59375 C 140.796875 -13.0625 139.59375 -17.796875 139.59375 -23.796875 C 139.59375 -29.796875 140.925781 -37.0625 143.59375 -45.59375 C 146.257812 -54.132812 153.59375 -68.003906 165.59375 -87.203125 C 168.53125 -92.003906 170 -95.800781 170 -98.59375 C 170 -101.394531 167.796875 -102.796875 163.390625 -102.796875 C 158.992188 -102.796875 151.0625 -97.460938 139.59375 -86.796875 C 128.132812 -76.128906 116.070312 -61.726562 103.40625 -43.59375 C 90.738281 -25.46875 83.203125 -10.9375 80.796875 0 C 76.265625 0 72.929688 -1.863281 70.796875 -5.59375 C 68.660156 -9.332031 67.59375 -12.535156 67.59375 -15.203125 C 67.59375 -26.128906 74.925781 -46.925781 89.59375 -77.59375 C 94.394531 -87.726562 96.925781 -94.59375 97.1875 -98.1875 C 97.457031 -101.789062 96.992188 -103.660156 95.796875 -103.796875 C 94.597656 -103.929688 92.929688 -103.46875 90.796875 -102.40625 C 85.992188 -100 78.660156 -94.128906 68.796875 -84.796875 C 50.128906 -67.734375 31.726562 -41.734375 13.59375 -6.796875 C 12.257812 -3.867188 10.59375 -2.070312 8.59375 -1.40625 C 6.59375 -0.738281 2.660156 -0.269531 -3.203125 0 C -9.066406 0.269531 -12.929688 0.9375 -14.796875 2 C -9.992188 -7.332031 -1.59375 -24.800781 10.40625 -50.40625 C 32 -96.269531 46.394531 -122.664062 53.59375 -129.59375 C 56.800781 -132.800781 61.203125 -134.40625 66.796875 -134.40625 C 67.867188 -134.40625 70.601562 -134.003906 75 -133.203125 C 79.394531 -132.398438 82.660156 -132.265625 84.796875 -132.796875 C 74.929688 -127.460938 58.800781 -102.394531 36.40625 -57.59375 C 48.9375 -73.0625 57.929688 -83.195312 63.390625 -88 C 68.859375 -92.800781 72.925781 -96.398438 75.59375 -98.796875 C 78.257812 -101.203125 80.328125 -103.070312 81.796875 -104.40625 C 83.265625 -105.738281 85.398438 -107.671875 88.203125 -110.203125 C 91.003906 -112.734375 93.132812 -114.597656 94.59375 -115.796875 C 96.0625 -116.992188 98.128906 -118.660156 100.796875 -120.796875 C 103.460938 -122.929688 105.53125 -124.332031 107 -125 C 108.46875 -125.664062 110.46875 -126.796875 113 -128.390625 C 115.53125 -129.992188 117.394531 -130.796875 118.59375 -130.796875 C 119.800781 -130.796875 121.46875 -131.128906 123.59375 -131.796875 C 125.726562 -132.460938 127.195312 -132.265625 128 -131.203125 C 133.332031 -129.066406 136 -125.734375 136 -121.203125 C 136 -117.203125 131.460938 -106.929688 122.390625 -90.390625 C 113.328125 -73.859375 107.460938 -62.925781 104.796875 -57.59375 C 116.535156 -72.257812 127.738281 -84.328125 138.40625 -93.796875 C 149.070312 -103.265625 161.671875 -112 176.203125 -120 C 190.734375 -128 201.332031 -132 208 -132 C 209.601562 -132 210.9375 -131.734375 212 -131.203125 Z M 212 -131.203125 "/></g></g><g style="fill:#1e40af;fill-opacity:1;"><g transform="translate(1271.871313, 1402.250003)"><path style="stroke:none" d="M 40.40625 -61.59375 C 36.664062 -52.53125 34.796875 -42.398438 34.796875 -31.203125 C 34.796875 -23.734375 36.460938 -17.796875 39.796875 -13.390625 C 43.128906 -8.992188 47.863281 -6.796875 54 -6.796875 C 78.269531 -6.796875 100.269531 -29.597656 120 -75.203125 C 121.863281 -79.460938 124.128906 -81.328125 126.796875 -80.796875 C 127.867188 -80.535156 128.40625 -79.867188 128.40625 -78.796875 C 128.40625 -77.734375 125.40625 -70.734375 119.40625 -57.796875 C 113.40625 -44.867188 107.335938 -34.40625 101.203125 -26.40625 C 87.597656 -7.738281 70.796875 1.59375 50.796875 1.59375 C 40.128906 1.59375 31.0625 -1.867188 23.59375 -8.796875 C 16.132812 -15.734375 12.40625 -25.203125 12.40625 -37.203125 C 12.40625 -49.203125 15.269531 -61.929688 21 -75.390625 C 26.726562 -88.859375 34.523438 -101.394531 44.390625 -113 C 54.265625 -124.601562 65.601562 -133.070312 78.40625 -138.40625 C 84.53125 -141.070312 90.394531 -142.40625 96 -142.40625 C 101.601562 -142.40625 106.800781 -140.800781 111.59375 -137.59375 C 116.132812 -133.863281 118.40625 -129.734375 118.40625 -125.203125 C 118.40625 -109.203125 108.800781 -93.867188 89.59375 -79.203125 C 83.726562 -74.671875 75.460938 -70.601562 64.796875 -67 C 54.128906 -63.394531 46 -61.59375 40.40625 -61.59375 Z M 107.59375 -125.59375 C 107.59375 -130.925781 105.460938 -133.59375 101.203125 -133.59375 C 93.734375 -133.59375 82.398438 -124.394531 67.203125 -106 C 58.128906 -94.800781 50.128906 -82.269531 43.203125 -68.40625 C 47.734375 -68.40625 54.332031 -70.003906 63 -73.203125 C 71.664062 -76.398438 79.195312 -80.664062 85.59375 -86 C 100.257812 -98.53125 107.59375 -111.726562 107.59375 -125.59375 Z M 107.59375 -125.59375 "/></g></g><g style="fill:#1e40af;fill-opacity:1;"><g transform="translate(1370.270537, 1402.250003)"><path style="stroke:none" d="M 76.8125 -160.40625 C 76.8125 -148.40625 69.207031 -137.070312 54 -126.40625 C 59.332031 -126.132812 66.46875 -126 75.40625 -126 C 84.34375 -126 95.609375 -126.664062 109.203125 -128 C 109.734375 -127.195312 110 -125.0625 110 -121.59375 C 110 -118.132812 108.398438 -113.003906 105.203125 -106.203125 C 102.003906 -99.398438 99.140625 -93.53125 96.609375 -88.59375 C 94.078125 -83.664062 91.675781 -79 89.40625 -74.59375 C 87.132812 -70.195312 84.597656 -64.796875 81.796875 -58.390625 C 79.003906 -51.992188 76.675781 -46.128906 74.8125 -40.796875 C 68.144531 -20.535156 69.207031 -10.40625 78 -10.40625 C 89.207031 -10.40625 105.742188 -32.671875 127.609375 -77.203125 C 129.472656 -80.671875 131.003906 -82.003906 132.203125 -81.203125 C 133.398438 -80.398438 134 -79.398438 134 -78.203125 C 134 -77.003906 132.265625 -72.867188 128.796875 -65.796875 C 125.335938 -58.734375 121.609375 -51.46875 117.609375 -44 C 113.609375 -36.53125 107.34375 -27.863281 98.8125 -18 C 88.675781 -5.726562 78.941406 0.40625 69.609375 0.40625 C 59.203125 0.40625 52 -5.863281 48 -18.40625 C 47.207031 -20.800781 46.8125 -24.398438 46.8125 -29.203125 C 46.8125 -34.003906 48.34375 -40.40625 51.40625 -48.40625 C 54.46875 -56.40625 59.332031 -66.132812 66 -77.59375 C 72.664062 -89.0625 76.398438 -95.796875 77.203125 -97.796875 C 78.003906 -99.796875 78.40625 -101.726562 78.40625 -103.59375 C 78.40625 -111.863281 67.738281 -116.265625 46.40625 -116.796875 L 41.609375 -104 C 24.804688 -60 8.671875 -30.53125 -6.796875 -15.59375 C -9.460938 -13.195312 -10.796875 -14 -10.796875 -18 C -10.796875 -18.800781 -10.53125 -19.734375 -10 -20.796875 C 4.9375 -40.535156 17.867188 -63.867188 28.796875 -90.796875 C 39.734375 -117.734375 47.335938 -143.332031 51.609375 -167.59375 C 53.203125 -175.863281 56.929688 -180 62.796875 -180 C 68.671875 -180 72.941406 -176.265625 75.609375 -168.796875 C 76.410156 -166.398438 76.8125 -163.601562 76.8125 -160.40625 Z M 76.8125 -160.40625 "/></g></g></g></svg>