<svg xmlns="http://www.w3.org/2000/svg" xmlns:xlink="http://www.w3.org/1999/xlink" width="2380" zoomAndPan="magnify" viewBox="0 0 1784.88 1784.99993" height="2380" preserveAspectRatio="xMidYMid meet" version="1.2"><defs><clipPath id="fd877ba3dc"><path d="M 23 138 L 1755 138 L 1755 1669.710938 L 23 1669.710938 Z M 23 138 "/></clipPath></defs><g id="8376b43014"><g clip-rule="nonzero" clip-path="url(#fd877ba3dc)"><path style=" stroke:none;fill-rule:nonzero;fill:#1e40af;fill-opacity:1;" d="M 348.773438 885.445312 C 309.59375 885.445312 289.851562 933.128906 317.570312 960.847656 C 345.402344 988.566406 392.972656 968.828125 392.972656 929.644531 C 392.9375 905.222656 373.195312 885.445312 348.773438 885.445312 Z M 305.359375 851.808594 C 332.328125 836.710938 365.367188 836.710938 392.335938 851.808594 C 404.136719 822.289062 382.449219 788.089844 348.8125 788.089844 C 315.210938 788.089844 293.558594 822.289062 305.359375 851.808594 Z M 426.609375 886.117188 C 441.667969 913.089844 441.667969 946.203125 426.609375 973.097656 C 456.128906 984.894531 490.328125 963.320312 490.328125 929.683594 C 490.289062 895.96875 456.015625 874.429688 426.609375 886.117188 Z M 392.300781 1007.371094 C 365.328125 1022.542969 332.292969 1022.542969 305.320312 1007.371094 C 293.523438 1037 315.210938 1071.199219 348.734375 1071.199219 C 382.410156 1071.160156 404.097656 1037 392.300781 1007.371094 Z M 271.046875 973.058594 C 255.988281 946.203125 255.988281 913.050781 271.046875 886.082031 C 241.53125 874.394531 207.332031 895.96875 207.332031 929.605469 C 207.332031 963.28125 241.53125 984.859375 271.046875 973.058594 Z M 300.339844 757.074219 C 339.410156 732.539062 390.578125 741.15625 419.679688 776.703125 C 425.523438 721.789062 413.203125 676.691406 386.644531 655.226562 C 362.21875 635.484375 330.679688 633.464844 305.957031 651.707031 C 285.695312 666.6875 272.394531 695.230469 277.378906 735.910156 C 285.058594 742.242188 292.699219 749.246094 300.339844 757.074219 Z M 453.65625 838.546875 C 482.425781 841.730469 507.597656 858.285156 522.128906 882.296875 C 639.785156 835.585938 749.761719 745.648438 815.839844 638.820312 C 752.234375 574.355469 673.234375 497.714844 634.804688 414.03125 C 546.363281 465.3125 473.957031 541.464844 427.324219 632.5625 C 454.628906 663.054688 470.660156 711.449219 464.367188 778.125 C 553.667969 732.691406 614.949219 644.664062 624.914062 543.265625 C 626.074219 531.050781 637.125 522.023438 649.449219 523.1875 C 661.773438 524.460938 670.6875 535.398438 669.527344 547.722656 C 656.902344 675.453125 573.449219 784.71875 455.453125 831.316406 C 454.96875 833.753906 454.332031 836.1875 453.65625 838.546875 Z M 535.203125 925.375 C 537.335938 973.808594 501.640625 1015.199219 454.179688 1020.632812 C 635.628906 1168.554688 660.277344 1428.699219 634.167969 1649.441406 C 632.78125 1660.902344 623.117188 1669.292969 611.878906 1669.292969 L 347.050781 1669.292969 C 346.824219 1669.292969 346.636719 1669.292969 346.527344 1669.292969 C 334.425781 1668.996094 324.539062 1659.21875 324.539062 1646.894531 L 324.539062 1112.777344 C 302.25 1106.710938 283.109375 1092.289062 271.011719 1072.847656 C 191.484375 1117.011719 127.996094 1116.898438 85.628906 1095.660156 C 0.785156 1053.40625 0.148438 930.65625 101.4375 889.152344 C 15.320312 790.601562 111.101562 657.660156 231.714844 708.117188 C 237.785156 617.769531 321.316406 571.65625 390.988281 605.03125 C 443.019531 507.042969 522.429688 425.683594 619.183594 371.332031 C 604.949219 318.363281 610.570312 263.675781 650.085938 209.511719 C 650.425781 208.988281 650.722656 208.539062 651.0625 208.238281 L 651.0625 208.125 C 718.261719 128.828125 814.789062 115.867188 894.949219 193.253906 C 976.199219 115.417969 1087.261719 118.300781 1148.207031 212.46875 C 1185.25 269.820312 1192.480469 323.007812 1181.242188 372.679688 C 1276.164062 426.617188 1354.636719 507.117188 1406.03125 603.535156 C 1480.871094 553.414062 1583.65625 606.304688 1578.789062 710.777344 C 1704.386719 674.144531 1784.65625 817.046875 1688.054688 905.183594 C 1780.949219 956.054688 1771.097656 1072.511719 1688.054688 1109.257812 C 1646.550781 1127.722656 1587.179688 1125.175781 1516.792969 1080.902344 C 1505.742188 1095.023438 1490.6875 1105.734375 1473.492188 1111.390625 L 1473.492188 1646.855469 C 1473.492188 1656.933594 1466.898438 1662.589844 1466.898438 1662.664062 C 1462.554688 1667.007812 1457.125 1669.257812 1450.980469 1669.257812 L 1186.152344 1669.257812 C 1174.988281 1669.257812 1165.25 1660.867188 1163.863281 1649.402344 C 1137.753906 1429.074219 1162.363281 1168.929688 1343.324219 1020.929688 C 1293.320312 1017.523438 1255.1875 974.21875 1258.371094 923.578125 C 1134.683594 874.09375 1019.6875 780.859375 948.441406 669.273438 C 932.820312 685.640625 922.332031 703.359375 896.824219 703.359375 L 896.824219 703.246094 C 872.175781 703.246094 862.738281 687.964844 847.980469 672.046875 C 775.832031 783.40625 659.5625 876.753906 535.203125 925.375 Z M 432.753906 1061.085938 C 421.292969 1087.417969 397.804688 1107.160156 369.5625 1113.75 L 369.5625 1624.382812 L 591.6875 1624.382812 C 612.105469 1427.425781 589.480469 1195.074219 432.753906 1061.085938 Z M 257.335938 1029.246094 L 257.226562 1021.191406 C 207.519531 1023.101562 165.378906 984.558594 162.53125 935.078125 C 155.300781 931.480469 148.632812 927.660156 142.339844 923.613281 C 102.222656 931.78125 79.261719 953.355469 71.507812 977.441406 C 52.402344 1036.550781 120.691406 1109.707031 257.335938 1029.246094 Z M 171.785156 889.078125 C 187.515625 857.3125 220.628906 836.75 257.261719 838.097656 C 256.625 820.566406 261.082031 803.710938 269.25 789.363281 C 186.839844 702.5 109.226562 750.820312 113.574219 811.351562 C 115.820312 842.667969 139.042969 869.75 171.785156 889.078125 Z M 1444.648438 840.53125 C 1460.382812 840.53125 1475.214844 844.691406 1488.0625 851.769531 C 1499.863281 822.253906 1478.175781 788.054688 1444.648438 788.054688 C 1410.976562 788.054688 1389.324219 822.253906 1401.125 851.769531 C 1413.972656 844.691406 1428.84375 840.53125 1444.648438 840.53125 Z M 1522.375 886.117188 C 1537.472656 913.089844 1537.472656 946.203125 1522.375 973.097656 C 1551.894531 984.894531 1586.09375 963.320312 1586.09375 929.683594 C 1586.09375 895.96875 1551.890625 874.429688 1522.375 886.117188 Z M 1488.101562 1007.371094 C 1461.132812 1022.542969 1428.09375 1022.542969 1401.125 1007.371094 C 1389.324219 1037 1411.011719 1071.199219 1444.648438 1071.199219 C 1478.285156 1071.199219 1499.863281 1036.886719 1488.101562 1007.371094 Z M 1366.8125 973.058594 C 1351.714844 946.203125 1351.714844 913.050781 1366.8125 886.082031 C 1337.292969 874.394531 1303.09375 895.96875 1303.09375 929.605469 C 1303.132812 963.28125 1337.40625 984.859375 1366.8125 973.058594 Z M 1475.890625 898.40625 C 1448.058594 870.6875 1400.488281 890.425781 1400.488281 929.605469 C 1400.488281 968.789062 1448.058594 988.527344 1475.890625 960.808594 C 1493.082031 943.65625 1493.082031 915.636719 1475.890625 898.40625 Z M 1444.648438 743.179688 C 1463.867188 743.179688 1481.695312 749.132812 1496.453125 759.324219 C 1507.804688 749.023438 1519.191406 740.40625 1530.316406 733.289062 C 1539.757812 693.472656 1529.792969 663.542969 1511.214844 646.3125 C 1467.160156 605.519531 1381.796875 633.988281 1384.34375 765.765625 C 1400.488281 751.679688 1421.5 743.179688 1444.648438 743.179688 Z M 1526.082031 792.886719 C 1532.976562 806.371094 1536.683594 821.988281 1536.160156 838.132812 C 1574.929688 836.636719 1609.652344 859.785156 1624.074219 894.507812 C 1713.597656 850.535156 1694.570312 767.9375 1637.898438 752.429688 C 1598.828125 741.792969 1556.988281 764.941406 1526.082031 792.886719 Z M 1630.367188 940.769531 C 1624.636719 987.59375 1583.84375 1022.953125 1536.199219 1021.15625 L 1535.035156 1039.210938 C 1651.195312 1115.960938 1719.78125 1054.378906 1708.019531 996.320312 C 1702.925781 971.597656 1682.660156 947.476562 1643.664062 934.851562 C 1639.394531 936.949219 1634.9375 938.859375 1630.367188 940.769531 Z M 1428.429688 1114.6875 C 1399.214844 1109.480469 1374.601562 1090.265625 1361.941406 1063.933594 C 1208.101562 1198.371094 1186 1428.773438 1206.265625 1624.34375 L 1428.394531 1624.34375 L 1428.394531 1114.6875 Z M 1272.230469 880.910156 C 1288.261719 855.441406 1316.09375 838.847656 1347.296875 838.132812 C 1346.996094 836.222656 1346.660156 834.3125 1346.320312 832.515625 C 1226.753906 786.441406 1142.136719 676.652344 1129.402344 547.722656 C 1128.128906 535.398438 1137.15625 524.460938 1149.480469 523.1875 C 1161.804688 522.023438 1172.742188 531.050781 1174.015625 543.265625 C 1184.203125 646.910156 1248.03125 736.511719 1340.292969 781.011719 C 1336.695312 715.832031 1350.480469 668.335938 1372.765625 636.609375 C 1326.695312 544.875 1255 468.308594 1166.671875 416.167969 C 1129.8125 499.214844 1048.378906 570.757812 980.769531 636.722656 C 1045.71875 743.066406 1155.546875 833.453125 1272.230469 880.910156 Z M 704.886719 217.265625 C 698.183594 222.996094 691.703125 229.589844 685.558594 236.820312 C 599.441406 356.796875 736.613281 495.28125 835.167969 594.542969 C 854.796875 614.507812 877.308594 636.910156 894.839844 657.175781 L 896.75 658.449219 L 898.773438 657.175781 C 920.011719 632.640625 946.457031 607.28125 974.25 580.609375 C 1075.011719 483.96875 1195.628906 368.257812 1110.597656 236.707031 C 1074.074219 180.21875 1011.109375 166.398438 953.011719 203.894531 C 939.113281 212.921875 925.292969 225.019531 912.03125 240.300781 C 903.117188 250.714844 887.085938 251.015625 877.945312 240.527344 C 827.527344 182.242188 764.558594 165.574219 704.886719 217.265625 Z M 780.929688 1545.570312 L 836.554688 1545.570312 L 836.554688 1309.320312 L 686.195312 1309.320312 C 637.761719 1309.320312 612.703125 1250.285156 647.425781 1215.5625 C 648.289062 1214.703125 649.226562 1213.878906 650.085938 1213.015625 C 655.707031 1158.851562 684.0625 1110.457031 726.949219 1075.09375 C 760.402344 1047.488281 802.878906 1027.859375 850 1019.65625 C 838.765625 969.011719 900.980469 934.8125 937.691406 971.5625 C 950.238281 984.070312 955.746094 1002.464844 951.511719 1020.292969 C 997.285156 1028.796875 1038.378906 1048.238281 1070.96875 1075.09375 C 1113.855469 1110.457031 1142.210938 1158.890625 1147.832031 1213.015625 C 1147.945312 1213.351562 1166.636719 1227.550781 1166.636719 1254.445312 C 1166.636719 1284.597656 1141.988281 1309.359375 1111.722656 1309.359375 L 961.363281 1309.359375 L 961.363281 1545.609375 L 1016.988281 1545.609375 C 1043.847656 1545.609375 1065.722656 1567.59375 1065.722656 1594.453125 C 1065.722656 1617.191406 1068.792969 1639.066406 1049.804688 1655.511719 C 1041.113281 1663.488281 1029.539062 1668.359375 1016.988281 1668.359375 L 780.851562 1668.359375 C 754.109375 1668.359375 732.121094 1646.257812 732.121094 1619.511719 C 732.121094 1596.0625 729.160156 1577.371094 746.464844 1560.066406 L 746.464844 1559.953125 C 755.34375 1551.113281 767.554688 1545.570312 780.929688 1545.570312 Z M 881.578125 1545.570312 L 916.414062 1545.570312 L 916.414062 1309.320312 L 881.578125 1309.320312 Z M 1017.066406 1590.59375 L 780.929688 1590.59375 C 779.992188 1590.59375 779.019531 1591.007812 778.269531 1591.644531 C 777.519531 1592.394531 777.21875 1593.328125 777.21875 1594.414062 L 777.21875 1619.476562 C 777.21875 1621.722656 778.832031 1623.296875 780.929688 1623.296875 L 1017.066406 1623.296875 C 1019.199219 1623.296875 1020.886719 1621.496094 1020.886719 1619.476562 L 1020.886719 1594.414062 C 1020.886719 1592.316406 1019.085938 1590.59375 1017.066406 1590.59375 Z M 697.769531 1199.457031 L 1100.183594 1199.457031 C 1080.21875 1113.453125 990.167969 1060.449219 898.957031 1060.449219 C 807.75 1060.449219 717.734375 1113.414062 697.769531 1199.457031 Z M 1111.796875 1244.445312 L 686.195312 1244.445312 C 673.125 1244.445312 673.125 1264.410156 686.195312 1264.410156 L 1111.757812 1264.410156 C 1124.832031 1264.410156 1124.832031 1244.445312 1111.796875 1244.445312 Z M 905.890625 1003.324219 C 899.296875 996.621094 889.21875 1006.734375 895.8125 1013.402344 C 902.515625 1020.105469 912.59375 1010.03125 905.890625 1003.324219 Z M 905.890625 1003.324219 "/></g></g></svg>