<svg xmlns="http://www.w3.org/2000/svg" xmlns:xlink="http://www.w3.org/1999/xlink" width="2380" zoomAndPan="magnify" viewBox="0 0 1784.88 1784.99993" height="2380" preserveAspectRatio="xMidYMid meet" version="1.2"><defs><clipPath id="ff81fa0119"><path d="M 1293 970 L 1784.761719 970 L 1784.761719 1313 L 1293 1313 Z M 1293 970 "/></clipPath></defs><g id="cb9aefe9e5"><path style=" stroke:none;fill-rule:nonzero;fill:#1e40af;fill-opacity:1;" d="M 929.1875 394.125 C 928.316406 394.125 927.457031 394.039062 926.605469 393.871094 C 925.753906 393.699219 924.925781 393.449219 924.121094 393.117188 C 923.320312 392.785156 922.558594 392.375 921.835938 391.894531 C 921.113281 391.410156 920.445312 390.863281 919.828125 390.25 C 919.214844 389.632812 918.664062 388.964844 918.183594 388.242188 C 917.699219 387.519531 917.292969 386.757812 916.960938 385.957031 C 916.628906 385.152344 916.375 384.324219 916.207031 383.472656 C 916.039062 382.621094 915.953125 381.761719 915.953125 380.890625 L 915.855469 261 C 915.855469 260.132812 915.941406 259.269531 916.109375 258.417969 C 916.277344 257.566406 916.53125 256.738281 916.863281 255.9375 C 917.195312 255.132812 917.601562 254.371094 918.085938 253.648438 C 918.566406 252.925781 919.117188 252.257812 919.730469 251.644531 C 920.34375 251.027344 921.015625 250.480469 921.738281 249.996094 C 922.457031 249.515625 923.222656 249.105469 924.023438 248.773438 C 924.828125 248.441406 925.65625 248.191406 926.507812 248.019531 C 927.359375 247.851562 928.21875 247.765625 929.089844 247.765625 L 1012.191406 247.765625 L 1012.191406 196.652344 L 929.089844 196.652344 C 928.21875 196.652344 927.359375 196.570312 926.507812 196.398438 C 925.65625 196.230469 924.828125 195.976562 924.023438 195.644531 C 923.222656 195.3125 922.457031 194.90625 921.738281 194.421875 C 921.015625 193.941406 920.34375 193.390625 919.730469 192.777344 C 919.117188 192.164062 918.566406 191.496094 918.085938 190.773438 C 917.601562 190.050781 917.195312 189.285156 916.863281 188.484375 C 916.53125 187.679688 916.277344 186.855469 916.109375 186 C 915.941406 185.148438 915.855469 184.289062 915.855469 183.421875 L 915.855469 101.164062 L 864.753906 101.164062 L 864.753906 183.421875 C 864.753906 184.289062 864.667969 185.148438 864.496094 186 C 864.328125 186.855469 864.078125 187.679688 863.746094 188.484375 C 863.410156 189.285156 863.003906 190.050781 862.523438 190.773438 C 862.039062 191.496094 861.492188 192.164062 860.875 192.777344 C 860.261719 193.390625 859.59375 193.941406 858.871094 194.421875 C 858.148438 194.90625 857.386719 195.3125 856.582031 195.644531 C 855.78125 195.976562 854.953125 196.230469 854.101562 196.398438 C 853.25 196.570312 852.386719 196.652344 851.519531 196.652344 L 768.414062 196.652344 L 768.414062 247.757812 L 851.519531 247.757812 C 852.386719 247.757812 853.25 247.84375 854.101562 248.011719 C 854.953125 248.183594 855.78125 248.433594 856.582031 248.765625 C 857.386719 249.097656 858.148438 249.507812 858.871094 249.988281 C 859.59375 250.472656 860.261719 251.019531 860.875 251.636719 C 861.492188 252.25 862.039062 252.917969 862.523438 253.640625 C 863.003906 254.363281 863.410156 255.125 863.746094 255.929688 C 864.078125 256.730469 864.328125 257.558594 864.496094 258.410156 C 864.667969 259.261719 864.753906 260.125 864.753906 260.992188 L 864.847656 380.882812 C 864.847656 381.753906 864.761719 382.613281 864.59375 383.464844 C 864.421875 384.316406 864.171875 385.144531 863.839844 385.949219 C 863.507812 386.75 863.101562 387.511719 862.617188 388.234375 C 862.132812 388.957031 861.585938 389.625 860.972656 390.242188 C 860.355469 390.855469 859.6875 391.402344 858.964844 391.886719 C 858.242188 392.367188 857.480469 392.777344 856.679688 393.109375 C 855.875 393.441406 855.046875 393.691406 854.195312 393.863281 C 853.34375 394.03125 852.484375 394.117188 851.613281 394.117188 C 850.746094 394.117188 849.886719 394.03125 849.03125 393.863281 C 848.179688 393.691406 847.351562 393.441406 846.550781 393.109375 C 845.746094 392.777344 844.984375 392.367188 844.261719 391.886719 C 843.539062 391.402344 842.871094 390.855469 842.257812 390.242188 C 841.644531 389.625 841.09375 388.957031 840.613281 388.234375 C 840.128906 387.511719 839.722656 386.75 839.386719 385.949219 C 839.054688 385.144531 838.804688 384.316406 838.636719 383.464844 C 838.464844 382.613281 838.382812 381.753906 838.382812 380.882812 L 838.296875 274.207031 L 755.191406 274.207031 C 754.324219 274.207031 753.464844 274.121094 752.613281 273.953125 C 751.757812 273.78125 750.929688 273.53125 750.128906 273.199219 C 749.324219 272.867188 748.5625 272.460938 747.839844 271.976562 C 747.117188 271.492188 746.449219 270.945312 745.835938 270.332031 C 745.222656 269.714844 744.671875 269.046875 744.191406 268.324219 C 743.707031 267.601562 743.300781 266.839844 742.96875 266.039062 C 742.636719 265.234375 742.382812 264.40625 742.214844 263.554688 C 742.042969 262.703125 741.960938 261.84375 741.960938 260.972656 L 741.960938 183.421875 C 741.960938 182.550781 742.042969 181.691406 742.214844 180.839844 C 742.382812 179.984375 742.636719 179.160156 742.96875 178.355469 C 743.300781 177.554688 743.707031 176.789062 744.191406 176.066406 C 744.671875 175.347656 745.222656 174.675781 745.835938 174.0625 C 746.449219 173.449219 747.117188 172.898438 747.839844 172.417969 C 748.5625 171.933594 749.328125 171.527344 750.128906 171.195312 C 750.933594 170.863281 751.757812 170.609375 752.613281 170.441406 C 753.464844 170.273438 754.324219 170.1875 755.191406 170.1875 L 838.296875 170.1875 L 838.296875 87.929688 C 838.296875 87.0625 838.382812 86.199219 838.550781 85.347656 C 838.71875 84.496094 838.972656 83.667969 839.304688 82.867188 C 839.636719 82.0625 840.042969 81.300781 840.527344 80.578125 C 841.007812 79.855469 841.558594 79.1875 842.171875 78.574219 C 842.785156 77.960938 843.457031 77.410156 844.175781 76.925781 C 844.898438 76.445312 845.664062 76.039062 846.464844 75.703125 C 847.269531 75.371094 848.09375 75.121094 848.949219 74.953125 C 849.800781 74.78125 850.660156 74.699219 851.53125 74.699219 L 929.097656 74.699219 C 929.96875 74.699219 930.828125 74.78125 931.679688 74.953125 C 932.53125 75.121094 933.359375 75.371094 934.164062 75.703125 C 934.964844 76.039062 935.726562 76.445312 936.449219 76.925781 C 937.171875 77.410156 937.839844 77.960938 938.457031 78.574219 C 939.070312 79.1875 939.617188 79.855469 940.101562 80.578125 C 940.585938 81.300781 940.992188 82.0625 941.324219 82.867188 C 941.65625 83.667969 941.90625 84.496094 942.078125 85.347656 C 942.246094 86.199219 942.332031 87.0625 942.332031 87.929688 L 942.332031 170.1875 L 1025.433594 170.1875 C 1026.304688 170.1875 1027.164062 170.273438 1028.015625 170.441406 C 1028.867188 170.609375 1029.695312 170.863281 1030.5 171.195312 C 1031.300781 171.527344 1032.066406 171.933594 1032.785156 172.417969 C 1033.507812 172.898438 1034.179688 173.449219 1034.792969 174.0625 C 1035.40625 174.675781 1035.957031 175.347656 1036.4375 176.066406 C 1036.921875 176.789062 1037.328125 177.554688 1037.660156 178.355469 C 1037.992188 179.160156 1038.246094 179.984375 1038.414062 180.839844 C 1038.582031 181.691406 1038.667969 182.550781 1038.667969 183.421875 L 1038.667969 260.992188 C 1038.667969 261.859375 1038.582031 262.722656 1038.414062 263.574219 C 1038.246094 264.425781 1037.992188 265.253906 1037.660156 266.054688 C 1037.328125 266.859375 1036.921875 267.621094 1036.4375 268.34375 C 1035.957031 269.066406 1035.40625 269.734375 1034.792969 270.347656 C 1034.179688 270.964844 1033.507812 271.511719 1032.789062 271.996094 C 1032.066406 272.476562 1031.300781 272.886719 1030.5 273.21875 C 1029.695312 273.550781 1028.867188 273.800781 1028.015625 273.972656 C 1027.164062 274.140625 1026.304688 274.226562 1025.433594 274.226562 L 942.332031 274.226562 L 942.417969 380.882812 C 942.417969 381.753906 942.335938 382.613281 942.164062 383.464844 C 941.996094 384.316406 941.746094 385.144531 941.410156 385.949219 C 941.078125 386.75 940.671875 387.511719 940.1875 388.234375 C 939.707031 388.957031 939.15625 389.625 938.542969 390.242188 C 937.929688 390.855469 937.261719 391.402344 936.539062 391.886719 C 935.816406 392.367188 935.054688 392.777344 934.25 393.109375 C 933.449219 393.441406 932.621094 393.691406 931.769531 393.863281 C 930.914062 394.03125 930.054688 394.117188 929.1875 394.117188 Z M 929.1875 394.125 "/><path style=" stroke:none;fill-rule:nonzero;fill:#1e40af;fill-opacity:1;" d="M 1356.296875 880.894531 C 1354.65625 880.894531 1353.074219 880.601562 1351.542969 880.011719 C 1350.011719 879.421875 1348.636719 878.574219 1347.421875 877.472656 L 887.859375 461.683594 L 430.644531 873.140625 C 430.257812 873.488281 429.847656 873.8125 429.421875 874.113281 C 428.996094 874.414062 428.554688 874.691406 428.09375 874.9375 C 427.636719 875.1875 427.164062 875.410156 426.675781 875.601562 C 426.191406 875.792969 425.695312 875.957031 425.191406 876.089844 C 424.6875 876.226562 424.175781 876.328125 423.660156 876.402344 C 423.144531 876.476562 422.625 876.519531 422.101562 876.53125 C 421.578125 876.542969 421.058594 876.527344 420.539062 876.476562 C 420.019531 876.425781 419.503906 876.347656 418.992188 876.234375 C 418.484375 876.125 417.980469 875.984375 417.488281 875.816406 C 416.992188 875.644531 416.511719 875.445312 416.039062 875.21875 C 415.570312 874.992188 415.117188 874.738281 414.675781 874.457031 C 414.234375 874.175781 413.8125 873.871094 413.410156 873.539062 C 413.003906 873.210938 412.621094 872.855469 412.257812 872.480469 C 411.898438 872.105469 411.558594 871.707031 411.242188 871.292969 C 410.929688 870.875 410.640625 870.441406 410.375 869.992188 C 410.109375 869.539062 409.875 869.074219 409.664062 868.597656 L 380.226562 801.148438 C 379.949219 800.515625 379.722656 799.863281 379.546875 799.195312 C 379.375 798.527344 379.253906 797.851562 379.183594 797.164062 C 379.117188 796.476562 379.101562 795.789062 379.140625 795.097656 C 379.179688 794.410156 379.273438 793.726562 379.417969 793.050781 C 379.566406 792.378906 379.765625 791.71875 380.011719 791.074219 C 380.261719 790.429688 380.5625 789.808594 380.90625 789.210938 C 381.253906 788.613281 381.644531 788.046875 382.082031 787.511719 C 382.515625 786.976562 382.992188 786.476562 383.503906 786.015625 L 835.429688 379.445312 C 837.191406 377.847656 839.019531 376.332031 840.917969 374.902344 C 842.820312 373.472656 844.78125 372.136719 846.800781 370.886719 C 848.824219 369.636719 850.898438 368.484375 853.027344 367.425781 C 855.15625 366.367188 857.328125 365.40625 859.546875 364.550781 C 861.761719 363.691406 864.015625 362.933594 866.300781 362.285156 C 868.585938 361.632812 870.898438 361.085938 873.234375 360.648438 C 875.570312 360.207031 877.921875 359.875 880.285156 359.652344 C 882.652344 359.429688 885.023438 359.3125 887.402344 359.308594 C 889.777344 359.304688 892.152344 359.40625 894.519531 359.621094 C 896.886719 359.832031 899.238281 360.152344 901.578125 360.582031 C 903.914062 361.011719 906.230469 361.546875 908.519531 362.1875 C 910.808594 362.828125 913.0625 363.574219 915.28125 364.421875 C 917.503906 365.269531 919.679688 366.21875 921.8125 367.265625 C 923.945312 368.316406 926.027344 369.460938 928.054688 370.699219 C 930.082031 371.941406 932.050781 373.269531 933.957031 374.691406 C 935.859375 376.109375 937.699219 377.617188 939.464844 379.207031 L 1397.195312 798.632812 C 1397.734375 799.128906 1398.230469 799.664062 1398.679688 800.238281 C 1399.132812 800.816406 1399.53125 801.425781 1399.882812 802.066406 C 1400.230469 802.710938 1400.523438 803.378906 1400.765625 804.070312 C 1401.003906 804.761719 1401.183594 805.46875 1401.304688 806.1875 C 1401.425781 806.910156 1401.488281 807.636719 1401.488281 808.367188 C 1401.492188 809.097656 1401.433594 809.824219 1401.3125 810.546875 C 1401.191406 811.269531 1401.015625 811.976562 1400.777344 812.667969 C 1400.542969 813.359375 1400.25 814.027344 1399.902344 814.671875 L 1367.945312 873.941406 C 1367.378906 874.992188 1366.683594 875.949219 1365.855469 876.8125 C 1365.03125 877.671875 1364.105469 878.410156 1363.082031 879.023438 C 1362.054688 879.632812 1360.96875 880.097656 1359.816406 880.417969 C 1358.667969 880.734375 1357.496094 880.894531 1356.300781 880.894531 Z M 887.882812 430.625 C 889.523438 430.625 891.109375 430.917969 892.640625 431.507812 C 894.171875 432.097656 895.542969 432.945312 896.761719 434.046875 L 1352.660156 846.523438 L 1371.71875 811.183594 L 921.621094 398.75 C 920.460938 397.707031 919.25 396.71875 917.996094 395.789062 C 916.742188 394.855469 915.449219 393.984375 914.117188 393.167969 C 912.78125 392.355469 911.414062 391.605469 910.011719 390.917969 C 908.605469 390.230469 907.175781 389.609375 905.714844 389.054688 C 904.253906 388.5 902.773438 388.011719 901.265625 387.589844 C 899.761719 387.171875 898.242188 386.824219 896.703125 386.542969 C 895.167969 386.261719 893.621094 386.054688 892.0625 385.917969 C 890.507812 385.78125 888.949219 385.714844 887.386719 385.71875 C 885.824219 385.726562 884.265625 385.804688 882.710938 385.953125 C 881.15625 386.101562 879.609375 386.324219 878.074219 386.613281 C 876.539062 386.90625 875.023438 387.265625 873.519531 387.699219 C 872.019531 388.128906 870.539062 388.628906 869.082031 389.195312 C 867.628906 389.761719 866.203125 390.394531 864.804688 391.09375 C 863.40625 391.792969 862.042969 392.550781 860.714844 393.375 C 859.386719 394.199219 858.101562 395.082031 856.855469 396.023438 C 855.609375 396.964844 854.40625 397.964844 853.253906 399.015625 L 408.300781 799.308594 L 426.578125 841.191406 L 879.03125 434.023438 C 880.246094 432.929688 881.617188 432.089844 883.140625 431.503906 C 884.667969 430.917969 886.25 430.625 887.882812 430.625 Z M 887.882812 430.625 "/><path style=" stroke:none;fill-rule:nonzero;fill:#1e40af;fill-opacity:1;" d="M 1298.425781 1661.457031 C 1297.558594 1661.457031 1296.699219 1661.371094 1295.847656 1661.203125 C 1294.996094 1661.035156 1294.167969 1660.785156 1293.367188 1660.453125 C 1292.5625 1660.121094 1291.800781 1659.714844 1291.082031 1659.230469 C 1290.359375 1658.75 1289.691406 1658.203125 1289.074219 1657.589844 C 1288.460938 1656.976562 1287.914062 1656.308594 1287.429688 1655.585938 C 1286.945312 1654.867188 1286.539062 1654.105469 1286.207031 1653.304688 C 1285.871094 1652.503906 1285.621094 1651.675781 1285.449219 1650.824219 C 1285.28125 1649.976562 1285.191406 1649.117188 1285.191406 1648.246094 L 1283.703125 828.449219 C 1283.699219 827.582031 1283.78125 826.722656 1283.949219 825.867188 C 1284.117188 825.015625 1284.367188 824.1875 1284.699219 823.382812 C 1285.03125 822.582031 1285.4375 821.816406 1285.917969 821.09375 C 1286.398438 820.371094 1286.945312 819.699219 1287.558594 819.085938 C 1288.171875 818.46875 1288.839844 817.917969 1289.5625 817.433594 C 1290.285156 816.949219 1291.046875 816.542969 1291.847656 816.207031 C 1292.648438 815.875 1293.476562 815.621094 1294.328125 815.449219 C 1295.179688 815.277344 1296.042969 815.191406 1296.910156 815.191406 L 1296.933594 815.191406 C 1297.800781 815.191406 1298.664062 815.277344 1299.511719 815.445312 C 1300.363281 815.613281 1301.191406 815.863281 1301.992188 816.195312 C 1302.796875 816.527344 1303.558594 816.933594 1304.277344 817.417969 C 1305 817.898438 1305.667969 818.445312 1306.285156 819.058594 C 1306.898438 819.671875 1307.445312 820.339844 1307.929688 821.058594 C 1308.414062 821.78125 1308.820312 822.542969 1309.152344 823.34375 C 1309.488281 824.144531 1309.738281 824.972656 1309.910156 825.820312 C 1310.078125 826.671875 1310.167969 827.53125 1310.167969 828.402344 L 1311.65625 1648.207031 C 1311.660156 1649.078125 1311.578125 1649.9375 1311.410156 1650.789062 C 1311.242188 1651.644531 1310.992188 1652.472656 1310.660156 1653.273438 C 1310.328125 1654.078125 1309.921875 1654.839844 1309.441406 1655.566406 C 1308.960938 1656.289062 1308.414062 1656.957031 1307.800781 1657.574219 C 1307.1875 1658.1875 1306.519531 1658.738281 1305.796875 1659.222656 C 1305.074219 1659.707031 1304.3125 1660.117188 1303.511719 1660.449219 C 1302.710938 1660.785156 1301.882812 1661.035156 1301.03125 1661.207031 C 1300.179688 1661.378906 1299.316406 1661.464844 1298.449219 1661.46875 Z M 1298.425781 1661.457031 "/><path style=" stroke:none;fill-rule:nonzero;fill:#1e40af;fill-opacity:1;" d="M 478.445312 1661.457031 C 477.578125 1661.457031 476.714844 1661.371094 475.863281 1661.203125 C 475.011719 1661.03125 474.183594 1660.78125 473.382812 1660.449219 C 472.578125 1660.117188 471.816406 1659.710938 471.09375 1659.226562 C 470.371094 1658.742188 469.703125 1658.195312 469.089844 1657.582031 C 468.472656 1656.964844 467.925781 1656.296875 467.441406 1655.574219 C 466.960938 1654.851562 466.550781 1654.089844 466.21875 1653.289062 C 465.886719 1652.484375 465.636719 1651.65625 465.464844 1650.804688 C 465.296875 1649.953125 465.210938 1649.09375 465.210938 1648.222656 L 464.851562 831.230469 C 464.851562 830.363281 464.933594 829.503906 465.105469 828.652344 C 465.273438 827.796875 465.523438 826.972656 465.855469 826.167969 C 466.191406 825.367188 466.597656 824.601562 467.078125 823.878906 C 467.5625 823.15625 468.113281 822.488281 468.726562 821.875 C 469.339844 821.261719 470.007812 820.710938 470.730469 820.230469 C 471.453125 819.746094 472.214844 819.339844 473.019531 819.007812 C 473.820312 818.675781 474.648438 818.421875 475.5 818.253906 C 476.351562 818.085938 477.214844 818 478.082031 818 C 478.953125 818 479.8125 818.085938 480.664062 818.253906 C 481.515625 818.421875 482.34375 818.675781 483.148438 819.007812 C 483.949219 819.339844 484.710938 819.746094 485.433594 820.230469 C 486.15625 820.710938 486.824219 821.261719 487.441406 821.875 C 488.054688 822.488281 488.601562 823.15625 489.085938 823.878906 C 489.570312 824.601562 489.976562 825.367188 490.308594 826.167969 C 490.640625 826.972656 490.890625 827.796875 491.0625 828.652344 C 491.230469 829.503906 491.316406 830.363281 491.316406 831.230469 L 491.679688 1648.222656 C 491.679688 1649.09375 491.59375 1649.953125 491.425781 1650.804688 C 491.253906 1651.65625 491.003906 1652.484375 490.671875 1653.289062 C 490.339844 1654.089844 489.929688 1654.851562 489.449219 1655.574219 C 488.964844 1656.296875 488.417969 1656.964844 487.800781 1657.582031 C 487.1875 1658.195312 486.519531 1658.742188 485.796875 1659.226562 C 485.074219 1659.710938 484.3125 1660.117188 483.507812 1660.449219 C 482.707031 1660.78125 481.878906 1661.03125 481.027344 1661.203125 C 480.175781 1661.371094 479.3125 1661.457031 478.445312 1661.457031 Z M 478.445312 1661.457031 "/><path style=" stroke:none;fill-rule:nonzero;fill:#1e40af;fill-opacity:1;" d="M 696.78125 1658.53125 L 670.3125 1658.46875 L 670.339844 1646.949219 C 670.574219 1555.273438 671.15625 1447.023438 671.582031 1368 C 671.847656 1318.480469 672.078125 1275.714844 672.078125 1261.574219 C 672.078125 1191.941406 695.386719 1133.136719 739.488281 1091.519531 C 782.222656 1051.195312 842.539062 1030.183594 904.9375 1033.84375 C 964.617188 1037.308594 1015.0625 1059.320312 1050.796875 1097.5 C 1090.328125 1139.726562 1110.371094 1198.9375 1110.371094 1273.5 C 1110.371094 1302.476562 1110.34375 1495.710938 1110.324219 1646.105469 L 1083.855469 1646.105469 C 1083.878906 1495.710938 1083.902344 1302.480469 1083.902344 1273.5 C 1083.902344 1205.882812 1066.265625 1152.753906 1031.476562 1115.59375 C 1000.46875 1082.46875 956.175781 1063.335938 903.394531 1060.28125 C 848.222656 1057.019531 795.105469 1075.441406 757.65625 1110.785156 C 718.984375 1147.273438 698.546875 1199.421875 698.546875 1261.589844 C 698.546875 1275.800781 698.316406 1318.601562 698.046875 1368.15625 C 697.625 1447.175781 697.042969 1555.402344 696.804688 1647.042969 Z M 1047.765625 1650.589844 L 1021.296875 1650.589844 C 1021.320312 1499.582031 1021.347656 1302.761719 1021.347656 1273.492188 C 1021.347656 1178.125 980.441406 1127.398438 899.765625 1122.710938 C 861.675781 1120.523438 825.503906 1132.769531 800.585938 1156.265625 C 774.757812 1180.640625 761.101562 1217.054688 761.101562 1261.574219 C 761.101562 1275.542969 760.898438 1313.542969 760.617188 1366.136719 L 760.617188 1368.476562 C 760.222656 1442.140625 759.625 1553.472656 759.378906 1648.828125 L 732.914062 1648.765625 C 733.15625 1553.359375 733.753906 1442.011719 734.148438 1368.332031 L 734.148438 1365.996094 C 734.433594 1313.445312 734.632812 1275.480469 734.632812 1261.574219 C 734.632812 1209.589844 751.160156 1166.519531 782.425781 1137.015625 C 812.609375 1108.53125 855.929688 1093.683594 901.292969 1096.289062 C 995.773438 1101.777344 1047.8125 1164.707031 1047.8125 1273.492188 C 1047.8125 1302.75 1047.792969 1499.578125 1047.765625 1650.585938 Z M 1047.765625 1650.589844 "/><path style=" stroke:none;fill-rule:nonzero;fill:#1e40af;fill-opacity:1;" d="M 1751.578125 1710.394531 L 28.582031 1710.394531 C 27.714844 1710.394531 26.855469 1710.308594 26 1710.140625 C 25.148438 1709.972656 24.320312 1709.71875 23.519531 1709.386719 C 22.714844 1709.054688 21.953125 1708.648438 21.230469 1708.164062 C 20.507812 1707.683594 19.839844 1707.132812 19.226562 1706.519531 C 18.613281 1705.90625 18.0625 1705.238281 17.582031 1704.515625 C 17.097656 1703.792969 16.691406 1703.027344 16.359375 1702.226562 C 16.023438 1701.421875 15.773438 1700.597656 15.605469 1699.742188 C 15.433594 1698.890625 15.351562 1698.03125 15.351562 1697.164062 L 15.351562 1648.222656 C 15.351562 1647.355469 15.433594 1646.496094 15.605469 1645.640625 C 15.773438 1644.789062 16.023438 1643.960938 16.359375 1643.160156 C 16.691406 1642.355469 17.097656 1641.59375 17.582031 1640.871094 C 18.0625 1640.148438 18.613281 1639.480469 19.226562 1638.867188 C 19.839844 1638.253906 20.507812 1637.703125 21.230469 1637.222656 C 21.953125 1636.738281 22.714844 1636.332031 23.519531 1635.996094 C 24.320312 1635.664062 25.148438 1635.414062 26 1635.246094 C 26.855469 1635.074219 27.714844 1634.992188 28.582031 1634.992188 L 1751.578125 1634.992188 C 1752.449219 1634.992188 1753.308594 1635.074219 1754.160156 1635.246094 C 1755.011719 1635.414062 1755.839844 1635.664062 1756.644531 1635.996094 C 1757.445312 1636.332031 1758.207031 1636.738281 1758.929688 1637.222656 C 1759.652344 1637.703125 1760.320312 1638.253906 1760.9375 1638.867188 C 1761.550781 1639.480469 1762.097656 1640.148438 1762.582031 1640.871094 C 1763.066406 1641.59375 1763.472656 1642.355469 1763.804688 1643.160156 C 1764.136719 1643.960938 1764.386719 1644.789062 1764.558594 1645.640625 C 1764.726562 1646.496094 1764.8125 1647.355469 1764.8125 1648.222656 L 1764.8125 1697.164062 C 1764.8125 1698.03125 1764.726562 1698.890625 1764.558594 1699.742188 C 1764.386719 1700.597656 1764.136719 1701.421875 1763.804688 1702.226562 C 1763.472656 1703.027344 1763.066406 1703.792969 1762.582031 1704.515625 C 1762.097656 1705.238281 1761.550781 1705.90625 1760.9375 1706.519531 C 1760.320312 1707.132812 1759.652344 1707.683594 1758.929688 1708.164062 C 1758.207031 1708.648438 1757.445312 1709.054688 1756.644531 1709.386719 C 1755.839844 1709.71875 1755.011719 1709.972656 1754.160156 1710.140625 C 1753.308594 1710.308594 1752.449219 1710.394531 1751.578125 1710.394531 Z M 41.8125 1683.929688 L 1738.347656 1683.929688 L 1738.347656 1661.457031 L 41.816406 1661.457031 Z M 41.8125 1683.929688 "/><path style=" stroke:none;fill-rule:nonzero;fill:#1e40af;fill-opacity:1;" d="M 478.082031 1661.457031 L 122.25 1661.457031 C 121.378906 1661.457031 120.519531 1661.371094 119.667969 1661.203125 C 118.816406 1661.03125 117.988281 1660.78125 117.183594 1660.449219 C 116.382812 1660.117188 115.621094 1659.710938 114.898438 1659.226562 C 114.175781 1658.742188 113.507812 1658.195312 112.890625 1657.582031 C 112.277344 1656.964844 111.730469 1656.296875 111.246094 1655.574219 C 110.765625 1654.851562 110.355469 1654.089844 110.023438 1653.289062 C 109.691406 1652.484375 109.441406 1651.65625 109.269531 1650.804688 C 109.101562 1649.953125 109.015625 1649.09375 109.015625 1648.222656 L 109.015625 1251.75 C 109.015625 1250.878906 109.101562 1250.019531 109.269531 1249.167969 C 109.441406 1248.316406 109.691406 1247.488281 110.023438 1246.683594 C 110.355469 1245.882812 110.765625 1245.121094 111.246094 1244.398438 C 111.730469 1243.675781 112.277344 1243.007812 112.890625 1242.390625 C 113.507812 1241.777344 114.175781 1241.230469 114.898438 1240.746094 C 115.621094 1240.261719 116.382812 1239.855469 117.183594 1239.523438 C 117.988281 1239.191406 118.816406 1238.941406 119.667969 1238.769531 C 120.519531 1238.601562 121.378906 1238.515625 122.25 1238.515625 C 123.117188 1238.515625 123.980469 1238.601562 124.832031 1238.769531 C 125.683594 1238.941406 126.511719 1239.191406 127.3125 1239.523438 C 128.117188 1239.855469 128.878906 1240.261719 129.601562 1240.746094 C 130.324219 1241.230469 130.992188 1241.777344 131.605469 1242.390625 C 132.222656 1243.007812 132.769531 1243.675781 133.253906 1244.398438 C 133.734375 1245.121094 134.140625 1245.882812 134.476562 1246.683594 C 134.808594 1247.488281 135.058594 1248.316406 135.226562 1249.167969 C 135.398438 1250.019531 135.480469 1250.878906 135.480469 1251.75 L 135.480469 1634.976562 L 478.082031 1634.976562 C 478.953125 1634.976562 479.8125 1635.0625 480.664062 1635.230469 C 481.515625 1635.402344 482.34375 1635.652344 483.148438 1635.984375 C 483.949219 1636.316406 484.710938 1636.726562 485.433594 1637.207031 C 486.15625 1637.691406 486.824219 1638.238281 487.441406 1638.851562 C 488.054688 1639.46875 488.601562 1640.136719 489.085938 1640.859375 C 489.570312 1641.582031 489.976562 1642.34375 490.308594 1643.144531 C 490.640625 1643.949219 490.890625 1644.777344 491.0625 1645.628906 C 491.230469 1646.480469 491.316406 1647.339844 491.316406 1648.210938 C 491.316406 1649.078125 491.230469 1649.941406 491.0625 1650.792969 C 490.890625 1651.644531 490.640625 1652.472656 490.308594 1653.273438 C 489.976562 1654.078125 489.570312 1654.839844 489.085938 1655.5625 C 488.601562 1656.285156 488.054688 1656.953125 487.441406 1657.566406 C 486.824219 1658.183594 486.15625 1658.730469 485.433594 1659.214844 C 484.710938 1659.695312 483.949219 1660.101562 483.148438 1660.4375 C 482.34375 1660.769531 481.515625 1661.019531 480.664062 1661.1875 C 479.8125 1661.359375 478.953125 1661.445312 478.082031 1661.445312 Z M 478.082031 1661.457031 "/><path style=" stroke:none;fill-rule:nonzero;fill:#1e40af;fill-opacity:1;" d="M 377.738281 1548.855469 L 222.59375 1548.855469 C 221.726562 1548.855469 220.867188 1548.773438 220.015625 1548.601562 C 219.160156 1548.433594 218.335938 1548.183594 217.53125 1547.847656 C 216.730469 1547.515625 215.964844 1547.109375 215.242188 1546.625 C 214.519531 1546.144531 213.851562 1545.59375 213.238281 1544.980469 C 212.625 1544.367188 212.074219 1543.699219 211.59375 1542.976562 C 211.109375 1542.253906 210.703125 1541.492188 210.371094 1540.6875 C 210.039062 1539.886719 209.785156 1539.058594 209.617188 1538.207031 C 209.445312 1537.351562 209.363281 1536.492188 209.363281 1535.625 L 209.363281 1317.925781 C 209.363281 1317.054688 209.445312 1316.195312 209.617188 1315.34375 C 209.785156 1314.492188 210.039062 1313.664062 210.371094 1312.859375 C 210.703125 1312.058594 211.109375 1311.296875 211.59375 1310.574219 C 212.074219 1309.851562 212.625 1309.183594 213.238281 1308.566406 C 213.851562 1307.953125 214.519531 1307.40625 215.242188 1306.921875 C 215.964844 1306.4375 216.730469 1306.03125 217.53125 1305.699219 C 218.335938 1305.367188 219.160156 1305.117188 220.015625 1304.945312 C 220.867188 1304.777344 221.726562 1304.691406 222.59375 1304.691406 L 377.738281 1304.691406 C 378.605469 1304.691406 379.464844 1304.777344 380.320312 1304.945312 C 381.171875 1305.117188 382 1305.367188 382.800781 1305.699219 C 383.605469 1306.03125 384.367188 1306.4375 385.089844 1306.921875 C 385.8125 1307.40625 386.480469 1307.953125 387.09375 1308.566406 C 387.707031 1309.183594 388.257812 1309.851562 388.738281 1310.574219 C 389.222656 1311.296875 389.628906 1312.058594 389.960938 1312.859375 C 390.296875 1313.664062 390.546875 1314.492188 390.714844 1315.34375 C 390.886719 1316.195312 390.96875 1317.054688 390.96875 1317.925781 L 390.96875 1535.625 C 390.96875 1536.492188 390.886719 1537.351562 390.714844 1538.207031 C 390.546875 1539.058594 390.296875 1539.886719 389.960938 1540.6875 C 389.628906 1541.492188 389.222656 1542.253906 388.738281 1542.976562 C 388.257812 1543.699219 387.707031 1544.367188 387.09375 1544.980469 C 386.480469 1545.59375 385.8125 1546.144531 385.089844 1546.625 C 384.367188 1547.109375 383.605469 1547.515625 382.800781 1547.847656 C 381.996094 1548.183594 381.171875 1548.433594 380.320312 1548.601562 C 379.464844 1548.773438 378.605469 1548.855469 377.738281 1548.855469 Z M 235.828125 1522.390625 L 364.503906 1522.390625 L 364.503906 1331.15625 L 235.828125 1331.15625 Z M 235.828125 1522.390625 "/><path style=" stroke:none;fill-rule:nonzero;fill:#1e40af;fill-opacity:1;" d="M 300.28125 1538.964844 C 299.414062 1538.964844 298.554688 1538.878906 297.703125 1538.710938 C 296.851562 1538.539062 296.023438 1538.289062 295.222656 1537.957031 C 294.417969 1537.625 293.65625 1537.21875 292.933594 1536.738281 C 292.210938 1536.253906 291.542969 1535.707031 290.929688 1535.09375 C 290.316406 1534.480469 289.765625 1533.8125 289.285156 1533.089844 C 288.800781 1532.371094 288.394531 1531.609375 288.058594 1530.804688 C 287.726562 1530.003906 287.476562 1529.175781 287.304688 1528.328125 C 287.136719 1527.476562 287.050781 1526.613281 287.046875 1525.746094 L 286.816406 1327.828125 C 286.816406 1326.957031 286.902344 1326.097656 287.070312 1325.246094 C 287.238281 1324.390625 287.488281 1323.5625 287.820312 1322.757812 C 288.152344 1321.957031 288.558594 1321.191406 289.042969 1320.46875 C 289.523438 1319.746094 290.074219 1319.078125 290.6875 1318.460938 C 291.304688 1317.847656 291.972656 1317.296875 292.695312 1316.8125 C 293.417969 1316.328125 294.179688 1315.921875 294.984375 1315.589844 C 295.785156 1315.253906 296.613281 1315.003906 297.46875 1314.835938 C 298.320312 1314.664062 299.179688 1314.578125 300.050781 1314.578125 C 300.917969 1314.578125 301.777344 1314.664062 302.628906 1314.832031 C 303.480469 1315.003906 304.308594 1315.253906 305.113281 1315.585938 C 305.914062 1315.917969 306.675781 1316.324219 307.398438 1316.804688 C 308.121094 1317.289062 308.789062 1317.835938 309.402344 1318.449219 C 310.015625 1319.0625 310.566406 1319.730469 311.046875 1320.453125 C 311.53125 1321.171875 311.9375 1321.933594 312.273438 1322.738281 C 312.605469 1323.539062 312.855469 1324.367188 313.027344 1325.21875 C 313.199219 1326.070312 313.28125 1326.929688 313.285156 1327.796875 L 313.515625 1525.714844 C 313.515625 1526.582031 313.429688 1527.445312 313.261719 1528.296875 C 313.09375 1529.148438 312.84375 1529.976562 312.511719 1530.78125 C 312.179688 1531.582031 311.773438 1532.347656 311.292969 1533.070312 C 310.8125 1533.792969 310.261719 1534.460938 309.648438 1535.078125 C 309.035156 1535.691406 308.367188 1536.242188 307.644531 1536.726562 C 306.925781 1537.207031 306.164062 1537.617188 305.359375 1537.949219 C 304.558594 1538.285156 303.730469 1538.535156 302.878906 1538.707031 C 302.027344 1538.878906 301.164062 1538.960938 300.296875 1538.964844 Z M 300.28125 1538.964844 "/><path style=" stroke:none;fill-rule:nonzero;fill:#1e40af;fill-opacity:1;" d="M 223.734375 1440.117188 C 222.863281 1440.117188 222.003906 1440.035156 221.152344 1439.867188 C 220.300781 1439.695312 219.472656 1439.445312 218.667969 1439.113281 C 217.867188 1438.78125 217.101562 1438.375 216.378906 1437.894531 C 215.65625 1437.410156 214.988281 1436.863281 214.375 1436.25 C 213.757812 1435.636719 213.210938 1434.96875 212.726562 1434.246094 C 212.242188 1433.523438 211.835938 1432.761719 211.503906 1431.957031 C 211.167969 1431.15625 210.917969 1430.328125 210.746094 1429.476562 C 210.578125 1428.625 210.492188 1427.761719 210.492188 1426.894531 C 210.492188 1426.027344 210.574219 1425.164062 210.742188 1424.3125 C 210.914062 1423.460938 211.164062 1422.632812 211.496094 1421.828125 C 211.828125 1421.027344 212.234375 1420.265625 212.714844 1419.542969 C 213.199219 1418.820312 213.746094 1418.148438 214.359375 1417.535156 C 214.972656 1416.921875 215.640625 1416.371094 216.363281 1415.886719 C 217.085938 1415.40625 217.847656 1414.996094 218.652344 1414.664062 C 219.453125 1414.332031 220.28125 1414.078125 221.132812 1413.910156 C 221.984375 1413.738281 222.847656 1413.652344 223.714844 1413.652344 L 376.347656 1413.425781 L 376.367188 1413.425781 C 377.234375 1413.425781 378.09375 1413.507812 378.949219 1413.675781 C 379.800781 1413.847656 380.628906 1414.097656 381.429688 1414.429688 C 382.234375 1414.761719 382.996094 1415.167969 383.71875 1415.648438 C 384.441406 1416.132812 385.109375 1416.679688 385.726562 1417.292969 C 386.339844 1417.90625 386.890625 1418.574219 387.375 1419.296875 C 387.855469 1420.019531 388.265625 1420.78125 388.597656 1421.582031 C 388.929688 1422.386719 389.183594 1423.214844 389.351562 1424.066406 C 389.523438 1424.917969 389.609375 1425.777344 389.609375 1426.648438 C 389.609375 1427.515625 389.527344 1428.375 389.355469 1429.230469 C 389.1875 1430.082031 388.9375 1430.910156 388.605469 1431.710938 C 388.273438 1432.515625 387.867188 1433.277344 387.386719 1434 C 386.902344 1434.722656 386.355469 1435.390625 385.742188 1436.007812 C 385.128906 1436.621094 384.460938 1437.171875 383.738281 1437.65625 C 383.015625 1438.136719 382.253906 1438.546875 381.449219 1438.878906 C 380.648438 1439.210938 379.820312 1439.464844 378.96875 1439.632812 C 378.117188 1439.804688 377.257812 1439.890625 376.386719 1439.890625 L 223.746094 1440.117188 Z M 223.734375 1440.117188 "/><path style=" stroke:none;fill-rule:nonzero;fill:#1e40af;fill-opacity:1;" d="M 22.421875 1312.515625 C 21.605469 1312.515625 20.792969 1312.441406 19.992188 1312.289062 C 19.1875 1312.140625 18.402344 1311.917969 17.640625 1311.621094 C 16.878906 1311.324219 16.152344 1310.960938 15.457031 1310.53125 C 14.761719 1310.101562 14.113281 1309.609375 13.507812 1309.0625 C 12.902344 1308.507812 12.355469 1307.90625 11.863281 1307.253906 C 11.371094 1306.601562 10.941406 1305.910156 10.578125 1305.179688 C 10.214844 1304.449219 9.917969 1303.6875 9.695312 1302.902344 C 9.472656 1302.117188 9.324219 1301.316406 9.246094 1300.503906 L 0.585938 1206.914062 C 0.523438 1206.246094 0.511719 1205.574219 0.550781 1204.902344 C 0.59375 1204.234375 0.683594 1203.570312 0.824219 1202.910156 C 0.964844 1202.253906 1.15625 1201.609375 1.394531 1200.984375 C 1.636719 1200.355469 1.921875 1199.746094 2.253906 1199.164062 C 2.585938 1198.578125 2.960938 1198.023438 3.375 1197.496094 C 3.792969 1196.964844 4.246094 1196.472656 4.738281 1196.015625 C 5.230469 1195.558594 5.753906 1195.136719 6.308594 1194.757812 C 6.867188 1194.378906 7.445312 1194.046875 8.054688 1193.757812 L 472.558594 971.660156 C 473.34375 971.277344 474.15625 970.972656 475.003906 970.746094 C 475.847656 970.523438 476.707031 970.382812 477.582031 970.332031 C 478.453125 970.277344 479.324219 970.308594 480.191406 970.429688 C 481.058594 970.546875 481.902344 970.75 482.730469 971.035156 C 483.558594 971.324219 484.347656 971.6875 485.101562 972.132812 C 485.855469 972.574219 486.558594 973.089844 487.210938 973.671875 C 487.863281 974.253906 488.449219 974.894531 488.976562 975.597656 C 489.5 976.296875 489.953125 977.039062 490.328125 977.828125 C 490.707031 978.617188 491.003906 979.4375 491.21875 980.285156 C 491.433594 981.132812 491.5625 981.992188 491.609375 982.867188 C 491.652344 983.742188 491.609375 984.609375 491.480469 985.476562 C 491.355469 986.339844 491.140625 987.1875 490.847656 988.007812 C 490.550781 988.832031 490.175781 989.617188 489.726562 990.367188 C 489.273438 991.117188 488.753906 991.816406 488.164062 992.460938 C 487.574219 993.105469 486.925781 993.6875 486.222656 994.207031 C 485.515625 994.722656 484.765625 995.167969 483.972656 995.535156 L 27.789062 1213.660156 L 33.84375 1279.058594 L 472.683594 1067.117188 C 473.46875 1066.710938 474.289062 1066.382812 475.140625 1066.136719 C 475.992188 1065.890625 476.859375 1065.730469 477.742188 1065.660156 C 478.625 1065.589844 479.503906 1065.605469 480.386719 1065.714844 C 481.265625 1065.820312 482.125 1066.011719 482.964844 1066.289062 C 483.808594 1066.570312 484.613281 1066.929688 485.382812 1067.367188 C 486.152344 1067.808594 486.867188 1068.320312 487.535156 1068.90625 C 488.199219 1069.488281 488.800781 1070.136719 489.335938 1070.839844 C 489.875 1071.546875 490.335938 1072.296875 490.71875 1073.09375 C 491.105469 1073.894531 491.410156 1074.722656 491.628906 1075.578125 C 491.847656 1076.4375 491.976562 1077.308594 492.023438 1078.195312 C 492.066406 1079.078125 492.019531 1079.960938 491.886719 1080.835938 C 491.753906 1081.710938 491.535156 1082.566406 491.230469 1083.398438 C 490.929688 1084.230469 490.542969 1085.023438 490.078125 1085.777344 C 489.617188 1086.535156 489.082031 1087.234375 488.476562 1087.882812 C 487.871094 1088.53125 487.207031 1089.113281 486.488281 1089.625 C 485.765625 1090.140625 485 1090.578125 484.191406 1090.9375 L 28.179688 1311.191406 C 26.359375 1312.074219 24.441406 1312.515625 22.421875 1312.515625 Z M 22.421875 1312.515625 "/><path style=" stroke:none;fill-rule:nonzero;fill:#1e40af;fill-opacity:1;" d="M 1662.675781 1661.457031 L 1306.84375 1661.457031 C 1305.976562 1661.457031 1305.113281 1661.371094 1304.261719 1661.203125 C 1303.410156 1661.03125 1302.582031 1660.78125 1301.78125 1660.449219 C 1300.976562 1660.117188 1300.214844 1659.710938 1299.492188 1659.226562 C 1298.769531 1658.742188 1298.101562 1658.195312 1297.488281 1657.582031 C 1296.871094 1656.964844 1296.324219 1656.296875 1295.839844 1655.574219 C 1295.359375 1654.851562 1294.949219 1654.089844 1294.617188 1653.289062 C 1294.285156 1652.484375 1294.035156 1651.65625 1293.863281 1650.804688 C 1293.695312 1649.953125 1293.609375 1649.09375 1293.609375 1648.222656 C 1293.609375 1647.355469 1293.695312 1646.496094 1293.863281 1645.640625 C 1294.035156 1644.789062 1294.285156 1643.960938 1294.617188 1643.160156 C 1294.949219 1642.355469 1295.359375 1641.59375 1295.839844 1640.871094 C 1296.324219 1640.148438 1296.871094 1639.480469 1297.488281 1638.867188 C 1298.101562 1638.253906 1298.769531 1637.703125 1299.492188 1637.222656 C 1300.214844 1636.738281 1300.976562 1636.332031 1301.78125 1635.996094 C 1302.582031 1635.664062 1303.410156 1635.414062 1304.261719 1635.246094 C 1305.113281 1635.074219 1305.976562 1634.992188 1306.84375 1634.992188 L 1649.445312 1634.992188 L 1649.445312 1251.75 C 1649.445312 1250.878906 1649.527344 1250.019531 1649.699219 1249.167969 C 1649.867188 1248.316406 1650.117188 1247.488281 1650.453125 1246.683594 C 1650.785156 1245.882812 1651.191406 1245.121094 1651.675781 1244.398438 C 1652.15625 1243.675781 1652.707031 1243.007812 1653.320312 1242.390625 C 1653.933594 1241.777344 1654.601562 1241.230469 1655.324219 1240.746094 C 1656.046875 1240.261719 1656.808594 1239.855469 1657.613281 1239.523438 C 1658.414062 1239.191406 1659.242188 1238.941406 1660.09375 1238.769531 C 1660.949219 1238.601562 1661.808594 1238.515625 1662.675781 1238.515625 C 1663.546875 1238.515625 1664.40625 1238.601562 1665.257812 1238.769531 C 1666.109375 1238.941406 1666.9375 1239.191406 1667.742188 1239.523438 C 1668.542969 1239.855469 1669.304688 1240.261719 1670.027344 1240.746094 C 1670.75 1241.230469 1671.421875 1241.777344 1672.035156 1242.390625 C 1672.648438 1243.007812 1673.195312 1243.675781 1673.679688 1244.398438 C 1674.164062 1245.121094 1674.570312 1245.882812 1674.902344 1246.683594 C 1675.234375 1247.488281 1675.488281 1248.316406 1675.65625 1249.167969 C 1675.824219 1250.019531 1675.910156 1250.878906 1675.910156 1251.75 L 1675.910156 1648.210938 C 1675.910156 1649.078125 1675.828125 1649.941406 1675.660156 1650.792969 C 1675.488281 1651.648438 1675.238281 1652.476562 1674.90625 1653.277344 C 1674.574219 1654.082031 1674.167969 1654.84375 1673.683594 1655.570312 C 1673.203125 1656.292969 1672.652344 1656.960938 1672.039062 1657.574219 C 1671.425781 1658.191406 1670.757812 1658.742188 1670.035156 1659.222656 C 1669.3125 1659.707031 1668.546875 1660.113281 1667.746094 1660.449219 C 1666.941406 1660.78125 1666.113281 1661.03125 1665.261719 1661.203125 C 1664.40625 1661.371094 1663.546875 1661.457031 1662.675781 1661.457031 Z M 1662.675781 1661.457031 "/><path style=" stroke:none;fill-rule:nonzero;fill:#1e40af;fill-opacity:1;" d="M 1562.332031 1548.855469 L 1407.199219 1548.855469 C 1406.332031 1548.855469 1405.472656 1548.773438 1404.617188 1548.601562 C 1403.765625 1548.433594 1402.9375 1548.183594 1402.136719 1547.847656 C 1401.332031 1547.515625 1400.570312 1547.109375 1399.847656 1546.625 C 1399.125 1546.144531 1398.457031 1545.59375 1397.84375 1544.980469 C 1397.230469 1544.367188 1396.679688 1543.699219 1396.199219 1542.976562 C 1395.714844 1542.253906 1395.308594 1541.492188 1394.972656 1540.6875 C 1394.640625 1539.886719 1394.390625 1539.058594 1394.222656 1538.207031 C 1394.050781 1537.351562 1393.96875 1536.492188 1393.96875 1535.625 L 1393.96875 1317.925781 C 1393.96875 1317.054688 1394.050781 1316.195312 1394.222656 1315.34375 C 1394.390625 1314.492188 1394.640625 1313.664062 1394.976562 1312.859375 C 1395.308594 1312.058594 1395.714844 1311.296875 1396.199219 1310.574219 C 1396.679688 1309.851562 1397.230469 1309.183594 1397.84375 1308.566406 C 1398.457031 1307.953125 1399.125 1307.40625 1399.847656 1306.921875 C 1400.570312 1306.4375 1401.332031 1306.03125 1402.136719 1305.699219 C 1402.9375 1305.367188 1403.765625 1305.117188 1404.617188 1304.945312 C 1405.472656 1304.777344 1406.332031 1304.691406 1407.199219 1304.691406 L 1562.339844 1304.691406 C 1563.210938 1304.691406 1564.070312 1304.777344 1564.921875 1304.945312 C 1565.773438 1305.117188 1566.601562 1305.367188 1567.40625 1305.699219 C 1568.207031 1306.03125 1568.972656 1306.4375 1569.695312 1306.921875 C 1570.414062 1307.40625 1571.085938 1307.953125 1571.699219 1308.566406 C 1572.3125 1309.183594 1572.863281 1309.851562 1573.34375 1310.574219 C 1573.828125 1311.296875 1574.234375 1312.058594 1574.566406 1312.859375 C 1574.898438 1313.664062 1575.152344 1314.492188 1575.320312 1315.34375 C 1575.488281 1316.195312 1575.574219 1317.054688 1575.574219 1317.925781 L 1575.574219 1535.625 C 1575.574219 1536.492188 1575.488281 1537.355469 1575.320312 1538.207031 C 1575.152344 1539.058594 1574.898438 1539.886719 1574.566406 1540.691406 C 1574.234375 1541.492188 1573.824219 1542.257812 1573.34375 1542.980469 C 1572.859375 1543.703125 1572.308594 1544.371094 1571.695312 1544.984375 C 1571.078125 1545.597656 1570.410156 1546.148438 1569.6875 1546.628906 C 1568.964844 1547.113281 1568.203125 1547.519531 1567.398438 1547.851562 C 1566.59375 1548.183594 1565.765625 1548.433594 1564.914062 1548.605469 C 1564.0625 1548.773438 1563.199219 1548.859375 1562.332031 1548.855469 Z M 1420.433594 1522.390625 L 1549.109375 1522.390625 L 1549.109375 1331.15625 L 1420.433594 1331.15625 Z M 1420.433594 1522.390625 "/><path style=" stroke:none;fill-rule:nonzero;fill:#1e40af;fill-opacity:1;" d="M 1484.644531 1538.964844 L 1484.628906 1538.964844 C 1483.761719 1538.964844 1482.898438 1538.878906 1482.046875 1538.707031 C 1481.195312 1538.535156 1480.371094 1538.285156 1479.566406 1537.949219 C 1478.765625 1537.617188 1478.003906 1537.207031 1477.28125 1536.726562 C 1476.558594 1536.242188 1475.890625 1535.691406 1475.277344 1535.078125 C 1474.664062 1534.460938 1474.117188 1533.792969 1473.632812 1533.070312 C 1473.152344 1532.347656 1472.746094 1531.582031 1472.414062 1530.78125 C 1472.082031 1529.976562 1471.832031 1529.148438 1471.664062 1528.296875 C 1471.496094 1527.445312 1471.410156 1526.585938 1471.414062 1525.714844 L 1471.640625 1327.796875 C 1471.644531 1326.929688 1471.730469 1326.070312 1471.898438 1325.21875 C 1472.070312 1324.367188 1472.320312 1323.539062 1472.65625 1322.738281 C 1472.988281 1321.9375 1473.394531 1321.175781 1473.878906 1320.453125 C 1474.359375 1319.730469 1474.910156 1319.0625 1475.523438 1318.449219 C 1476.136719 1317.835938 1476.804688 1317.289062 1477.527344 1316.804688 C 1478.25 1316.324219 1479.011719 1315.917969 1479.816406 1315.585938 C 1480.617188 1315.253906 1481.445312 1315.003906 1482.296875 1314.832031 C 1483.148438 1314.664062 1484.007812 1314.578125 1484.875 1314.578125 C 1485.746094 1314.578125 1486.605469 1314.664062 1487.457031 1314.835938 C 1488.3125 1315.003906 1489.140625 1315.253906 1489.941406 1315.589844 C 1490.746094 1315.921875 1491.507812 1316.328125 1492.230469 1316.8125 C 1492.957031 1317.296875 1493.625 1317.847656 1494.238281 1318.460938 C 1494.851562 1319.078125 1495.402344 1319.746094 1495.882812 1320.46875 C 1496.367188 1321.191406 1496.773438 1321.957031 1497.105469 1322.757812 C 1497.4375 1323.5625 1497.6875 1324.390625 1497.855469 1325.246094 C 1498.027344 1326.097656 1498.109375 1326.960938 1498.109375 1327.828125 L 1497.878906 1525.746094 C 1497.878906 1526.613281 1497.792969 1527.476562 1497.621094 1528.328125 C 1497.449219 1529.179688 1497.199219 1530.003906 1496.867188 1530.804688 C 1496.535156 1531.609375 1496.125 1532.371094 1495.640625 1533.089844 C 1495.160156 1533.8125 1494.609375 1534.480469 1493.996094 1535.09375 C 1493.382812 1535.707031 1492.714844 1536.253906 1491.992188 1536.738281 C 1491.269531 1537.21875 1490.507812 1537.625 1489.707031 1537.957031 C 1488.902344 1538.289062 1488.078125 1538.539062 1487.226562 1538.710938 C 1486.375 1538.878906 1485.511719 1538.964844 1484.644531 1538.964844 Z M 1484.644531 1538.964844 "/><path style=" stroke:none;fill-rule:nonzero;fill:#1e40af;fill-opacity:1;" d="M 1561.191406 1440.117188 L 1561.175781 1440.117188 L 1408.535156 1439.890625 C 1407.667969 1439.890625 1406.808594 1439.804688 1405.957031 1439.636719 C 1405.101562 1439.464844 1404.277344 1439.214844 1403.472656 1438.878906 C 1402.671875 1438.546875 1401.910156 1438.140625 1401.1875 1437.65625 C 1400.464844 1437.171875 1399.796875 1436.625 1399.183594 1436.007812 C 1398.566406 1435.394531 1398.019531 1434.726562 1397.539062 1434.003906 C 1397.054688 1433.277344 1396.648438 1432.515625 1396.316406 1431.714844 C 1395.984375 1430.910156 1395.734375 1430.082031 1395.566406 1429.230469 C 1395.398438 1428.378906 1395.3125 1427.515625 1395.3125 1426.648438 C 1395.3125 1425.78125 1395.398438 1424.917969 1395.570312 1424.066406 C 1395.738281 1423.214844 1395.992188 1422.386719 1396.324219 1421.585938 C 1396.65625 1420.78125 1397.066406 1420.019531 1397.546875 1419.296875 C 1398.03125 1418.574219 1398.582031 1417.90625 1399.195312 1417.292969 C 1399.808594 1416.679688 1400.480469 1416.132812 1401.203125 1415.648438 C 1401.925781 1415.167969 1402.6875 1414.761719 1403.492188 1414.429688 C 1404.292969 1414.097656 1405.121094 1413.847656 1405.972656 1413.675781 C 1406.824219 1413.507812 1407.6875 1413.425781 1408.554688 1413.425781 L 1408.578125 1413.425781 L 1561.210938 1413.652344 C 1562.082031 1413.652344 1562.941406 1413.738281 1563.792969 1413.910156 C 1564.644531 1414.078125 1565.472656 1414.328125 1566.273438 1414.664062 C 1567.078125 1414.996094 1567.839844 1415.40625 1568.5625 1415.886719 C 1569.285156 1416.371094 1569.953125 1416.921875 1570.566406 1417.535156 C 1571.179688 1418.148438 1571.726562 1418.816406 1572.210938 1419.542969 C 1572.691406 1420.265625 1573.097656 1421.027344 1573.429688 1421.828125 C 1573.761719 1422.632812 1574.015625 1423.460938 1574.183594 1424.3125 C 1574.351562 1425.164062 1574.4375 1426.027344 1574.433594 1426.894531 C 1574.433594 1427.761719 1574.347656 1428.625 1574.179688 1429.476562 C 1574.007812 1430.328125 1573.757812 1431.15625 1573.425781 1431.957031 C 1573.089844 1432.761719 1572.683594 1433.523438 1572.199219 1434.246094 C 1571.714844 1434.96875 1571.167969 1435.636719 1570.554688 1436.25 C 1569.9375 1436.863281 1569.269531 1437.410156 1568.546875 1437.894531 C 1567.824219 1438.375 1567.0625 1438.78125 1566.257812 1439.113281 C 1565.453125 1439.445312 1564.628906 1439.695312 1563.773438 1439.867188 C 1562.921875 1440.035156 1562.0625 1440.117188 1561.191406 1440.117188 Z M 1561.191406 1440.117188 "/><g clip-rule="nonzero" clip-path="url(#ff81fa0119)"><path style=" stroke:none;fill-rule:nonzero;fill:#1e40af;fill-opacity:1;" d="M 1762.503906 1312.515625 C 1760.484375 1312.515625 1758.566406 1312.074219 1756.75 1311.191406 L 1300.726562 1090.953125 C 1299.972656 1090.558594 1299.257812 1090.097656 1298.59375 1089.566406 C 1297.925781 1089.035156 1297.316406 1088.445312 1296.761719 1087.796875 C 1296.207031 1087.148438 1295.722656 1086.453125 1295.304688 1085.707031 C 1294.886719 1084.964844 1294.542969 1084.191406 1294.273438 1083.382812 C 1294.003906 1082.570312 1293.816406 1081.746094 1293.707031 1080.898438 C 1293.597656 1080.054688 1293.570312 1079.207031 1293.625 1078.355469 C 1293.679688 1077.503906 1293.816406 1076.667969 1294.035156 1075.839844 C 1294.25 1075.015625 1294.546875 1074.222656 1294.917969 1073.453125 C 1295.289062 1072.683594 1295.730469 1071.960938 1296.238281 1071.277344 C 1296.75 1070.597656 1297.324219 1069.96875 1297.953125 1069.398438 C 1298.585938 1068.824219 1299.269531 1068.320312 1300 1067.878906 C 1300.730469 1067.4375 1301.492188 1067.070312 1302.296875 1066.78125 C 1303.097656 1066.488281 1303.917969 1066.273438 1304.757812 1066.140625 C 1305.601562 1066.007812 1306.449219 1065.957031 1307.300781 1065.984375 C 1308.152344 1066.015625 1308.992188 1066.128906 1309.824219 1066.320312 C 1310.65625 1066.511719 1311.460938 1066.785156 1312.238281 1067.132812 L 1751.085938 1279.074219 L 1757.140625 1213.671875 L 1300.953125 995.535156 C 1300.160156 995.167969 1299.40625 994.726562 1298.699219 994.210938 C 1297.988281 993.695312 1297.339844 993.113281 1296.746094 992.46875 C 1296.152344 991.820312 1295.628906 991.125 1295.175781 990.375 C 1294.722656 989.625 1294.34375 988.835938 1294.046875 988.011719 C 1293.75 987.1875 1293.535156 986.339844 1293.40625 985.472656 C 1293.277344 984.605469 1293.234375 983.734375 1293.277344 982.859375 C 1293.320312 981.984375 1293.449219 981.121094 1293.664062 980.273438 C 1293.878906 979.421875 1294.175781 978.601562 1294.554688 977.808594 C 1294.933594 977.019531 1295.386719 976.273438 1295.910156 975.570312 C 1296.4375 974.871094 1297.027344 974.230469 1297.683594 973.644531 C 1298.335938 973.0625 1299.042969 972.546875 1299.796875 972.105469 C 1300.554688 971.660156 1301.347656 971.296875 1302.175781 971.007812 C 1303.003906 970.722656 1303.855469 970.523438 1304.722656 970.40625 C 1305.589844 970.285156 1306.464844 970.257812 1307.339844 970.3125 C 1308.214844 970.367188 1309.074219 970.507812 1309.921875 970.738281 C 1310.769531 970.964844 1311.585938 971.273438 1312.371094 971.660156 L 1776.871094 1193.757812 C 1777.480469 1194.046875 1778.058594 1194.378906 1778.617188 1194.757812 C 1779.171875 1195.136719 1779.695312 1195.558594 1780.1875 1196.015625 C 1780.679688 1196.472656 1781.132812 1196.964844 1781.550781 1197.496094 C 1781.96875 1198.023438 1782.339844 1198.578125 1782.671875 1199.164062 C 1783.003906 1199.746094 1783.289062 1200.355469 1783.53125 1200.984375 C 1783.769531 1201.609375 1783.960938 1202.253906 1784.101562 1202.910156 C 1784.242188 1203.570312 1784.335938 1204.234375 1784.375 1204.90625 C 1784.414062 1205.574219 1784.402344 1206.246094 1784.339844 1206.914062 L 1775.683594 1300.492188 C 1775.605469 1301.304688 1775.457031 1302.105469 1775.234375 1302.890625 C 1775.011719 1303.679688 1774.714844 1304.4375 1774.351562 1305.167969 C 1773.988281 1305.902344 1773.558594 1306.59375 1773.066406 1307.246094 C 1772.574219 1307.898438 1772.023438 1308.5 1771.421875 1309.050781 C 1770.816406 1309.601562 1770.167969 1310.09375 1769.472656 1310.523438 C 1768.777344 1310.953125 1768.046875 1311.316406 1767.285156 1311.609375 C 1766.523438 1311.90625 1765.738281 1312.128906 1764.9375 1312.277344 C 1764.132812 1312.429688 1763.320312 1312.503906 1762.503906 1312.503906 Z M 1762.503906 1312.515625 "/></g><path style=" stroke:none;fill-rule:nonzero;fill:#1e40af;fill-opacity:1;" d="M 890.316406 902.554688 C 888.441406 902.554688 886.570312 902.511719 884.695312 902.417969 C 882.824219 902.324219 880.953125 902.1875 879.089844 902.003906 C 877.222656 901.820312 875.363281 901.589844 873.507812 901.316406 C 871.652344 901.039062 869.804688 900.71875 867.964844 900.355469 C 866.125 899.988281 864.296875 899.578125 862.480469 899.121094 C 860.660156 898.667969 858.851562 898.167969 857.058594 897.621094 C 855.265625 897.078125 853.484375 896.488281 851.71875 895.859375 C 849.953125 895.226562 848.203125 894.550781 846.472656 893.835938 C 844.738281 893.117188 843.027344 892.355469 841.332031 891.554688 C 839.636719 890.753906 837.960938 889.910156 836.308594 889.027344 C 834.65625 888.144531 833.023438 887.21875 831.414062 886.253906 C 829.808594 885.292969 828.222656 884.289062 826.664062 883.246094 C 825.105469 882.203125 823.574219 881.125 822.066406 880.007812 C 820.558594 878.890625 819.082031 877.738281 817.632812 876.546875 C 816.183594 875.359375 814.765625 874.132812 813.375 872.875 C 811.984375 871.617188 810.628906 870.324219 809.300781 868.996094 C 807.976562 867.671875 806.683594 866.3125 805.425781 864.925781 C 804.164062 863.535156 802.941406 862.117188 801.75 860.667969 C 800.5625 859.21875 799.410156 857.738281 798.292969 856.234375 C 797.175781 854.726562 796.09375 853.195312 795.054688 851.636719 C 794.011719 850.078125 793.007812 848.492188 792.042969 846.882812 C 791.082031 845.277344 790.15625 843.644531 789.273438 841.992188 C 788.390625 840.335938 787.546875 838.664062 786.746094 836.96875 C 785.941406 835.273438 785.183594 833.558594 784.464844 831.828125 C 783.746094 830.09375 783.074219 828.347656 782.441406 826.582031 C 781.808594 824.816406 781.222656 823.035156 780.675781 821.242188 C 780.132812 819.445312 779.632812 817.640625 779.179688 815.820312 C 778.722656 814 778.3125 812.171875 777.945312 810.332031 C 777.578125 808.496094 777.257812 806.648438 776.984375 804.792969 C 776.710938 802.9375 776.480469 801.078125 776.296875 799.210938 C 776.113281 797.347656 775.972656 795.476562 775.882812 793.601562 C 775.789062 791.730469 775.742188 789.855469 775.742188 787.980469 C 775.742188 786.105469 775.789062 784.234375 775.882812 782.359375 C 775.972656 780.488281 776.113281 778.617188 776.296875 776.75 C 776.480469 774.886719 776.710938 773.023438 776.984375 771.171875 C 777.257812 769.316406 777.578125 767.46875 777.945312 765.628906 C 778.3125 763.789062 778.722656 761.960938 779.179688 760.140625 C 779.632812 758.324219 780.132812 756.515625 780.675781 754.722656 C 781.222656 752.929688 781.808594 751.148438 782.441406 749.382812 C 783.074219 747.617188 783.746094 745.867188 784.464844 744.136719 C 785.183594 742.402344 785.941406 740.691406 786.746094 738.996094 C 787.546875 737.300781 788.390625 735.625 789.273438 733.972656 C 790.15625 732.316406 791.082031 730.6875 792.042969 729.078125 C 793.007812 727.46875 794.011719 725.886719 795.054688 724.328125 C 796.09375 722.769531 797.175781 721.234375 798.292969 719.730469 C 799.410156 718.222656 800.5625 716.746094 801.75 715.296875 C 802.941406 713.847656 804.164062 712.425781 805.425781 711.039062 C 806.683594 709.648438 807.976562 708.292969 809.300781 706.964844 C 810.628906 705.640625 811.984375 704.347656 813.375 703.085938 C 814.765625 701.828125 816.183594 700.605469 817.632812 699.414062 C 819.082031 698.226562 820.558594 697.070312 822.066406 695.953125 C 823.574219 694.835938 825.105469 693.757812 826.664062 692.714844 C 828.222656 691.675781 829.808594 690.671875 831.414062 689.707031 C 833.023438 688.742188 834.65625 687.820312 836.308594 686.9375 C 837.960938 686.050781 839.636719 685.210938 841.332031 684.40625 C 843.027344 683.605469 844.738281 682.847656 846.472656 682.128906 C 848.203125 681.410156 849.953125 680.738281 851.71875 680.105469 C 853.484375 679.472656 855.265625 678.886719 857.058594 678.339844 C 858.851562 677.796875 860.660156 677.296875 862.480469 676.839844 C 864.296875 676.386719 866.125 675.976562 867.964844 675.609375 C 869.804688 675.242188 871.652344 674.921875 873.507812 674.648438 C 875.363281 674.371094 877.222656 674.144531 879.089844 673.960938 C 880.953125 673.773438 882.824219 673.636719 884.695312 673.546875 C 886.570312 673.453125 888.441406 673.40625 890.316406 673.40625 C 892.191406 673.40625 894.066406 673.453125 895.941406 673.546875 C 897.8125 673.636719 899.683594 673.773438 901.546875 673.960938 C 903.414062 674.144531 905.273438 674.371094 907.128906 674.648438 C 908.984375 674.921875 910.832031 675.242188 912.671875 675.609375 C 914.507812 675.976562 916.339844 676.386719 918.15625 676.839844 C 919.976562 677.296875 921.78125 677.796875 923.578125 678.339844 C 925.371094 678.886719 927.152344 679.472656 928.917969 680.105469 C 930.683594 680.738281 932.429688 681.410156 934.164062 682.128906 C 935.894531 682.847656 937.609375 683.605469 939.304688 684.40625 C 941 685.210938 942.675781 686.050781 944.328125 686.9375 C 945.980469 687.820312 947.613281 688.742188 949.222656 689.707031 C 950.828125 690.671875 952.414062 691.675781 953.972656 692.714844 C 955.53125 693.757812 957.0625 694.835938 958.570312 695.953125 C 960.074219 697.070312 961.554688 698.226562 963.003906 699.414062 C 964.453125 700.605469 965.871094 701.828125 967.261719 703.085938 C 968.652344 704.347656 970.007812 705.640625 971.335938 706.964844 C 972.660156 708.292969 973.953125 709.648438 975.210938 711.039062 C 976.472656 712.425781 977.695312 713.847656 978.886719 715.296875 C 980.074219 716.746094 981.226562 718.222656 982.34375 719.730469 C 983.460938 721.234375 984.542969 722.769531 985.582031 724.328125 C 986.625 725.886719 987.628906 727.46875 988.59375 729.078125 C 989.554688 730.6875 990.480469 732.316406 991.363281 733.972656 C 992.246094 735.625 993.089844 737.300781 993.890625 738.996094 C 994.695312 740.691406 995.453125 742.402344 996.171875 744.136719 C 996.886719 745.867188 997.5625 747.617188 998.195312 749.382812 C 998.828125 751.148438 999.414062 752.929688 999.957031 754.722656 C 1000.503906 756.515625 1001.003906 758.324219 1001.457031 760.140625 C 1001.914062 761.960938 1002.324219 763.789062 1002.691406 765.628906 C 1003.054688 767.46875 1003.378906 769.316406 1003.652344 771.171875 C 1003.925781 773.023438 1004.15625 774.886719 1004.339844 776.75 C 1004.523438 778.617188 1004.664062 780.488281 1004.753906 782.359375 C 1004.847656 784.234375 1004.890625 786.105469 1004.890625 787.980469 C 1004.890625 789.855469 1004.84375 791.730469 1004.75 793.601562 C 1004.65625 795.472656 1004.515625 797.34375 1004.328125 799.207031 C 1004.144531 801.074219 1003.914062 802.933594 1003.636719 804.785156 C 1003.359375 806.640625 1003.035156 808.488281 1002.667969 810.324219 C 1002.300781 812.164062 1001.890625 813.992188 1001.433594 815.808594 C 1000.976562 817.625 1000.476562 819.433594 999.929688 821.226562 C 999.382812 823.019531 998.792969 824.796875 998.164062 826.5625 C 997.53125 828.328125 996.855469 830.074219 996.136719 831.808594 C 995.417969 833.539062 994.65625 835.25 993.855469 836.945312 C 993.050781 838.640625 992.210938 840.3125 991.324219 841.964844 C 990.441406 843.617188 989.515625 845.25 988.550781 846.855469 C 987.585938 848.464844 986.585938 850.046875 985.542969 851.605469 C 984.5 853.164062 983.421875 854.695312 982.304688 856.199219 C 981.1875 857.707031 980.035156 859.183594 978.84375 860.632812 C 977.65625 862.078125 976.429688 863.5 975.171875 864.886719 C 973.914062 866.277344 972.621094 867.632812 971.296875 868.960938 C 969.96875 870.285156 968.613281 871.578125 967.222656 872.835938 C 965.835938 874.09375 964.417969 875.320312 962.96875 876.507812 C 961.519531 877.699219 960.042969 878.851562 958.535156 879.96875 C 957.03125 881.085938 955.5 882.164062 953.941406 883.207031 C 952.382812 884.246094 950.800781 885.25 949.191406 886.214844 C 947.585938 887.179688 945.953125 888.105469 944.300781 888.988281 C 942.648438 889.871094 940.976562 890.714844 939.28125 891.519531 C 937.585938 892.320312 935.875 893.082031 934.144531 893.800781 C 932.414062 894.515625 930.664062 895.191406 928.898438 895.824219 C 927.136719 896.457031 925.355469 897.046875 923.5625 897.59375 C 921.769531 898.136719 919.964844 898.640625 918.144531 899.097656 C 916.328125 899.554688 914.5 899.964844 912.660156 900.332031 C 910.824219 900.699219 908.976562 901.023438 907.125 901.296875 C 905.269531 901.574219 903.410156 901.804688 901.542969 901.992188 C 899.679688 902.179688 897.808594 902.316406 895.9375 902.410156 C 894.066406 902.503906 892.191406 902.554688 890.316406 902.554688 Z M 890.316406 699.875 C 888.875 699.875 887.433594 699.910156 885.996094 699.980469 C 884.554688 700.050781 883.117188 700.15625 881.683594 700.296875 C 880.246094 700.4375 878.816406 700.617188 877.390625 700.828125 C 875.964844 701.039062 874.542969 701.285156 873.128906 701.566406 C 871.714844 701.847656 870.308594 702.164062 868.910156 702.515625 C 867.511719 702.863281 866.121094 703.25 864.742188 703.667969 C 863.363281 704.085938 861.992188 704.539062 860.636719 705.023438 C 859.277344 705.507812 857.933594 706.027344 856.601562 706.582031 C 855.269531 707.132812 853.949219 707.714844 852.648438 708.332031 C 851.34375 708.949219 850.054688 709.597656 848.785156 710.277344 C 847.511719 710.957031 846.257812 711.667969 845.023438 712.410156 C 843.785156 713.148438 842.566406 713.921875 841.367188 714.722656 C 840.167969 715.523438 838.992188 716.351562 837.832031 717.210938 C 836.675781 718.070312 835.539062 718.957031 834.421875 719.871094 C 833.308594 720.789062 832.214844 721.730469 831.148438 722.699219 C 830.078125 723.667969 829.035156 724.660156 828.015625 725.679688 C 826.996094 726.699219 826.003906 727.742188 825.035156 728.8125 C 824.066406 729.878906 823.125 730.972656 822.210938 732.085938 C 821.292969 733.199219 820.40625 734.335938 819.550781 735.496094 C 818.691406 736.652344 817.859375 737.832031 817.058594 739.03125 C 816.257812 740.230469 815.488281 741.449219 814.746094 742.683594 C 814.003906 743.921875 813.292969 745.175781 812.613281 746.449219 C 811.933594 747.71875 811.285156 749.007812 810.667969 750.308594 C 810.050781 751.613281 809.46875 752.933594 808.917969 754.265625 C 808.363281 755.597656 807.847656 756.941406 807.359375 758.296875 C 806.875 759.65625 806.421875 761.023438 806.003906 762.40625 C 805.585938 763.785156 805.199219 765.175781 804.851562 766.574219 C 804.5 767.972656 804.183594 769.378906 803.902344 770.792969 C 803.621094 772.207031 803.375 773.625 803.164062 775.054688 C 802.953125 776.480469 802.777344 777.910156 802.632812 779.34375 C 802.492188 780.78125 802.386719 782.21875 802.316406 783.65625 C 802.246094 785.097656 802.210938 786.539062 802.210938 787.980469 C 802.210938 789.421875 802.246094 790.863281 802.316406 792.304688 C 802.386719 793.746094 802.492188 795.183594 802.632812 796.617188 C 802.777344 798.050781 802.953125 799.484375 803.164062 800.910156 C 803.375 802.335938 803.621094 803.757812 803.902344 805.171875 C 804.183594 806.585938 804.5 807.992188 804.851562 809.390625 C 805.199219 810.789062 805.585938 812.179688 806.003906 813.558594 C 806.421875 814.9375 806.875 816.304688 807.359375 817.664062 C 807.847656 819.023438 808.363281 820.367188 808.917969 821.699219 C 809.46875 823.03125 810.054688 824.347656 810.667969 825.652344 C 811.285156 826.957031 811.933594 828.242188 812.613281 829.515625 C 813.292969 830.785156 814.003906 832.042969 814.746094 833.277344 C 815.488281 834.515625 816.257812 835.734375 817.058594 836.933594 C 817.859375 838.128906 818.691406 839.308594 819.550781 840.46875 C 820.40625 841.625 821.292969 842.761719 822.210938 843.875 C 823.125 844.992188 824.066406 846.082031 825.035156 847.152344 C 826.003906 848.21875 826.996094 849.265625 828.015625 850.285156 C 829.035156 851.304688 830.078125 852.296875 831.148438 853.265625 C 832.214844 854.234375 833.308594 855.175781 834.421875 856.089844 C 835.539062 857.003906 836.675781 857.890625 837.832031 858.75 C 838.992188 859.609375 840.167969 860.441406 841.367188 861.242188 C 842.566406 862.042969 843.785156 862.8125 845.023438 863.554688 C 846.257812 864.296875 847.511719 865.007812 848.785156 865.6875 C 850.054688 866.367188 851.34375 867.015625 852.648438 867.628906 C 853.949219 868.246094 855.269531 868.832031 856.601562 869.382812 C 857.933594 869.933594 859.277344 870.453125 860.636719 870.9375 C 861.992188 871.425781 863.363281 871.878906 864.742188 872.296875 C 866.121094 872.714844 867.511719 873.097656 868.910156 873.449219 C 870.308594 873.800781 871.714844 874.117188 873.128906 874.398438 C 874.542969 874.679688 875.964844 874.925781 877.390625 875.136719 C 878.816406 875.347656 880.246094 875.523438 881.683594 875.664062 C 883.117188 875.808594 884.554688 875.914062 885.996094 875.984375 C 887.433594 876.054688 888.875 876.089844 890.316406 876.089844 C 891.761719 876.089844 893.203125 876.054688 894.640625 875.984375 C 896.082031 875.914062 897.519531 875.808594 898.953125 875.664062 C 900.390625 875.523438 901.820312 875.347656 903.246094 875.136719 C 904.671875 874.925781 906.09375 874.679688 907.507812 874.398438 C 908.921875 874.117188 910.328125 873.800781 911.726562 873.449219 C 913.125 873.097656 914.515625 872.714844 915.894531 872.296875 C 917.273438 871.878906 918.644531 871.425781 920 870.9375 C 921.359375 870.453125 922.703125 869.933594 924.035156 869.382812 C 925.367188 868.832031 926.6875 868.246094 927.988281 867.628906 C 929.292969 867.015625 930.582031 866.367188 931.851562 865.6875 C 933.125 865.007812 934.378906 864.296875 935.613281 863.554688 C 936.851562 862.8125 938.070312 862.042969 939.269531 861.242188 C 940.46875 860.441406 941.644531 859.609375 942.804688 858.75 C 943.960938 857.890625 945.097656 857.003906 946.214844 856.089844 C 947.328125 855.175781 948.417969 854.234375 949.488281 853.265625 C 950.554688 852.296875 951.601562 851.304688 952.621094 850.285156 C 953.640625 849.265625 954.632812 848.21875 955.601562 847.152344 C 956.570312 846.082031 957.511719 844.992188 958.425781 843.875 C 959.339844 842.761719 960.226562 841.625 961.085938 840.46875 C 961.945312 839.308594 962.777344 838.128906 963.578125 836.933594 C 964.378906 835.734375 965.148438 834.515625 965.890625 833.277344 C 966.632812 832.042969 967.34375 830.785156 968.023438 829.515625 C 968.703125 828.242188 969.351562 826.957031 969.96875 825.652344 C 970.582031 824.347656 971.167969 823.03125 971.71875 821.699219 C 972.269531 820.367188 972.789062 819.023438 973.277344 817.664062 C 973.761719 816.304688 974.214844 814.9375 974.632812 813.558594 C 975.050781 812.179688 975.433594 810.789062 975.785156 809.390625 C 976.136719 807.992188 976.453125 806.585938 976.734375 805.171875 C 977.015625 803.757812 977.261719 802.335938 977.472656 800.910156 C 977.683594 799.484375 977.859375 798.050781 978.003906 796.617188 C 978.144531 795.183594 978.25 793.746094 978.320312 792.304688 C 978.390625 790.863281 978.425781 789.421875 978.425781 787.980469 C 978.425781 786.539062 978.386719 785.097656 978.316406 783.660156 C 978.242188 782.21875 978.136719 780.78125 977.992188 779.347656 C 977.851562 777.914062 977.671875 776.484375 977.460938 775.058594 C 977.246094 773.632812 977 772.214844 976.71875 770.800781 C 976.433594 769.386719 976.117188 767.980469 975.765625 766.582031 C 975.414062 765.183594 975.03125 763.796875 974.609375 762.417969 C 974.191406 761.035156 973.738281 759.667969 973.25 758.3125 C 972.765625 756.957031 972.246094 755.609375 971.691406 754.28125 C 971.140625 752.949219 970.554688 751.632812 969.9375 750.328125 C 969.320312 749.027344 968.671875 747.738281 967.992188 746.46875 C 967.3125 745.195312 966.601562 743.941406 965.859375 742.707031 C 965.121094 741.46875 964.347656 740.253906 963.546875 739.054688 C 962.746094 737.855469 961.914062 736.679688 961.054688 735.519531 C 960.199219 734.363281 959.3125 733.226562 958.394531 732.113281 C 957.480469 731 956.539062 729.90625 955.570312 728.839844 C 954.605469 727.773438 953.609375 726.726562 952.589844 725.710938 C 951.570312 724.691406 950.527344 723.695312 949.460938 722.726562 C 948.390625 721.761719 947.300781 720.820312 946.1875 719.902344 C 945.070312 718.988281 943.9375 718.101562 942.777344 717.242188 C 941.621094 716.382812 940.441406 715.554688 939.246094 714.753906 C 938.046875 713.953125 936.828125 713.179688 935.59375 712.4375 C 934.355469 711.699219 933.101562 710.988281 931.832031 710.308594 C 930.5625 709.625 929.273438 708.976562 927.972656 708.359375 C 926.667969 707.746094 925.351562 707.160156 924.019531 706.605469 C 922.6875 706.054688 921.34375 705.535156 919.988281 705.046875 C 918.628906 704.5625 917.261719 704.109375 915.882812 703.691406 C 914.503906 703.269531 913.117188 702.886719 911.71875 702.535156 C 910.320312 702.183594 908.914062 701.867188 907.5 701.582031 C 906.085938 701.300781 904.667969 701.054688 903.242188 700.839844 C 901.816406 700.628906 900.386719 700.449219 898.949219 700.308594 C 897.515625 700.164062 896.078125 700.054688 894.640625 699.984375 C 893.199219 699.910156 891.757812 699.875 890.316406 699.875 Z M 890.316406 699.875 "/><path style=" stroke:none;fill-rule:nonzero;fill:#1e40af;fill-opacity:1;" d="M 890.316406 954.621094 C 887.589844 954.621094 884.867188 954.554688 882.140625 954.417969 C 879.417969 954.285156 876.699219 954.085938 873.984375 953.816406 C 871.269531 953.550781 868.5625 953.214844 865.867188 952.816406 C 863.167969 952.417969 860.484375 951.949219 857.808594 951.417969 C 855.132812 950.886719 852.472656 950.289062 849.828125 949.625 C 847.179688 948.964844 844.554688 948.234375 841.945312 947.445312 C 839.335938 946.652344 836.746094 945.796875 834.179688 944.878906 C 831.609375 943.960938 829.066406 942.980469 826.546875 941.933594 C 824.027344 940.890625 821.535156 939.785156 819.070312 938.621094 C 816.605469 937.453125 814.167969 936.230469 811.761719 934.945312 C 809.359375 933.65625 806.984375 932.3125 804.644531 930.910156 C 802.308594 929.511719 800.003906 928.050781 797.734375 926.535156 C 795.46875 925.019531 793.238281 923.453125 791.050781 921.828125 C 788.859375 920.203125 786.710938 918.523438 784.601562 916.792969 C 782.492188 915.066406 780.429688 913.285156 778.40625 911.453125 C 776.386719 909.621094 774.414062 907.742188 772.484375 905.8125 C 770.554688 903.882812 768.675781 901.910156 766.84375 899.886719 C 765.011719 897.867188 763.230469 895.804688 761.5 893.695312 C 759.769531 891.585938 758.09375 889.4375 756.46875 887.246094 C 754.84375 885.058594 753.273438 882.828125 751.757812 880.558594 C 750.246094 878.292969 748.785156 875.988281 747.382812 873.648438 C 745.980469 871.3125 744.636719 868.9375 743.351562 866.535156 C 742.066406 864.128906 740.839844 861.691406 739.675781 859.226562 C 738.507812 856.761719 737.402344 854.269531 736.359375 851.75 C 735.316406 849.230469 734.335938 846.6875 733.417969 844.117188 C 732.496094 841.550781 731.640625 838.960938 730.851562 836.351562 C 730.058594 833.742188 729.332031 831.113281 728.667969 828.46875 C 728.007812 825.824219 727.410156 823.164062 726.875 820.488281 C 726.34375 817.8125 725.878906 815.128906 725.476562 812.429688 C 725.078125 809.734375 724.746094 807.027344 724.476562 804.3125 C 724.210938 801.597656 724.007812 798.878906 723.875 796.15625 C 723.742188 793.433594 723.675781 790.707031 723.675781 787.980469 C 723.675781 785.25 723.742188 782.527344 723.875 779.800781 C 724.007812 777.078125 724.210938 774.359375 724.476562 771.644531 C 724.746094 768.929688 725.078125 766.226562 725.476562 763.527344 C 725.878906 760.828125 726.34375 758.144531 726.875 755.46875 C 727.410156 752.792969 728.003906 750.132812 728.667969 747.488281 C 729.332031 744.84375 730.058594 742.214844 730.851562 739.605469 C 731.640625 736.996094 732.496094 734.40625 733.414062 731.839844 C 734.335938 729.273438 735.316406 726.726562 736.359375 724.207031 C 737.402344 721.6875 738.507812 719.195312 739.671875 716.730469 C 740.839844 714.265625 742.066406 711.832031 743.351562 709.425781 C 744.636719 707.019531 745.980469 704.648438 747.382812 702.308594 C 748.785156 699.96875 750.242188 697.664062 751.757812 695.398438 C 753.273438 693.128906 754.84375 690.902344 756.46875 688.710938 C 758.09375 686.519531 759.769531 684.371094 761.5 682.261719 C 763.230469 680.15625 765.011719 678.089844 766.84375 676.070312 C 768.671875 674.050781 770.554688 672.074219 772.480469 670.144531 C 774.410156 668.21875 776.386719 666.335938 778.40625 664.507812 C 780.425781 662.675781 782.492188 660.894531 784.597656 659.164062 C 786.707031 657.433594 788.855469 655.757812 791.046875 654.132812 C 793.238281 652.507812 795.464844 650.9375 797.734375 649.421875 C 800.003906 647.90625 802.304688 646.449219 804.644531 645.046875 C 806.984375 643.644531 809.355469 642.300781 811.761719 641.015625 C 814.167969 639.730469 816.601562 638.503906 819.066406 637.335938 C 821.53125 636.171875 824.023438 635.066406 826.542969 634.023438 C 829.0625 632.980469 831.609375 631.996094 834.175781 631.078125 C 836.742188 630.160156 839.332031 629.304688 841.941406 628.511719 C 844.550781 627.722656 847.179688 626.996094 849.824219 626.332031 C 852.46875 625.667969 855.128906 625.070312 857.804688 624.539062 C 860.480469 624.007812 863.167969 623.542969 865.863281 623.140625 C 868.5625 622.742188 871.269531 622.40625 873.980469 622.140625 C 876.695312 621.875 879.414062 621.671875 882.140625 621.539062 C 884.863281 621.40625 887.589844 621.339844 890.316406 621.339844 C 893.042969 621.339844 895.769531 621.40625 898.492188 621.539062 C 901.214844 621.671875 903.933594 621.875 906.648438 622.140625 C 909.363281 622.40625 912.070312 622.742188 914.765625 623.140625 C 917.464844 623.542969 920.152344 624.007812 922.824219 624.539062 C 925.5 625.074219 928.160156 625.667969 930.804688 626.332031 C 933.453125 626.996094 936.078125 627.722656 938.691406 628.515625 C 941.300781 629.304688 943.886719 630.160156 946.457031 631.078125 C 949.023438 632 951.566406 632.980469 954.085938 634.023438 C 956.605469 635.066406 959.097656 636.171875 961.566406 637.339844 C 964.03125 638.503906 966.464844 639.730469 968.871094 641.015625 C 971.277344 642.300781 973.648438 643.644531 975.988281 645.046875 C 978.328125 646.449219 980.628906 647.90625 982.898438 649.421875 C 985.164062 650.9375 987.394531 652.507812 989.585938 654.132812 C 991.773438 655.757812 993.925781 657.433594 996.03125 659.164062 C 998.140625 660.894531 1000.203125 662.675781 1002.226562 664.507812 C 1004.246094 666.339844 1006.222656 668.21875 1008.148438 670.148438 C 1010.078125 672.074219 1011.957031 674.050781 1013.789062 676.070312 C 1015.621094 678.09375 1017.402344 680.15625 1019.132812 682.265625 C 1020.863281 684.371094 1022.539062 686.523438 1024.164062 688.710938 C 1025.789062 690.902344 1027.359375 693.132812 1028.875 695.398438 C 1030.386719 697.667969 1031.847656 699.972656 1033.25 702.308594 C 1034.652344 704.648438 1035.996094 707.023438 1037.28125 709.425781 C 1038.566406 711.832031 1039.792969 714.265625 1040.957031 716.734375 C 1042.125 719.199219 1043.230469 721.691406 1044.273438 724.210938 C 1045.316406 726.730469 1046.296875 729.273438 1047.214844 731.839844 C 1048.132812 734.410156 1048.988281 736.996094 1049.78125 739.609375 C 1050.574219 742.21875 1051.300781 744.84375 1051.964844 747.492188 C 1052.625 750.136719 1053.222656 752.796875 1053.753906 755.472656 C 1054.289062 758.144531 1054.753906 760.832031 1055.152344 763.53125 C 1055.554688 766.226562 1055.886719 768.933594 1056.152344 771.648438 C 1056.421875 774.363281 1056.621094 777.082031 1056.757812 779.804688 C 1056.890625 782.527344 1056.957031 785.253906 1056.957031 787.980469 C 1056.953125 790.707031 1056.882812 793.433594 1056.746094 796.15625 C 1056.609375 798.878906 1056.40625 801.597656 1056.136719 804.308594 C 1055.867188 807.023438 1055.53125 809.726562 1055.128906 812.421875 C 1054.726562 815.121094 1054.257812 817.804688 1053.722656 820.476562 C 1053.1875 823.152344 1052.589844 825.808594 1051.925781 828.453125 C 1051.261719 831.097656 1050.53125 833.722656 1049.738281 836.332031 C 1048.945312 838.941406 1048.089844 841.527344 1047.167969 844.09375 C 1046.25 846.660156 1045.265625 849.203125 1044.222656 851.722656 C 1043.175781 854.238281 1042.070312 856.730469 1040.902344 859.195312 C 1039.738281 861.660156 1038.511719 864.09375 1037.222656 866.496094 C 1035.9375 868.902344 1034.59375 871.269531 1033.191406 873.609375 C 1031.789062 875.945312 1030.328125 878.25 1028.8125 880.515625 C 1027.300781 882.78125 1025.730469 885.011719 1024.105469 887.199219 C 1022.480469 889.390625 1020.804688 891.539062 1019.074219 893.644531 C 1017.34375 895.75 1015.5625 897.816406 1013.730469 899.835938 C 1011.902344 901.855469 1010.019531 903.828125 1008.09375 905.757812 C 1006.164062 907.683594 1004.191406 909.5625 1002.171875 911.394531 C 1000.152344 913.226562 998.089844 915.007812 995.980469 916.738281 C 993.875 918.464844 991.726562 920.144531 989.535156 921.769531 C 987.347656 923.394531 985.117188 924.960938 982.851562 926.476562 C 980.585938 927.992188 978.285156 929.453125 975.945312 930.855469 C 973.609375 932.257812 971.238281 933.601562 968.832031 934.886719 C 966.429688 936.171875 963.996094 937.398438 961.53125 938.566406 C 959.066406 939.734375 956.578125 940.839844 954.058594 941.882812 C 951.539062 942.929688 948.996094 943.910156 946.429688 944.832031 C 943.863281 945.75 941.277344 946.609375 938.667969 947.402344 C 936.0625 948.195312 933.433594 948.925781 930.789062 949.589844 C 928.148438 950.253906 925.488281 950.851562 922.816406 951.386719 C 920.140625 951.921875 917.457031 952.390625 914.757812 952.792969 C 912.0625 953.195312 909.359375 953.53125 906.644531 953.800781 C 903.933594 954.070312 901.214844 954.273438 898.492188 954.410156 C 895.769531 954.546875 893.042969 954.617188 890.316406 954.621094 Z M 890.316406 647.808594 C 888.023438 647.808594 885.730469 647.863281 883.441406 647.976562 C 881.148438 648.089844 878.863281 648.257812 876.578125 648.480469 C 874.296875 648.707031 872.019531 648.988281 869.75 649.324219 C 867.480469 649.660156 865.222656 650.050781 862.972656 650.5 C 860.722656 650.949219 858.484375 651.449219 856.257812 652.007812 C 854.03125 652.566406 851.824219 653.175781 849.628906 653.84375 C 847.433594 654.507812 845.253906 655.226562 843.09375 656 C 840.933594 656.773438 838.792969 657.597656 836.675781 658.476562 C 834.554688 659.355469 832.457031 660.285156 830.386719 661.265625 C 828.3125 662.246094 826.261719 663.277344 824.238281 664.359375 C 822.214844 665.441406 820.21875 666.570312 818.253906 667.75 C 816.285156 668.929688 814.347656 670.15625 812.441406 671.429688 C 810.53125 672.703125 808.65625 674.023438 806.816406 675.390625 C 804.972656 676.757812 803.164062 678.167969 801.390625 679.625 C 799.617188 681.078125 797.878906 682.578125 796.179688 684.117188 C 794.480469 685.660156 792.820312 687.242188 791.199219 688.863281 C 789.574219 690.484375 787.996094 692.144531 786.453125 693.84375 C 784.914062 695.546875 783.414062 697.28125 781.960938 699.054688 C 780.503906 700.828125 779.09375 702.636719 777.726562 704.480469 C 776.359375 706.320312 775.039062 708.195312 773.765625 710.105469 C 772.492188 712.011719 771.261719 713.949219 770.085938 715.917969 C 768.90625 717.886719 767.773438 719.878906 766.691406 721.902344 C 765.613281 723.925781 764.582031 725.976562 763.597656 728.050781 C 762.617188 730.121094 761.6875 732.21875 760.8125 734.339844 C 759.933594 736.457031 759.109375 738.597656 758.335938 740.757812 C 757.5625 742.917969 756.84375 745.09375 756.175781 747.289062 C 755.511719 749.484375 754.898438 751.695312 754.34375 753.921875 C 753.785156 756.148438 753.28125 758.382812 752.835938 760.632812 C 752.386719 762.882812 751.996094 765.144531 751.65625 767.414062 C 751.320312 769.683594 751.039062 771.957031 750.816406 774.242188 C 750.589844 776.523438 750.421875 778.8125 750.308594 781.101562 C 750.195312 783.394531 750.140625 785.6875 750.140625 787.980469 C 750.140625 790.277344 750.195312 792.566406 750.308594 794.859375 C 750.421875 797.152344 750.589844 799.4375 750.816406 801.722656 C 751.039062 804.003906 751.320312 806.28125 751.65625 808.550781 C 751.996094 810.820312 752.386719 813.078125 752.835938 815.328125 C 753.28125 817.578125 753.785156 819.816406 754.339844 822.042969 C 754.898438 824.265625 755.511719 826.476562 756.175781 828.671875 C 756.84375 830.867188 757.5625 833.046875 758.335938 835.203125 C 759.109375 837.363281 759.933594 839.503906 760.8125 841.625 C 761.6875 843.742188 762.617188 845.839844 763.597656 847.914062 C 764.578125 849.988281 765.609375 852.035156 766.691406 854.058594 C 767.773438 856.082031 768.902344 858.078125 770.082031 860.046875 C 771.261719 862.011719 772.488281 863.949219 773.765625 865.859375 C 775.039062 867.765625 776.359375 869.640625 777.726562 871.484375 C 779.09375 873.324219 780.503906 875.132812 781.957031 876.90625 C 783.414062 878.679688 784.910156 880.417969 786.453125 882.117188 C 787.992188 883.816406 789.574219 885.476562 791.195312 887.101562 C 792.820312 888.722656 794.480469 890.304688 796.179688 891.84375 C 797.878906 893.386719 799.617188 894.882812 801.390625 896.339844 C 803.164062 897.792969 804.96875 899.203125 806.8125 900.570312 C 808.65625 901.9375 810.53125 903.257812 812.4375 904.53125 C 814.347656 905.808594 816.285156 907.035156 818.25 908.214844 C 820.21875 909.394531 822.214844 910.523438 824.238281 911.605469 C 826.261719 912.6875 828.308594 913.71875 830.382812 914.699219 C 832.457031 915.679688 834.554688 916.609375 836.671875 917.484375 C 838.792969 918.363281 840.933594 919.191406 843.09375 919.960938 C 845.253906 920.734375 847.429688 921.453125 849.625 922.121094 C 851.820312 922.785156 854.03125 923.398438 856.253906 923.957031 C 858.480469 924.511719 860.71875 925.015625 862.96875 925.464844 C 865.21875 925.910156 867.476562 926.300781 869.746094 926.640625 C 872.015625 926.976562 874.292969 927.257812 876.574219 927.480469 C 878.859375 927.707031 881.144531 927.875 883.4375 927.988281 C 885.730469 928.101562 888.023438 928.15625 890.316406 928.15625 C 892.609375 928.15625 894.902344 928.101562 897.195312 927.988281 C 899.484375 927.875 901.773438 927.707031 904.054688 927.480469 C 906.339844 927.257812 908.613281 926.976562 910.882812 926.640625 C 913.152344 926.304688 915.414062 925.910156 917.664062 925.464844 C 919.914062 925.015625 922.148438 924.511719 924.375 923.957031 C 926.601562 923.398438 928.8125 922.785156 931.007812 922.121094 C 933.203125 921.453125 935.378906 920.734375 937.539062 919.960938 C 939.699219 919.191406 941.839844 918.363281 943.957031 917.488281 C 946.078125 916.609375 948.175781 915.679688 950.246094 914.699219 C 952.320312 913.71875 954.371094 912.6875 956.394531 911.605469 C 958.417969 910.523438 960.410156 909.394531 962.378906 908.214844 C 964.347656 907.035156 966.285156 905.808594 968.191406 904.53125 C 970.101562 903.257812 971.976562 901.9375 973.816406 900.570312 C 975.660156 899.203125 977.46875 897.792969 979.242188 896.339844 C 981.015625 894.882812 982.75 893.386719 984.449219 891.84375 C 986.152344 890.304688 987.8125 888.722656 989.433594 887.101562 C 991.054688 885.476562 992.636719 883.816406 994.179688 882.117188 C 995.71875 880.417969 997.214844 878.679688 998.671875 876.90625 C 1000.128906 875.132812 1001.539062 873.328125 1002.90625 871.484375 C 1004.273438 869.640625 1005.59375 867.765625 1006.867188 865.859375 C 1008.140625 863.953125 1009.367188 862.015625 1010.546875 860.046875 C 1011.726562 858.078125 1012.855469 856.082031 1013.9375 854.058594 C 1015.019531 852.035156 1016.050781 849.988281 1017.03125 847.914062 C 1018.011719 845.839844 1018.941406 843.742188 1019.820312 841.625 C 1020.699219 839.503906 1021.523438 837.363281 1022.296875 835.207031 C 1023.070312 833.046875 1023.789062 830.867188 1024.453125 828.671875 C 1025.121094 826.476562 1025.730469 824.265625 1026.289062 822.042969 C 1026.847656 819.816406 1027.347656 817.578125 1027.796875 815.328125 C 1028.246094 813.078125 1028.636719 810.820312 1028.972656 808.550781 C 1029.308594 806.28125 1029.589844 804.003906 1029.816406 801.722656 C 1030.039062 799.4375 1030.207031 797.152344 1030.320312 794.859375 C 1030.433594 792.566406 1030.492188 790.277344 1030.492188 787.980469 C 1030.488281 785.6875 1030.429688 783.394531 1030.3125 781.105469 C 1030.199219 778.816406 1030.027344 776.527344 1029.800781 774.246094 C 1029.574219 771.964844 1029.289062 769.691406 1028.953125 767.421875 C 1028.613281 765.152344 1028.21875 762.894531 1027.769531 760.644531 C 1027.320312 758.398438 1026.816406 756.160156 1026.257812 753.9375 C 1025.699219 751.710938 1025.085938 749.503906 1024.417969 747.308594 C 1023.75 745.117188 1023.03125 742.9375 1022.257812 740.78125 C 1021.484375 738.621094 1020.65625 736.484375 1019.777344 734.363281 C 1018.898438 732.246094 1017.96875 730.152344 1016.988281 728.078125 C 1016.003906 726.003906 1014.972656 723.957031 1013.890625 721.9375 C 1012.808594 719.914062 1011.679688 717.917969 1010.5 715.953125 C 1009.320312 713.988281 1008.09375 712.050781 1006.816406 710.144531 C 1005.542969 708.238281 1004.222656 706.363281 1002.855469 704.519531 C 1001.488281 702.679688 1000.078125 700.871094 998.625 699.101562 C 997.167969 697.328125 995.671875 695.589844 994.128906 693.890625 C 992.589844 692.191406 991.007812 690.53125 989.386719 688.910156 C 987.765625 687.289062 986.105469 685.707031 984.40625 684.167969 C 982.707031 682.628906 980.972656 681.128906 979.199219 679.675781 C 977.425781 678.21875 975.621094 676.808594 973.777344 675.441406 C 971.9375 674.078125 970.0625 672.753906 968.15625 671.480469 C 966.25 670.207031 964.3125 668.980469 962.347656 667.800781 C 960.378906 666.621094 958.386719 665.488281 956.363281 664.40625 C 954.339844 663.324219 952.292969 662.292969 950.222656 661.3125 C 948.148438 660.328125 946.054688 659.398438 943.933594 658.519531 C 941.816406 657.640625 939.679688 656.816406 937.519531 656.042969 C 935.359375 655.265625 933.183594 654.546875 930.988281 653.878906 C 928.796875 653.210938 926.585938 652.597656 924.363281 652.039062 C 922.136719 651.480469 919.902344 650.976562 917.652344 650.527344 C 915.40625 650.078125 913.144531 649.683594 910.878906 649.34375 C 908.609375 649.007812 906.335938 648.722656 904.050781 648.496094 C 901.769531 648.269531 899.484375 648.097656 897.195312 647.984375 C 894.902344 647.867188 892.613281 647.808594 890.316406 647.808594 Z M 890.316406 647.808594 "/></g></svg>